<svg width="99" height="48" viewBox="0 0 99 48" fill="none" xmlns="http://www.w3.org/2000/svg">
<g id="Content">
<g id="Content_2">
<g id="Content_3">
<path id="Vector" d="M19.1699 11.1953C19.1115 11.312 19.0516 11.4225 18.9902 11.5316C19.0424 11.4164 19.0977 11.3028 19.1622 11.1984C19.1637 11.1984 19.1668 11.1968 19.1699 11.1953Z" fill="#B37A50"/>
<path id="Vector_2" d="M19.4661 10.5625C19.44 10.6239 19.4124 10.6838 19.3848 10.7421C19.3863 10.7176 19.3894 10.6915 19.3924 10.6669C19.417 10.6331 19.4416 10.5978 19.4661 10.5625Z" fill="#B37A50"/>
<g id="Content_4">
<g id="Content_5">
<path id="Vector_3" d="M17.1281 5.18904C17.1158 5.19364 17.1035 5.19671 17.0897 5.19979C17.0882 5.20286 17.0866 5.20746 17.0836 5.21053C17.0836 5.21206 17.082 5.21207 17.082 5.2136C17.0897 5.2136 17.0989 5.21514 17.1066 5.21667C17.1143 5.20746 17.1219 5.19671 17.1296 5.1875C17.1327 5.18904 17.1312 5.18904 17.1281 5.18904Z" fill="url(#paint0_linear_144_14644)"/>
<path id="Vector_4" d="M17.0781 5.21485C17.0801 5.21485 17.0801 5.21485 17.082 5.21485C17.082 5.21289 17.084 5.2129 17.084 5.21094C17.082 5.2129 17.0801 5.21485 17.0781 5.21485Z" fill="url(#paint1_linear_144_14644)"/>
<path id="Vector_5" d="M3.51907 19.2617C3.51571 19.2651 3.51907 19.2651 3.51907 19.2617V19.2617Z" fill="url(#paint2_linear_144_14644)"/>
<path id="Vector_6" d="M8.48942 22.3192C8.51092 21.8955 8.54776 20.7516 8.42188 19.4297C8.55543 20.3616 8.56004 21.3243 8.48942 22.3192Z" fill="url(#paint3_linear_144_14644)"/>
<path id="Vector_7" d="M10.3409 15.7043H10.304C10.2902 15.6674 10.2779 15.6306 10.2656 15.5938C10.2902 15.6306 10.3163 15.6674 10.3409 15.7043Z" fill="url(#paint4_linear_144_14644)"/>
<path id="Vector_8" d="M17.1037 15.4538C17.1007 15.5337 17.0991 15.612 17.0991 15.6903C17.0638 15.7348 17.027 15.7762 16.9871 15.8192C16.9257 15.8008 16.8827 15.7624 16.8535 15.7056C16.9349 15.6196 17.0162 15.5352 17.0961 15.4492L17.1037 15.4538Z" fill="url(#paint5_linear_144_14644)"/>
<path id="Vector_9" d="M17.1332 5.1875C17.1256 5.19671 17.1179 5.20746 17.1102 5.21667L17.0979 5.20592L17.0918 5.19978C17.1041 5.19517 17.1164 5.1921 17.1302 5.18903C17.1317 5.1875 17.1332 5.1875 17.1332 5.1875Z" fill="url(#paint6_linear_144_14644)"/>
<path id="Vector_10" d="M17.2022 5.09375C17.196 5.11678 17.1991 5.1521 17.1838 5.16284C17.1669 5.17359 17.1469 5.18127 17.127 5.18741C17.1515 5.1567 17.1776 5.12446 17.2022 5.09375Z" fill="url(#paint7_linear_144_14644)"/>
<path id="Vector_11" d="M3.51907 19.2617C3.51571 19.2651 3.51907 19.2651 3.51907 19.2617V19.2617Z" fill="url(#paint8_linear_144_14644)"/>
<path id="Vector_12" d="M4.26252 20.0898C4.01535 19.9024 3.8035 19.6767 3.62695 19.4219C3.82499 19.643 4.03531 19.8671 4.26252 20.0898Z" fill="url(#paint9_linear_144_14644)"/>
<path id="Vector_13" d="M3.43313 19.2054C3.22588 19.0672 3.02017 18.929 2.81445 18.7908C2.84669 18.734 2.88507 18.6542 2.92191 18.582C3.07543 18.7816 3.24737 18.9904 3.43313 19.2054Z" fill="url(#paint10_linear_144_14644)"/>
<path id="Vector_14" d="M3.51907 19.2617C3.51571 19.2651 3.51907 19.2651 3.51907 19.2617V19.2617Z" fill="url(#paint11_linear_144_14644)"/>
<path id="Vector_15" d="M17.5705 15.6818C17.4124 15.6833 17.2558 15.6848 17.0977 15.6864C17.0977 15.6081 17.0992 15.5298 17.1023 15.4499C17.3003 15.4438 17.4799 15.4745 17.5705 15.6818Z" fill="url(#paint12_linear_144_14644)"/>
<path id="Vector_16" d="M14.2307 14.7311C14.1539 14.6559 14.0787 14.5791 14.002 14.5039C14.0787 14.5791 14.1539 14.6544 14.2307 14.7311Z" fill="url(#paint13_linear_144_14644)"/>
<path id="Vector_17" d="M3.51914 19.2654C3.48844 19.2439 3.46081 19.227 3.43164 19.207C3.49458 19.2777 3.55906 19.3529 3.62507 19.425C3.58822 19.3728 3.55292 19.3191 3.51914 19.2654ZM4.46634 20.2373C4.39573 20.1927 4.32665 20.1451 4.26217 20.0945C5.39359 21.2091 6.84739 22.2547 8.47314 22.4942C6.89652 22.0782 5.58241 21.3366 4.46634 20.2373Z" fill="url(#paint14_linear_144_14644)"/>
</g>
<path id="Vector_18" d="M12.3607 34.0209C12.2886 33.8674 12.2164 33.7123 12.1443 33.5588V33.5573L11.9877 30.9134L11.914 29.6544L11.3905 20.7908L10.976 18.4064C10.824 17.413 10.5968 16.5163 10.3113 15.7072C10.2974 15.6704 10.2852 15.6335 10.2729 15.5967C10.2713 15.5967 10.2713 15.5951 10.2713 15.5951C10.0902 15.0915 9.88448 14.6232 9.66035 14.1857C9.61583 14.0521 9.56824 13.917 9.51604 13.7865C9.34871 13.3658 9.14146 12.9697 8.86667 12.6242C8.68091 12.3893 8.46292 12.179 8.20347 12.0009C7.8381 11.574 7.45738 11.1948 7.06898 10.8616C5.93603 9.46445 4.24273 8.99463 2.67686 8.3206C2.51106 8.24998 2.38979 8.32675 2.2854 8.43576C1.79721 8.32214 1.50246 8.29297 1.50246 8.29297C1.50246 8.29297 -1.53871 13.7926 1.84941 17.0291C1.84941 17.0291 1.85401 17.0368 1.86169 17.0506C1.86169 17.0506 1.86169 17.0506 1.86169 17.0522C1.93537 17.1735 2.31456 17.7968 2.92863 18.5829C3.08368 18.7825 3.25562 18.9913 3.43984 19.2063C3.46901 19.2262 3.49664 19.2447 3.52581 19.2631H3.52735V19.2646C3.56112 19.3199 3.59643 19.3721 3.63174 19.4243C3.82977 19.6469 4.04163 19.8696 4.2673 20.0922L4.26883 20.0937C4.33331 20.1444 4.40239 20.192 4.47301 20.2365C5.59062 21.3374 6.90472 22.0774 8.4798 22.4935C8.4798 22.4935 8.48134 22.4704 8.48441 22.4244C8.48441 22.4167 8.48594 22.4075 8.48594 22.3998C8.48748 22.3768 8.48901 22.3507 8.49055 22.32C8.51204 21.8962 8.54888 20.7524 8.423 19.4304C8.42146 19.4258 8.42147 19.4228 8.42147 19.4182C8.2526 17.6632 7.79512 15.5982 6.63146 14.4973C6.20161 13.8341 5.68579 13.2215 5.19608 12.595C5.19147 12.5858 5.18686 12.5766 5.18226 12.5674C5.48622 12.7624 5.97287 13.0848 6.50251 13.4548C6.8863 13.7251 7.29312 14.0183 7.66463 14.3054C8.28483 14.7875 8.81447 15.2558 8.99869 15.5736C9.54828 16.5194 9.91979 20.7908 9.91979 20.7908L9.70794 29.6774L9.67877 30.941L9.62657 33.1059L9.25353 33.5603C9.02172 33.8797 8.78991 34.1975 8.5581 34.5153C8.39997 34.6888 8.21729 34.8454 8.0868 35.0373C7.04442 36.585 7.50651 38.6116 9.10308 39.5221C10.7212 40.4449 12.6785 39.8461 13.4737 38.1326C14.2413 36.4744 13.5796 35.1602 12.3607 34.0209ZM9.83536 33.5588H9.8722C9.85685 33.5619 9.84457 33.5634 9.83536 33.5588Z" fill="url(#paint15_linear_144_14644)"/>
<path id="Vector_19" d="M4.81124 16.0527C4.7268 16.2769 4.6393 16.3905 4.66847 16.455C4.67 16.4581 4.67154 16.4611 4.67307 16.4627C4.75904 16.3629 4.84655 16.2662 4.93866 16.171C4.89721 16.131 4.85269 16.0927 4.81124 16.0527ZM18.1703 16.1725C18.0705 16.0389 17.9692 15.9084 17.8617 15.7794C17.4764 15.3173 16.9636 14.7323 16.4954 14.3516L15.3364 15.1515C15.3456 15.1592 15.3548 15.1638 15.364 15.1714C17.4119 16.627 18.7506 19.019 18.7506 21.7182C18.7506 25.7393 15.777 29.0787 11.9129 29.6545L11.9866 30.9134C16.5169 30.2993 20.0079 26.4164 20.0079 21.7182C20.0079 19.6393 19.3247 17.7201 18.1703 16.1725ZM2.70805 21.7182C2.70805 20.774 2.87232 19.8681 3.17168 19.0267C3.18243 18.9945 3.19471 18.9622 3.20852 18.93C3.22694 18.8793 3.24536 18.8302 3.26379 18.7811L2.35957 17.7078C2.35036 17.7278 2.33962 17.7478 2.3304 17.7693C1.76546 18.9668 1.44922 20.3072 1.44922 21.7182C1.44922 26.4885 5.04766 30.4175 9.67773 30.9396L9.70689 29.6759C5.76458 29.1724 2.70805 25.7946 2.70805 21.7182Z" fill="url(#paint16_linear_144_14644)"/>
<path id="Vector_20" d="M9.83086 33.556H9.61133L9.62207 33.1016C9.8416 33.143 9.72032 33.5253 9.83086 33.556Z" fill="url(#paint17_linear_144_14644)"/>
<path id="Vector_21" d="M20.3482 7.05456C20.23 8.19533 19.9844 9.19024 19.6635 10.0562C19.599 10.2297 19.5315 10.397 19.4624 10.5598V10.5613C19.4379 10.5966 19.4133 10.6319 19.3903 10.6657C19.3857 10.6903 19.3826 10.7164 19.3826 10.7409V10.7425C19.3657 10.916 19.3642 11.0941 19.1692 11.1893C19.1661 11.1908 19.1631 11.1923 19.1615 11.1939C19.0971 11.2967 19.0418 11.4119 18.9896 11.527C18.9896 11.5286 18.9881 11.5301 18.9881 11.5301C18.8437 11.8479 18.7163 12.1796 18.4553 12.3822C18.0025 13.0317 17.525 13.5507 17.0829 13.9575H17.0814C16.2616 14.7114 15.5708 15.0722 15.4034 15.1536C15.3789 15.1643 15.3651 15.1705 15.3651 15.1705C15.233 15.2319 15.0995 15.3209 14.9598 15.4407C14.9337 15.4699 14.9137 15.5082 14.8815 15.5267C14.2935 15.8951 13.4906 16.5001 13.027 16.2237C12.4897 15.9059 12.8228 14.9555 12.9026 14.2753C12.9441 14.1049 12.9886 13.933 13.0301 13.761C12.9932 13.6151 12.9579 13.4693 12.9211 13.3234C12.9717 13.1591 13.0208 12.9949 13.07 12.8306C13.1283 12.5834 13.1744 12.33 13.222 12.0782V12.0767C13.0884 10.526 14.6328 8.23525 15.8102 6.73367C15.8594 6.63694 15.9039 6.53715 15.9438 6.43274C16.0589 6.32527 16.1802 6.22393 16.3015 6.12413C16.7651 5.5668 17.0921 5.2152 17.0921 5.2152L16.9509 5.46547C17.0061 5.3887 17.0522 5.30425 17.0921 5.2152C17.0998 5.2152 17.109 5.21674 17.1167 5.21828C17.1244 5.20906 17.132 5.19832 17.1397 5.1891C17.1612 5.18143 17.1796 5.17528 17.1965 5.16454C17.2119 5.15532 17.2088 5.12001 17.2149 5.09544C17.1904 5.12769 17.1643 5.1584 17.1397 5.1891C17.1397 5.1891 17.1382 5.1891 17.1351 5.19064C17.1228 5.19524 17.1105 5.19831 17.0967 5.20138C17.0952 5.20445 17.0937 5.20906 17.0906 5.21213C17.089 5.21367 17.0875 5.2152 17.086 5.2152C16.9202 5.30272 16.3737 5.60211 15.6936 6.09803C15.689 6.11953 15.6844 6.13949 15.6782 6.15945C14.6297 6.73521 14.1031 7.80689 13.3248 8.63905C13.268 8.702 13.2081 8.76187 13.1452 8.82175C13.0853 8.93997 13.0255 9.06127 12.9671 9.18103C12.5419 10.0562 12.1857 10.9559 11.9125 11.8909C11.6515 12.7876 11.4673 13.7149 11.3813 14.6884C9.77857 12.8521 10.2668 11.0649 11.1786 9.26701C12.0783 6.79816 13.5106 4.76534 15.91 3.53399C16.6331 2.80777 17.588 2.54368 18.5198 2.25657C19.8247 1.85431 20.0842 1.98174 20.3605 3.29754C20.5478 4.1727 20.5048 5.7449 20.3482 7.05456Z" fill="url(#paint18_linear_144_14644)"/>
<path id="Vector_22" d="M13.3269 8.63672L12.9707 9.1787C13.0275 9.05894 13.0874 8.93764 13.1488 8.81942C13.2087 8.75954 13.2685 8.69967 13.3269 8.63672Z" fill="url(#paint19_linear_144_14644)"/>
<path id="Vector_23" d="M17.1348 5.1875C17.1302 5.19057 17.1194 5.19517 17.1025 5.20439C17.0995 5.20746 17.0949 5.20899 17.0918 5.21053C17.0949 5.20592 17.0964 5.20285 17.0979 5.19978C17.1102 5.19517 17.1225 5.19211 17.1348 5.1875Z" fill="url(#paint20_linear_144_14644)"/>
</g>
<g id="Content_6">
<path id="Vector_24" d="M33.2479 0.792969C38.7745 0.792969 41.9646 4.2859 41.9646 9.48615V9.51072C41.9646 14.6864 38.7745 18.1778 33.2479 18.1778H26.4395V0.792969H33.2479ZM30.1592 14.6879H33.2495C36.4395 14.6879 38.2741 12.6029 38.2741 9.51226V9.48769C38.2741 6.37245 36.4395 4.28744 33.2495 4.28744H30.1592V14.6879Z" fill="#A2915D"/>
<path id="Vector_25" d="M60.6579 18.1793H56.7386L55.3323 14.5359H47.7716L46.39 18.1793H42.4707L49.5555 0.792969H53.55L60.6579 18.1793ZM51.5635 4.61293L48.9506 11.2702H54.1503L51.5635 4.61293Z" fill="#A2915D"/>
<path id="Vector_26" d="M73.6676 0.792969H77.3858V10.3152C77.3858 16.0437 74.0453 18.4803 69.6485 18.4803H69.624C65.2272 18.4803 61.8867 16.0437 61.8867 10.3152V0.792969H65.6049V10.3152C65.6049 13.8327 67.5638 14.8875 69.624 14.8875H69.6485C71.7087 14.8875 73.6676 13.8327 73.6676 10.3152V0.792969Z" fill="#A2915D"/>
<path id="Vector_27" d="M89.4694 10.0389L94.7704 0.792969H98.3626V18.1793H94.7704V6.99887L90.6008 14.6864H88.3395L84.1946 6.99887V18.1793H80.5762V0.792969H84.1685L89.4694 10.0389Z" fill="#A2915D"/>
</g>
<g id="Content_7">
<g id="Content_8">
<path id="Vector_28" d="M39.3154 22.5664V26.1346H34.0897V39.9528H30.3976V26.1346H25.1719V22.5664H39.3154Z" fill="#EE542D"/>
<path id="Vector_29" d="M56.9787 22.5664V26.0332H48.8393V29.5507H56.0239V33.0176H48.8393V36.4844H56.9787V39.9512H45.1211V22.5664H56.9787Z" fill="#EE542D"/>
<path id="Vector_30" d="M75.4418 27.165C74.2858 26.1854 72.9302 25.7325 71.3981 25.7325H71.3736C68.1328 25.7325 66.1479 28.1184 66.1479 31.2352V31.2597C66.1724 34.4256 68.1574 36.787 71.3736 36.787H71.3981C73.1068 36.787 74.3626 36.2589 75.4418 35.3545L77.4759 38.1427C75.9438 39.5491 73.8836 40.2539 71.3966 40.2539H71.372C65.7948 40.2539 62.4297 36.5352 62.4297 31.2597V31.2352C62.4297 25.9843 65.7963 22.2656 71.372 22.2656H71.3966C73.6825 22.2656 75.8425 22.8936 77.4759 24.3767L75.4418 27.165Z" fill="#EE542D"/>
<path id="Vector_31" d="M94.8305 29.4755V22.5664H98.5487V39.9528H94.8305V32.993H86.9428V39.9528H83.2246V22.5664H86.9428V29.4755H94.8305Z" fill="#EE542D"/>
</g>
</g>
</g>
<g id="Content_9">
<g id="Content_10">
<path id="Vector_32" d="M8.13341 45.8639L8.87183 44.5742H9.3723V46.9986H8.87183V45.4402L8.29 46.5118H7.97529L7.39807 45.4402V46.9986H6.89453V44.5742H7.395L8.13341 45.8639Z" fill="#EE542D"/>
<path id="Vector_33" d="M12.1617 44.5312C12.9355 44.5312 13.4083 45.0502 13.4083 45.781V45.7841C13.4083 46.5195 12.9355 47.0385 12.1617 47.0385H12.1587C11.3849 47.0385 10.9121 46.5195 10.9121 45.7841V45.781C10.9121 45.0487 11.3849 44.5312 12.1587 44.5312H12.1617ZM12.1617 46.5564C12.6131 46.5564 12.8894 46.237 12.8894 45.7856V45.7826C12.8894 45.3342 12.6131 45.0149 12.1617 45.0149H12.1587C11.7073 45.0149 11.4295 45.3342 11.4295 45.7826V45.7856C11.4295 46.237 11.7058 46.5564 12.1587 46.5564H12.1617Z" fill="#EE542D"/>
<path id="Vector_34" d="M16.5752 44.5742H17.0788V46.9986H16.6198L15.4469 45.4617V46.9986H14.9434V44.5742H15.4024L16.5752 46.1157V44.5742Z" fill="#EE542D"/>
<path id="Vector_35" d="M18.7559 46.9986V44.5742H19.2747V46.9986H18.7559Z" fill="#EE542D"/>
<path id="Vector_36" d="M22.7364 44.5742V45.0717H22.0072V46.9986H21.4929V45.0717H20.7637V44.5742H22.7364Z" fill="#EE542D"/>
<path id="Vector_37" d="M25.2731 44.5312C26.0468 44.5312 26.5196 45.0502 26.5196 45.781V45.7841C26.5196 46.5195 26.0468 47.0385 25.2731 47.0385H25.27C24.4963 47.0385 24.0234 46.5195 24.0234 45.7841V45.781C24.0234 45.0487 24.4963 44.5312 25.27 44.5312H25.2731ZM25.2731 46.5564C25.7244 46.5564 26.0007 46.237 26.0007 45.7856V45.7826C26.0007 45.3342 25.7244 45.0149 25.2731 45.0149H25.27C24.8187 45.0149 24.5408 45.3342 24.5408 45.7826V45.7856C24.5408 46.237 24.8171 46.5564 25.27 46.5564H25.2731Z" fill="#EE542D"/>
<path id="Vector_38" d="M29.4977 46.9986L29.008 46.214H28.5736V46.9986H28.0547V44.5742H29.0495C29.6697 44.5742 30.0166 44.8859 30.0166 45.4002V45.4033C30.0166 45.7749 29.8386 46.0297 29.5054 46.1464L30.0765 46.997H29.4977V46.9986ZM28.572 45.041V45.7703H29.0479C29.3243 45.7703 29.4962 45.6689 29.4962 45.4064V45.4033C29.4962 45.1469 29.3243 45.0425 29.0479 45.0425H28.572V45.041Z" fill="#EE542D"/>
<path id="Vector_39" d="M34.6074 45.6567L35.2445 44.5742H35.8126L34.8669 46.1188V46.9986H34.348V46.1188L33.4023 44.5742H33.9657L34.6074 45.6567Z" fill="#EE542D"/>
<path id="Vector_40" d="M38.2653 44.5312C39.039 44.5312 39.5118 45.0502 39.5118 45.781V45.7841C39.5118 46.5195 39.039 47.0385 38.2653 47.0385H38.2622C37.4885 47.0385 37.0156 46.5195 37.0156 45.7841V45.781C37.0156 45.0487 37.4885 44.5312 38.2622 44.5312H38.2653ZM38.2653 46.5564C38.7166 46.5564 38.9929 46.237 38.9929 45.7856V45.7826C38.9929 45.3342 38.7166 45.0149 38.2653 45.0149H38.2622C37.8108 45.0149 37.533 45.3342 37.533 45.7826V45.7856C37.533 46.237 37.8093 46.5564 38.2622 46.5564H38.2653Z" fill="#EE542D"/>
<path id="Vector_41" d="M42.6348 44.5742H43.1537V45.9023C43.1537 46.7007 42.6886 47.04 42.0745 47.04H42.0714C41.4589 47.04 40.9922 46.7007 40.9922 45.9023V44.5742H41.5111V45.9023C41.5111 46.3921 41.7843 46.5395 42.0714 46.5395H42.0745C42.3616 46.5395 42.6348 46.3921 42.6348 45.9023V44.5742Z" fill="#EE542D"/>
<path id="Vector_42" d="M46.5586 44.5742V45.0717H45.8294V46.9986H45.3151V45.0717H44.5859V44.5742H46.5586Z" fill="#EE542D"/>
<path id="Vector_43" d="M51.7955 45.2169C51.6343 45.0802 51.4454 45.0173 51.2321 45.0173H51.229C50.7776 45.0173 50.4998 45.3504 50.4998 45.7849V45.788C50.5028 46.2286 50.7807 46.5588 51.229 46.5588H51.2321C51.47 46.5588 51.645 46.485 51.7955 46.3592L52.0795 46.7476C51.8661 46.9441 51.579 47.0424 51.2321 47.0424H51.229C50.4522 47.0424 49.9824 46.5234 49.9824 45.788V45.7849C49.9824 45.0526 50.4522 44.5352 51.229 44.5352H51.2321C51.5514 44.5352 51.8523 44.6227 52.0795 44.8299L51.7955 45.2169Z" fill="#EE542D"/>
<path id="Vector_44" d="M55.0134 46.9986L54.5237 46.214H54.0892V46.9986H53.5703V44.5742H54.5651C55.1853 44.5742 55.5323 44.8859 55.5323 45.4002V45.4033C55.5323 45.7749 55.3542 46.0297 55.021 46.1464L55.5921 46.997H55.0134V46.9986ZM54.0892 45.041V45.7703H54.5651C54.8414 45.7703 55.0134 45.6689 55.0134 45.4064V45.4033C55.0134 45.1469 54.8414 45.0425 54.5651 45.0425H54.0892V45.041Z" fill="#EE542D"/>
<path id="Vector_45" d="M58.2145 44.5312C58.9882 44.5312 59.461 45.0502 59.461 45.781V45.7841C59.461 46.5195 58.9882 47.0385 58.2145 47.0385H58.2114C57.4377 47.0385 56.9648 46.5195 56.9648 45.7841V45.781C56.9648 45.0487 57.4377 44.5312 58.2114 44.5312H58.2145ZM58.2145 46.5564C58.6658 46.5564 58.9437 46.237 58.9437 45.7856V45.7826C58.9437 45.3342 58.6673 45.0149 58.2145 45.0149H58.2114C57.7601 45.0149 57.4837 45.3342 57.4837 45.7826V45.7856C57.4837 46.237 57.7601 46.5564 58.2114 46.5564H58.2145Z" fill="#EE542D"/>
<path id="Vector_46" d="M61.9464 44.5757C62.608 44.5757 62.958 44.8874 62.958 45.4647V45.4678C62.958 46.0451 62.608 46.3537 61.9464 46.3537H61.515V46.9985H60.9961V44.5742H61.9464V44.5757ZM62.4407 45.4663C62.4407 45.1899 62.2734 45.064 61.9464 45.064H61.515V45.8654H61.9464C62.2718 45.8654 62.4407 45.7503 62.4407 45.4693V45.4663Z" fill="#EE542D"/>
<path id="Vector_47" d="M65.9821 45.2474C65.8209 45.0724 65.6382 44.991 65.3726 44.991H65.3695C65.0886 44.991 64.9182 45.0785 64.9182 45.229C64.9182 45.3334 64.9811 45.4148 65.2467 45.4701L65.7165 45.5745C66.1924 45.6758 66.3183 46.0013 66.3183 46.3237C66.3183 46.7751 65.9191 47.0377 65.3619 47.0377H65.3588C64.8445 47.0377 64.4791 46.8595 64.2949 46.5126L64.7186 46.204C64.8768 46.488 65.0932 46.5786 65.3695 46.5786H65.3726C65.6459 46.5786 65.7932 46.4773 65.7932 46.3084C65.7932 46.164 65.6981 46.0765 65.4954 46.0274L64.9566 45.8938C64.5544 45.7956 64.3962 45.5437 64.3962 45.2459C64.3962 44.773 64.7985 44.5273 65.391 44.5273H65.3941C65.7764 44.5273 66.0834 44.6425 66.283 44.8605L65.9821 45.2474Z" fill="#EE542D"/>
<path id="Vector_48" d="M71.3552 46.9986L70.8655 46.214H70.431V46.9986H69.9121V44.5742H70.9069C71.5271 44.5742 71.8741 44.8859 71.8741 45.4002V45.4033C71.8741 45.7749 71.696 46.0297 71.3628 46.1464L71.9339 46.997H71.3552V46.9986ZM70.431 45.041V45.7703H70.9069C71.1832 45.7703 71.3552 45.6689 71.3552 45.4064V45.4033C71.3552 45.1469 71.1832 45.0425 70.9069 45.0425H70.431V45.041Z" fill="#EE542D"/>
<path id="Vector_49" d="M75.1026 44.5742V45.0579H73.9681V45.5476H74.969V46.0313H73.9681V46.5149H75.1026V46.9986H73.4492V44.5742H75.1026Z" fill="#EE542D"/>
<path id="Vector_50" d="M77.924 45.8639L78.6624 44.5742H79.1629V46.9986H78.6624V45.4402L78.0806 46.5118H77.7659L77.1887 45.4402V46.9986H76.6836V44.5742H77.1841L77.924 45.8639Z" fill="#EE542D"/>
<path id="Vector_51" d="M81.9508 44.5312C82.7245 44.5312 83.1973 45.0502 83.1973 45.781V45.7841C83.1973 46.5195 82.7245 47.0385 81.9508 47.0385H81.9477C81.174 47.0385 80.7012 46.5195 80.7012 45.7841V45.781C80.7012 45.0487 81.174 44.5312 81.9477 44.5312H81.9508ZM81.9508 46.5564C82.4021 46.5564 82.68 46.237 82.68 45.7856V45.7826C82.68 45.3342 82.4037 45.0149 81.9508 45.0149H81.9477C81.4964 45.0149 81.2201 45.3342 81.2201 45.7826V45.7856C81.2201 46.237 81.4964 46.5564 81.9477 46.5564H81.9508Z" fill="#EE542D"/>
<path id="Vector_52" d="M86.4751 44.5742V45.0717H85.7459V46.9986H85.2316V45.0717H84.5039V44.5742H86.4751Z" fill="#EE542D"/>
<path id="Vector_53" d="M89.6202 44.5742V45.0579H88.4857V45.5476H89.4866V46.0313H88.4857V46.5149H89.6202V46.9986H87.9668V44.5742H89.6202Z" fill="#EE542D"/>
<path id="Vector_54" d="M91.7259 44.5742V46.5011H92.9617V46.9986H91.207V44.5742H91.7259Z" fill="#EE542D"/>
<path id="Vector_55" d="M95.043 45.6567L95.6801 44.5742H96.2481L95.3024 46.1188V46.9986H94.7836V46.1188L93.8379 44.5742H94.4013L95.043 45.6567Z" fill="#EE542D"/>
</g>
</g>
</g>
<g id="Content_11" opacity="0.54">
<g id="Content_12">
<g id="Content_13">
<path id="Vector_56" d="M19.4607 10.5652C19.4362 10.599 19.4132 10.6328 19.3901 10.6665C19.3901 10.6727 19.3886 10.6788 19.3871 10.685L18.9756 10.2105V8.73506L18.3554 8.01805L18.3124 7.96739L18.2679 7.91672L18.1912 7.8292L18.0898 7.71252L18.1912 7.625L18.291 7.74015L18.3677 7.82767L18.4138 7.87987L18.4583 7.93054L19.1092 8.68439V10.1599L19.4607 10.5652Z" fill="#ECEFF1"/>
</g>
<g id="Content_14">
<path id="Vector_57" d="M18.2158 8.00531C18.4013 7.9608 18.5156 7.77432 18.4711 7.58879C18.4266 7.40327 18.2401 7.28896 18.0546 7.33347C17.8691 7.37798 17.7548 7.56446 17.7993 7.74998C17.8438 7.93551 18.0303 8.04982 18.2158 8.00531Z" fill="#455A64"/>
<path id="Vector_58" d="M18.136 8.07686C17.9088 8.07686 17.7246 7.89261 17.7246 7.66538C17.7246 7.43815 17.9088 7.25391 18.136 7.25391C18.3632 7.25391 18.5475 7.43815 18.5475 7.66538C18.5475 7.89261 18.3632 8.07686 18.136 8.07686ZM18.136 7.38748C17.9825 7.38748 17.8582 7.51184 17.8582 7.66538C17.8582 7.81892 17.9825 7.94328 18.136 7.94328C18.2896 7.94328 18.4139 7.81892 18.4139 7.66538C18.4139 7.51184 18.2896 7.38748 18.136 7.38748Z" fill="#ECEFF1"/>
</g>
<g id="Content_15">
<path id="Vector_59" d="M17.9727 7.66735C17.9727 7.75947 18.0479 7.83471 18.14 7.83471C18.2321 7.83471 18.3073 7.75947 18.3073 7.66735C18.3073 7.57523 18.2321 7.5 18.14 7.5C18.0479 7.5 17.9727 7.57523 17.9727 7.66735Z" fill="#ECEFF1"/>
</g>
</g>
<g id="Content_16">
<g id="Content_17">
<path id="Vector_60" d="M20.1954 8.07685C20.1862 8.13213 20.1755 8.18894 20.1647 8.24421L19.5967 7.58708V6.1116L18.9765 5.39459L18.9335 5.34392L18.889 5.29172L18.8123 5.2042L18.7109 5.08752L18.8123 5L18.912 5.11515L18.9888 5.20267L19.0349 5.25487L19.0794 5.30707L19.7303 6.06093V7.53641L20.1954 8.07685Z" fill="#ECEFF1"/>
</g>
<g id="Content_18">
<path id="Vector_61" d="M18.8428 5.38031C19.0283 5.3358 19.1426 5.14932 19.098 4.96379C19.0535 4.77827 18.8671 4.66396 18.6816 4.70847C18.4961 4.75298 18.3818 4.93946 18.4263 5.12498C18.4708 5.31051 18.6573 5.42482 18.8428 5.38031Z" fill="#455A64"/>
<path id="Vector_62" d="M18.763 5.45185C18.5358 5.45185 18.3516 5.26761 18.3516 5.04038C18.3516 4.81315 18.5358 4.62891 18.763 4.62891C18.9902 4.62891 19.1744 4.81315 19.1744 5.04038C19.1744 5.26761 18.9902 5.45185 18.763 5.45185ZM18.763 4.76248C18.6095 4.76248 18.4851 4.88684 18.4851 5.04038C18.4851 5.19392 18.6095 5.31828 18.763 5.31828C18.9165 5.31828 19.0409 5.19392 19.0409 5.04038C19.0409 4.88684 18.9165 4.76248 18.763 4.76248Z" fill="#ECEFF1"/>
</g>
<g id="Content_19">
<path id="Vector_63" d="M18.5996 5.04235C18.5996 5.13447 18.6748 5.20971 18.7669 5.20971C18.8591 5.20971 18.9343 5.13447 18.9343 5.04235C18.9343 4.95023 18.8591 4.875 18.7669 4.875C18.6748 4.875 18.5996 4.95023 18.5996 5.04235Z" fill="#ECEFF1"/>
</g>
</g>
<g id="Content_20">
<g id="Content_21">
<path id="Vector_64" d="M20.4687 5.52177C20.4671 5.58625 20.4641 5.65074 20.4595 5.71522L20.0772 5.27458V3.7991L19.4585 3.08209L19.414 3.03142L19.3695 2.97922L19.2927 2.8917L19.1914 2.77502L19.2927 2.6875L19.394 2.80419L19.4708 2.8917L19.5153 2.94237L19.5598 2.99457L20.2108 3.74843V5.22391L20.4687 5.52177Z" fill="#ECEFF1"/>
</g>
<g id="Content_22">
<path id="Vector_65" d="M19.3174 3.06781C19.5029 3.0233 19.6172 2.83682 19.5727 2.65129C19.5282 2.46577 19.3417 2.35146 19.1562 2.39597C18.9707 2.44048 18.8564 2.62696 18.9009 2.81248C18.9454 2.99801 19.1319 3.11232 19.3174 3.06781Z" fill="#455A64"/>
<path id="Vector_66" d="M19.2376 3.14327C19.0104 3.14327 18.8262 2.95902 18.8262 2.73179C18.8262 2.50456 19.0104 2.32031 19.2376 2.32031C19.4648 2.32031 19.649 2.50456 19.649 2.73179C19.6506 2.95749 19.4648 3.14327 19.2376 3.14327ZM19.2376 2.45236C19.0841 2.45236 18.9597 2.57672 18.9597 2.73025C18.9597 2.88379 19.0841 3.00815 19.2376 3.00815C19.3911 3.00815 19.5155 2.88379 19.5155 2.73025C19.517 2.57672 19.3911 2.45236 19.2376 2.45236Z" fill="#ECEFF1"/>
</g>
<g id="Content_23">
<path id="Vector_67" d="M19.0742 2.72595C19.0742 2.81807 19.1494 2.8933 19.2416 2.8933C19.3337 2.8933 19.4089 2.81807 19.4089 2.72595C19.4089 2.63383 19.3337 2.55859 19.2416 2.55859C19.1494 2.55859 19.0742 2.63383 19.0742 2.72595Z" fill="#ECEFF1"/>
</g>
</g>
<g id="Content_24">
<g id="Content_25">
<path id="Vector_68" d="M18.7583 11.9933C18.7353 12.0348 18.7123 12.0747 18.6862 12.1146L17.894 11.198V9.72251L17.2754 9.0055L17.2308 8.95329L17.1863 8.90109L17.1096 8.81358L17.0098 8.69689L17.1111 8.60938L17.2124 8.72606L17.2876 8.81358L17.3337 8.86578L17.3782 8.91645L18.0291 9.6703V11.1458L18.7583 11.9933Z" fill="#ECEFF1"/>
</g>
<g id="Content_26">
<path id="Vector_69" d="M17.1416 8.99359C17.3271 8.94908 17.4414 8.7626 17.3969 8.57707C17.3524 8.39155 17.1659 8.27724 16.9804 8.32175C16.7949 8.36626 16.6806 8.55274 16.7251 8.73826C16.7696 8.92379 16.9561 9.0381 17.1416 8.99359Z" fill="#455A64"/>
<path id="Vector_70" d="M17.0618 9.06514C16.8346 9.06514 16.6504 8.88089 16.6504 8.65366C16.6504 8.42643 16.8346 8.24219 17.0618 8.24219C17.289 8.24219 17.4732 8.42643 17.4732 8.65366C17.4732 8.88089 17.289 9.06514 17.0618 9.06514ZM17.0618 8.37576C16.9083 8.37576 16.784 8.50013 16.784 8.65366C16.784 8.8072 16.9083 8.93156 17.0618 8.93156C17.2153 8.93156 17.3397 8.8072 17.3397 8.65366C17.3412 8.50013 17.2153 8.37576 17.0618 8.37576Z" fill="#ECEFF1"/>
</g>
<g id="Content_27">
<path id="Vector_71" d="M16.8984 8.65563C16.8984 8.74776 16.9737 8.82299 17.0658 8.82299C17.1579 8.82299 17.2331 8.74776 17.2331 8.65563C17.2331 8.56351 17.1579 8.48828 17.0658 8.48828C16.9737 8.48828 16.8984 8.56351 16.8984 8.65563Z" fill="#ECEFF1"/>
</g>
</g>
<g id="Content_28">
<g id="Content_29">
<path id="Vector_72" d="M17.85 13.1589C17.8209 13.1926 17.7917 13.2279 17.761 13.2617L16.8276 12.1808V10.7054L16.2074 9.98834L16.1629 9.93768L16.1184 9.88547L16.0431 9.79795L15.9434 9.68127L16.0447 9.59375L16.1445 9.7089L16.2212 9.79795L16.2657 9.85016L16.3103 9.90236L16.9627 10.6562V12.1317L17.85 13.1589Z" fill="#ECEFF1"/>
</g>
<g id="Content_30">
<path id="Vector_73" d="M16.0752 9.97797C16.2607 9.93345 16.375 9.74697 16.3305 9.56145C16.286 9.37593 16.0995 9.26161 15.914 9.30612C15.7285 9.35064 15.6142 9.53712 15.6587 9.72264C15.7032 9.90816 15.8897 10.0225 16.0752 9.97797Z" fill="#455A64"/>
<path id="Vector_74" d="M15.9954 10.0495C15.7682 10.0495 15.584 9.86527 15.584 9.63804C15.584 9.4108 15.7682 9.22656 15.9954 9.22656C16.2226 9.22656 16.4068 9.4108 16.4068 9.63804C16.4068 9.86527 16.2226 10.0495 15.9954 10.0495ZM15.9954 9.36014C15.8419 9.36014 15.7175 9.4845 15.7175 9.63804C15.7175 9.79157 15.8419 9.91594 15.9954 9.91594C16.1489 9.91594 16.2733 9.79157 16.2733 9.63804C16.2733 9.4845 16.1489 9.36014 15.9954 9.36014Z" fill="#ECEFF1"/>
</g>
<g id="Content_31">
<path id="Vector_75" d="M15.8301 9.64001C15.8301 9.73214 15.9053 9.80736 15.9974 9.80736C16.0895 9.80736 16.1647 9.73214 16.1647 9.64001C16.1647 9.54789 16.0895 9.47266 15.9974 9.47266C15.9053 9.47266 15.8301 9.54789 15.8301 9.64001Z" fill="#ECEFF1"/>
</g>
</g>
<g id="Content_32">
<g id="Content_33">
<path id="Vector_76" d="M16.8235 14.1815C16.7898 14.2106 16.756 14.2398 16.7222 14.2675L15.7627 13.1574V11.6819L15.1441 10.9649L15.0996 10.9127L15.055 10.862L14.9783 10.7745L14.877 10.6578L14.9783 10.5703L15.0796 10.687L15.1564 10.7745L15.2454 10.8774L15.8963 11.6312V13.1067L16.8235 14.1815Z" fill="#ECEFF1"/>
</g>
<g id="Content_34">
<path id="Vector_77" d="M15.0088 10.9506C15.1943 10.9061 15.3086 10.7196 15.2641 10.5341C15.2196 10.3486 15.0331 10.2343 14.8476 10.2788C14.6621 10.3233 14.5478 10.5098 14.5923 10.6953C14.6368 10.8808 14.8233 10.9951 15.0088 10.9506Z" fill="#455A64"/>
<path id="Vector_78" d="M14.929 11.0222C14.7018 11.0222 14.5176 10.8379 14.5176 10.6107C14.5176 10.3835 14.7018 10.1992 14.929 10.1992C15.1562 10.1992 15.3404 10.3835 15.3404 10.6107C15.3404 10.8364 15.1562 11.0222 14.929 11.0222ZM14.929 10.3313C14.7755 10.3313 14.6511 10.4556 14.6511 10.6092C14.6511 10.7627 14.7755 10.8871 14.929 10.8871C15.0825 10.8871 15.2069 10.7627 15.2069 10.6092C15.2069 10.4572 15.0825 10.3313 14.929 10.3313Z" fill="#ECEFF1"/>
</g>
<g id="Content_35">
<path id="Vector_79" d="M14.7578 10.6166C14.7578 10.7087 14.833 10.7839 14.9251 10.7839C15.0173 10.7839 15.0925 10.7087 15.0925 10.6166C15.0925 10.5244 15.0173 10.4492 14.9251 10.4492C14.833 10.4492 14.7578 10.5229 14.7578 10.6166Z" fill="#ECEFF1"/>
</g>
</g>
<g id="Content_36">
<g id="Content_37">
<path id="Vector_80" d="M15.6283 15.0331C15.5838 15.0592 15.5439 15.0807 15.5086 15.0991L14.6842 14.1457V12.6702L14.064 11.9532L14.0195 11.9025L13.975 11.8503L13.8982 11.7628L13.7969 11.6461L13.8982 11.5586L13.998 11.6737L14.0747 11.7613L14.1193 11.8135L14.1638 11.8657L14.8147 12.6195V14.095L15.6283 15.0331Z" fill="#ECEFF1"/>
</g>
<g id="Content_38">
<path id="Vector_81" d="M13.9287 11.935C14.1142 11.8905 14.2285 11.704 14.184 11.5185C14.1395 11.333 13.953 11.2186 13.7675 11.2632C13.582 11.3077 13.4677 11.4941 13.5122 11.6797C13.5567 11.8652 13.7432 11.9795 13.9287 11.935Z" fill="#455A64"/>
<path id="Vector_82" d="M13.8489 12.0065C13.6217 12.0065 13.4375 11.8223 13.4375 11.5951C13.4375 11.3678 13.6217 11.1836 13.8489 11.1836C14.0761 11.1836 14.2603 11.3678 14.2603 11.5951C14.2603 11.8223 14.0761 12.0065 13.8489 12.0065ZM13.8489 11.3156C13.6954 11.3156 13.5711 11.44 13.5711 11.5935C13.5711 11.7471 13.6954 11.8714 13.8489 11.8714C14.0024 11.8714 14.1268 11.7471 14.1268 11.5935C14.1268 11.4415 14.0024 11.3156 13.8489 11.3156Z" fill="#ECEFF1"/>
</g>
<g id="Content_39">
<path id="Vector_83" d="M13.6855 11.601C13.6855 11.6931 13.7608 11.7683 13.8529 11.7683C13.945 11.7683 14.0202 11.6931 14.0202 11.601C14.0202 11.5088 13.945 11.4336 13.8529 11.4336C13.7608 11.4336 13.6855 11.5073 13.6855 11.601Z" fill="#ECEFF1"/>
</g>
</g>
</g>
</g>
<defs>
<linearGradient id="paint0_linear_144_14644" x1="17.0835" y1="5.20301" x2="17.1324" y2="5.20301" gradientUnits="userSpaceOnUse">
<stop offset="0.4335" stop-color="#A39262"/>
<stop offset="1" stop-color="#D7492C"/>
</linearGradient>
<linearGradient id="paint1_linear_144_14644" x1="17.0784" y1="5.21276" x2="17.0837" y2="5.21276" gradientUnits="userSpaceOnUse">
<stop offset="0.4335" stop-color="#A39262"/>
<stop offset="1" stop-color="#D7492C"/>
</linearGradient>
<linearGradient id="paint2_linear_144_14644" x1="3.51618" y1="19.2623" x2="3.51924" y2="19.2623" gradientUnits="userSpaceOnUse">
<stop offset="0.4335" stop-color="#A39262"/>
<stop offset="1" stop-color="#D7492C"/>
</linearGradient>
<linearGradient id="paint3_linear_144_14644" x1="8.42192" y1="20.8748" x2="8.53448" y2="20.8748" gradientUnits="userSpaceOnUse">
<stop offset="0.4335" stop-color="#A39262"/>
<stop offset="1" stop-color="#D7492C"/>
</linearGradient>
<linearGradient id="paint4_linear_144_14644" x1="10.2653" y1="15.6494" x2="10.3408" y2="15.6494" gradientUnits="userSpaceOnUse">
<stop offset="0.4335" stop-color="#A39262"/>
<stop offset="1" stop-color="#D7492C"/>
</linearGradient>
<linearGradient id="paint5_linear_144_14644" x1="16.8546" y1="15.6346" x2="17.1034" y2="15.6346" gradientUnits="userSpaceOnUse">
<stop offset="0.4335" stop-color="#A39262"/>
<stop offset="1" stop-color="#D7492C"/>
</linearGradient>
<linearGradient id="paint6_linear_144_14644" x1="17.091" y1="5.20147" x2="17.133" y2="5.20147" gradientUnits="userSpaceOnUse">
<stop offset="0.4335" stop-color="#A39262"/>
<stop offset="1" stop-color="#D7492C"/>
</linearGradient>
<linearGradient id="paint7_linear_144_14644" x1="17.1267" y1="5.13986" x2="17.2022" y2="5.13986" gradientUnits="userSpaceOnUse">
<stop offset="0.4335" stop-color="#A39262"/>
<stop offset="1" stop-color="#D7492C"/>
</linearGradient>
<linearGradient id="paint8_linear_144_14644" x1="3.51618" y1="19.2623" x2="3.51924" y2="19.2623" gradientUnits="userSpaceOnUse">
<stop offset="0.4335" stop-color="#A39262"/>
<stop offset="1" stop-color="#D7492C"/>
</linearGradient>
<linearGradient id="paint9_linear_144_14644" x1="3.62594" y1="19.7552" x2="4.26201" y2="19.7552" gradientUnits="userSpaceOnUse">
<stop offset="0.4335" stop-color="#A39262"/>
<stop offset="1" stop-color="#D7492C"/>
</linearGradient>
<linearGradient id="paint10_linear_144_14644" x1="2.81333" y1="18.8942" x2="3.43264" y2="18.8942" gradientUnits="userSpaceOnUse">
<stop offset="0.4335" stop-color="#A39262"/>
<stop offset="1" stop-color="#D7492C"/>
</linearGradient>
<linearGradient id="paint11_linear_144_14644" x1="3.51618" y1="19.2623" x2="3.51924" y2="19.2623" gradientUnits="userSpaceOnUse">
<stop offset="0.4335" stop-color="#A39262"/>
<stop offset="1" stop-color="#D7492C"/>
</linearGradient>
<linearGradient id="paint12_linear_144_14644" x1="17.0977" y1="15.5681" x2="17.5702" y2="15.5681" gradientUnits="userSpaceOnUse">
<stop offset="0.4335" stop-color="#A39262"/>
<stop offset="1" stop-color="#D7492C"/>
</linearGradient>
<linearGradient id="paint13_linear_144_14644" x1="14.002" y1="14.6171" x2="14.23" y2="14.6171" gradientUnits="userSpaceOnUse">
<stop offset="0.4335" stop-color="#A39262"/>
<stop offset="1" stop-color="#D7492C"/>
</linearGradient>
<linearGradient id="paint14_linear_144_14644" x1="3.43115" y1="20.8496" x2="8.47217" y2="20.8496" gradientUnits="userSpaceOnUse">
<stop offset="0.4335" stop-color="#A39262"/>
<stop offset="1" stop-color="#D7492C"/>
</linearGradient>
<linearGradient id="paint15_linear_144_14644" x1="0.249116" y1="24.1226" x2="13.8026" y2="24.1226" gradientUnits="userSpaceOnUse">
<stop offset="0.4335" stop-color="#A39262"/>
<stop offset="1" stop-color="#EE542D"/>
</linearGradient>
<linearGradient id="paint16_linear_144_14644" x1="1.44916" y1="22.6462" x2="20.0084" y2="22.6462" gradientUnits="userSpaceOnUse">
<stop offset="0.4335" stop-color="#A39262"/>
<stop offset="1" stop-color="#EE542D"/>
</linearGradient>
<linearGradient id="paint17_linear_144_14644" x1="9.61114" y1="33.3287" x2="9.83061" y2="33.3287" gradientUnits="userSpaceOnUse">
<stop offset="0.4335" stop-color="#A39262"/>
<stop offset="1" stop-color="#D7492C"/>
</linearGradient>
<linearGradient id="paint18_linear_144_14644" x1="10.3351" y1="9.17323" x2="20.4841" y2="9.17323" gradientUnits="userSpaceOnUse">
<stop offset="0.4335" stop-color="#A39262"/>
<stop offset="1" stop-color="#EE542D"/>
</linearGradient>
<linearGradient id="paint19_linear_144_14644" x1="12.9699" y1="8.908" x2="13.3263" y2="8.908" gradientUnits="userSpaceOnUse">
<stop offset="0.4335" stop-color="#A39262"/>
<stop offset="1" stop-color="#D7492C"/>
</linearGradient>
<linearGradient id="paint20_linear_144_14644" x1="17.0916" y1="5.19937" x2="17.1349" y2="5.19937" gradientUnits="userSpaceOnUse">
<stop offset="0.4335" stop-color="#A39262"/>
<stop offset="1" stop-color="#D7492C"/>
</linearGradient>
</defs>
</svg>
