<svg width="75" height="75" viewBox="0 0 75 75" fill="none" xmlns="http://www.w3.org/2000/svg">
<g filter="url(#filter0_d_144_19235)">
<rect x="8.91406" y="4.35156" width="58" height="58" rx="16" fill="white" fill-opacity="0.01" shape-rendering="crispEdges"/>
</g>
<rect x="8.91406" y="4.35156" width="58" height="58" rx="16" fill="url(#paint0_linear_144_19235)"/>
<g clip-path="url(#clip0_144_19235)">
<g filter="url(#filter1_d_144_19235)">
<path d="M47.1124 21.4304C46.9857 21.4304 46.859 21.3987 46.7482 21.3354C43.7082 19.7679 41.0799 19.1029 37.929 19.1029C34.794 19.1029 31.8174 19.847 29.1099 21.3354C28.7299 21.5412 28.2549 21.3987 28.0332 21.0187C27.8274 20.6387 27.9699 20.1479 28.3499 19.942C31.2949 18.3429 34.5249 17.5195 37.929 17.5195C41.3015 17.5195 44.2465 18.2637 47.4765 19.9262C47.8724 20.132 48.0149 20.607 47.809 20.987C47.6665 21.272 47.3974 21.4304 47.1124 21.4304ZM24.4549 29.7429C24.2965 29.7429 24.1382 29.6954 23.9957 29.6004C23.6315 29.347 23.5524 28.8562 23.8057 28.492C25.3732 26.2754 27.3682 24.5337 29.7432 23.3145C34.7149 20.7495 41.0799 20.7337 46.0674 23.2987C48.4424 24.5179 50.4374 26.2437 52.0049 28.4445C52.2582 28.7929 52.179 29.2995 51.8149 29.5529C51.4507 29.8062 50.9599 29.727 50.7065 29.3629C49.2815 27.3679 47.4765 25.8004 45.339 24.7079C40.7949 22.3804 34.984 22.3804 30.4557 24.7237C28.3024 25.832 26.4974 27.4154 25.0724 29.4104C24.9457 29.632 24.7082 29.7429 24.4549 29.7429ZM34.3507 48.8537C34.1449 48.8537 33.939 48.7745 33.7965 48.6162C32.419 47.2387 31.6749 46.352 30.614 44.4362C29.5215 42.4887 28.9515 40.1137 28.9515 37.5645C28.9515 32.862 32.9732 29.0304 37.9132 29.0304C42.8532 29.0304 46.8749 32.862 46.8749 37.5645C46.8749 38.0079 46.5265 38.3562 46.0832 38.3562C45.6399 38.3562 45.2915 38.0079 45.2915 37.5645C45.2915 33.7329 41.9824 30.6137 37.9132 30.6137C33.844 30.6137 30.5349 33.7329 30.5349 37.5645C30.5349 39.8445 31.0415 41.9504 32.0074 43.6604C33.0207 45.4812 33.7174 46.257 34.9365 47.492C35.2374 47.8087 35.2374 48.2995 34.9365 48.6162C34.7624 48.7745 34.5565 48.8537 34.3507 48.8537ZM45.7032 45.9245C43.819 45.9245 42.1565 45.4495 40.7949 44.5154C38.4357 42.9162 37.0265 40.3195 37.0265 37.5645C37.0265 37.1212 37.3749 36.7729 37.8182 36.7729C38.2615 36.7729 38.6099 37.1212 38.6099 37.5645C38.6099 39.797 39.7499 41.9029 41.6815 43.2012C42.8057 43.9612 44.1199 44.3254 45.7032 44.3254C46.0832 44.3254 46.7165 44.2779 47.3499 44.167C47.7774 44.0879 48.189 44.3729 48.2682 44.8162C48.3474 45.2437 48.0624 45.6554 47.619 45.7345C46.7165 45.9087 45.9249 45.9245 45.7032 45.9245ZM42.5207 49.1862C42.4574 49.1862 42.3782 49.1704 42.3149 49.1545C39.7974 48.4579 38.1507 47.5237 36.4249 45.8295C34.2082 43.6287 32.989 40.6995 32.989 37.5645C32.989 34.9995 35.174 32.9095 37.8657 32.9095C40.5574 32.9095 42.7424 34.9995 42.7424 37.5645C42.7424 39.2587 44.2149 40.6362 46.0357 40.6362C47.8565 40.6362 49.329 39.2587 49.329 37.5645C49.329 31.5954 44.1832 26.7504 37.8499 26.7504C33.3532 26.7504 29.2365 29.252 27.384 33.1312C26.7665 34.4137 26.4499 35.9179 26.4499 37.5645C26.4499 38.7995 26.5607 40.747 27.5107 43.2804C27.669 43.692 27.4632 44.1512 27.0515 44.2937C26.6399 44.452 26.1807 44.2304 26.0382 43.8345C25.2624 41.7604 24.8824 39.702 24.8824 37.5645C24.8824 35.6645 25.2465 33.9387 25.959 32.4345C28.0649 28.017 32.7357 25.1512 37.8499 25.1512C45.054 25.1512 50.9124 30.7087 50.9124 37.5487C50.9124 40.1137 48.7274 42.2037 46.0357 42.2037C43.344 42.2037 41.159 40.1137 41.159 37.5487C41.159 35.8545 39.6865 34.477 37.8657 34.477C36.0449 34.477 34.5724 35.8545 34.5724 37.5487C34.5724 40.2562 35.6174 42.7895 37.5332 44.6895C39.0374 46.1779 40.4782 47.0012 42.7107 47.6187C43.1382 47.7295 43.3757 48.1729 43.2649 48.5845C43.1857 48.9487 42.8532 49.1862 42.5207 49.1862Z" fill="#EE542D"/>
</g>
</g>
<defs>
<filter id="filter0_d_144_19235" x="0.914062" y="0.351562" width="74" height="74" filterUnits="userSpaceOnUse" color-interpolation-filters="sRGB">
<feFlood flood-opacity="0" result="BackgroundImageFix"/>
<feColorMatrix in="SourceAlpha" type="matrix" values="0 0 0 0 0 0 0 0 0 0 0 0 0 0 0 0 0 0 127 0" result="hardAlpha"/>
<feOffset dy="4"/>
<feGaussianBlur stdDeviation="4"/>
<feComposite in2="hardAlpha" operator="out"/>
<feColorMatrix type="matrix" values="0 0 0 0 1 0 0 0 0 0.74902 0 0 0 0 0.419608 0 0 0 0.12 0"/>
<feBlend mode="normal" in2="BackgroundImageFix" result="effect1_dropShadow_144_19235"/>
<feBlend mode="normal" in="SourceGraphic" in2="effect1_dropShadow_144_19235" result="shape"/>
</filter>
<filter id="filter1_d_144_19235" x="21.6582" y="13.5195" width="36.4941" height="39.668" filterUnits="userSpaceOnUse" color-interpolation-filters="sRGB">
<feFlood flood-opacity="0" result="BackgroundImageFix"/>
<feColorMatrix in="SourceAlpha" type="matrix" values="0 0 0 0 0 0 0 0 0 0 0 0 0 0 0 0 0 0 127 0" result="hardAlpha"/>
<feOffset dx="2"/>
<feGaussianBlur stdDeviation="2"/>
<feComposite in2="hardAlpha" operator="out"/>
<feColorMatrix type="matrix" values="0 0 0 0 1 0 0 0 0 1 0 0 0 0 1 0 0 0 1 0"/>
<feBlend mode="normal" in2="BackgroundImageFix" result="effect1_dropShadow_144_19235"/>
<feBlend mode="normal" in="SourceGraphic" in2="effect1_dropShadow_144_19235" result="shape"/>
</filter>
<linearGradient id="paint0_linear_144_19235" x1="37.9141" y1="4.35156" x2="37.9141" y2="62.3516" gradientUnits="userSpaceOnUse">
<stop stop-color="#FFECE7"/>
<stop offset="1" stop-color="#FFC7B8"/>
</linearGradient>
<clipPath id="clip0_144_19235">
<rect width="38" height="38" fill="white" transform="translate(18.9141 14.3516)"/>
</clipPath>
</defs>
</svg>
