<svg width="75" height="75" viewBox="0 0 75 75" fill="none" xmlns="http://www.w3.org/2000/svg">
<g filter="url(#filter0_d_144_19275)">
<rect x="8.91406" y="4.35156" width="58" height="58" rx="16" fill="white" fill-opacity="0.01" shape-rendering="crispEdges"/>
</g>
<rect x="8.91406" y="4.35156" width="58" height="58" rx="16" fill="url(#paint0_linear_144_19275)"/>
<g clip-path="url(#clip0_144_19275)">
<g filter="url(#filter1_d_144_19275)">
<path d="M52.1047 32.1641C51.8221 28.8101 50.3613 25.6644 47.9813 23.2843C45.6012 20.9043 42.4556 19.4436 39.1016 19.1609V14.3516H36.7266V19.1609C33.3726 19.4436 30.2269 20.9043 27.8468 23.2843C25.4668 25.6644 24.0061 28.8101 23.7234 32.1641H18.9141V34.5391H23.7234C24.0061 37.8931 25.4668 41.0387 27.8468 43.4188C30.2269 45.7988 33.3726 47.2596 36.7266 47.5422V52.3516H39.1016V47.5422C42.4556 47.2596 45.6012 45.7988 47.9813 43.4188C50.3613 41.0387 51.8221 37.8931 52.1047 34.5391H56.9141V32.1641H52.1047ZM49.7297 34.5391C49.4558 37.2646 48.248 39.8116 46.3111 41.7486C44.3741 43.6855 41.8271 44.8933 39.1016 45.1672V40.4766H36.7266V45.1672C34.001 44.8933 31.454 43.6855 29.517 41.7486C27.5801 39.8116 26.3723 37.2646 26.0984 34.5391H30.7891V32.1641H26.0984C26.3723 29.4385 27.5801 26.8915 29.517 24.9545C31.454 23.0176 34.001 21.8098 36.7266 21.5359V26.2266H39.1016V21.5359C41.8271 21.8098 44.3741 23.0176 46.3111 24.9545C48.248 26.8915 49.4558 29.4385 49.7297 32.1641H45.0391V34.5391H49.7297Z" fill="#EE542D"/>
</g>
<path d="M37.9141 35.7266C39.2257 35.7266 40.2891 34.6632 40.2891 33.3516C40.2891 32.0399 39.2257 30.9766 37.9141 30.9766C36.6024 30.9766 35.5391 32.0399 35.5391 33.3516C35.5391 34.6632 36.6024 35.7266 37.9141 35.7266Z" fill="#EE542D"/>
</g>
<defs>
<filter id="filter0_d_144_19275" x="0.914062" y="0.351562" width="74" height="74" filterUnits="userSpaceOnUse" color-interpolation-filters="sRGB">
<feFlood flood-opacity="0" result="BackgroundImageFix"/>
<feColorMatrix in="SourceAlpha" type="matrix" values="0 0 0 0 0 0 0 0 0 0 0 0 0 0 0 0 0 0 127 0" result="hardAlpha"/>
<feOffset dy="4"/>
<feGaussianBlur stdDeviation="4"/>
<feComposite in2="hardAlpha" operator="out"/>
<feColorMatrix type="matrix" values="0 0 0 0 1 0 0 0 0 0.74902 0 0 0 0 0.419608 0 0 0 0.12 0"/>
<feBlend mode="normal" in2="BackgroundImageFix" result="effect1_dropShadow_144_19275"/>
<feBlend mode="normal" in="SourceGraphic" in2="effect1_dropShadow_144_19275" result="shape"/>
</filter>
<filter id="filter1_d_144_19275" x="16.9141" y="10.3516" width="46" height="46" filterUnits="userSpaceOnUse" color-interpolation-filters="sRGB">
<feFlood flood-opacity="0" result="BackgroundImageFix"/>
<feColorMatrix in="SourceAlpha" type="matrix" values="0 0 0 0 0 0 0 0 0 0 0 0 0 0 0 0 0 0 127 0" result="hardAlpha"/>
<feOffset dx="2"/>
<feGaussianBlur stdDeviation="2"/>
<feComposite in2="hardAlpha" operator="out"/>
<feColorMatrix type="matrix" values="0 0 0 0 1 0 0 0 0 1 0 0 0 0 1 0 0 0 1 0"/>
<feBlend mode="normal" in2="BackgroundImageFix" result="effect1_dropShadow_144_19275"/>
<feBlend mode="normal" in="SourceGraphic" in2="effect1_dropShadow_144_19275" result="shape"/>
</filter>
<linearGradient id="paint0_linear_144_19275" x1="37.9141" y1="4.35156" x2="37.9141" y2="62.3516" gradientUnits="userSpaceOnUse">
<stop stop-color="#FFECE7"/>
<stop offset="1" stop-color="#FFC7B8"/>
</linearGradient>
<clipPath id="clip0_144_19275">
<rect width="38" height="38" fill="white" transform="translate(18.9141 14.3516)"/>
</clipPath>
</defs>
</svg>
