<svg width="23" height="23" viewBox="0 0 23 23" fill="none" xmlns="http://www.w3.org/2000/svg">
<g clip-path="url(#clip0_144_21472)">
<path d="M13.7776 7.0763C13.8724 7.96286 14.5855 8.67592 15.4716 8.77469C16.1298 8.84805 16.8056 8.91106 17.4945 8.91106C18.1836 8.91106 18.8593 8.84805 19.5176 8.77469C20.4036 8.67592 21.1168 7.96286 21.2116 7.0763C21.2816 6.42184 21.3408 5.74992 21.3408 5.06491C21.3408 4.37989 21.2816 3.70797 21.2116 3.0535C21.1168 2.16694 20.4036 1.4539 19.5176 1.35512C18.8593 1.28176 18.1836 1.21875 17.4945 1.21875C16.8056 1.21875 16.1298 1.28176 15.4716 1.35512C14.5855 1.4539 13.8724 2.16694 13.7776 3.0535C13.7076 3.70797 13.6484 4.37989 13.6484 5.06491C13.6484 5.74992 13.7076 6.42184 13.7776 7.0763Z" fill="url(#paint0_linear_144_21472)" stroke="url(#paint1_linear_144_21472)"/>
<path d="M1.46899 7.0763C1.56384 7.96286 2.2769 8.67592 3.16301 8.77469C3.8212 8.84805 4.49699 8.91106 5.186 8.91106C5.87501 8.91106 6.5508 8.84805 7.20898 8.77469C8.0951 8.67592 8.80814 7.96286 8.90301 7.0763C8.97302 6.42184 9.03214 5.74992 9.03214 5.06491C9.03214 4.37989 8.97302 3.70797 8.90301 3.0535C8.80814 2.16694 8.0951 1.4539 7.20898 1.35512C6.5508 1.28176 5.87501 1.21875 5.186 1.21875C4.49699 1.21875 3.8212 1.28176 3.16301 1.35512C2.2769 1.4539 1.56384 2.16694 1.46899 3.0535C1.39897 3.70797 1.33984 4.37989 1.33984 5.06491C1.33984 5.74992 1.39897 6.42184 1.46899 7.0763Z" fill="url(#paint2_linear_144_21472)" stroke="url(#paint3_linear_144_21472)"/>
<path d="M1.46899 19.3849C1.56384 20.2714 2.2769 20.9844 3.16301 21.0833C3.8212 21.1566 4.49699 21.2196 5.186 21.2196C5.87501 21.2196 6.5508 21.1566 7.20898 21.0833C8.0951 20.9844 8.80814 20.2714 8.90301 19.3849C8.97302 18.7305 9.03214 18.0585 9.03214 17.3735C9.03214 16.6884 8.97302 16.0165 8.90301 15.3621C8.80814 14.4755 8.0951 13.7625 7.20898 13.6637C6.5508 13.5903 5.87501 13.5273 5.186 13.5273C4.49699 13.5273 3.8212 13.5903 3.16301 13.6637C2.2769 13.7625 1.56384 14.4755 1.46899 15.3621C1.39897 16.0165 1.33984 16.6884 1.33984 17.3735C1.33984 18.0585 1.39897 18.7305 1.46899 19.3849Z" fill="url(#paint4_linear_144_21472)" stroke="url(#paint5_linear_144_21472)"/>
<path d="M13.7776 19.3849C13.8724 20.2714 14.5855 20.9844 15.4716 21.0833C16.1298 21.1566 16.8056 21.2196 17.4945 21.2196C18.1836 21.2196 18.8593 21.1566 19.5176 21.0833C20.4036 20.9844 21.1168 20.2714 21.2116 19.3849C21.2816 18.7305 21.3408 18.0585 21.3408 17.3735C21.3408 16.6884 21.2816 16.0165 21.2116 15.3621C21.1168 14.4755 20.4036 13.7625 19.5176 13.6637C18.8593 13.5903 18.1836 13.5273 17.4945 13.5273C16.8056 13.5273 16.1298 13.5903 15.4716 13.6637C14.5855 13.7625 13.8724 14.4755 13.7776 15.3621C13.7076 16.0165 13.6484 16.6884 13.6484 17.3735C13.6484 18.0585 13.7076 18.7305 13.7776 19.3849Z" fill="url(#paint6_linear_144_21472)" stroke="url(#paint7_linear_144_21472)"/>
</g>
<defs>
<linearGradient id="paint0_linear_144_21472" x1="17.4946" y1="1.21875" x2="17.4946" y2="8.91105" gradientUnits="userSpaceOnUse">
<stop stop-color="#FFE59E"/>
<stop offset="1" stop-color="#FFCB3D"/>
</linearGradient>
<linearGradient id="paint1_linear_144_21472" x1="17.4946" y1="1.21875" x2="17.4946" y2="8.91105" gradientUnits="userSpaceOnUse">
<stop stop-color="#FFCB3D"/>
<stop offset="1" stop-color="#FFBE0C"/>
</linearGradient>
<linearGradient id="paint2_linear_144_21472" x1="5.18599" y1="1.21875" x2="5.18599" y2="8.91105" gradientUnits="userSpaceOnUse">
<stop stop-color="#FFE59E"/>
<stop offset="1" stop-color="#FFCB3D"/>
</linearGradient>
<linearGradient id="paint3_linear_144_21472" x1="5.18599" y1="1.21875" x2="5.18599" y2="8.91105" gradientUnits="userSpaceOnUse">
<stop stop-color="#FFCB3D"/>
<stop offset="1" stop-color="#FFBE0C"/>
</linearGradient>
<linearGradient id="paint4_linear_144_21472" x1="5.18599" y1="13.5273" x2="5.18599" y2="21.2196" gradientUnits="userSpaceOnUse">
<stop stop-color="#FFE59E"/>
<stop offset="1" stop-color="#FFCB3D"/>
</linearGradient>
<linearGradient id="paint5_linear_144_21472" x1="5.18599" y1="13.5273" x2="5.18599" y2="21.2196" gradientUnits="userSpaceOnUse">
<stop stop-color="#FFCB3D"/>
<stop offset="1" stop-color="#FFBE0C"/>
</linearGradient>
<linearGradient id="paint6_linear_144_21472" x1="17.4946" y1="13.5273" x2="17.4946" y2="21.2196" gradientUnits="userSpaceOnUse">
<stop stop-color="#FFE59E"/>
<stop offset="1" stop-color="#FFCB3D"/>
</linearGradient>
<linearGradient id="paint7_linear_144_21472" x1="17.4946" y1="13.5273" x2="17.4946" y2="21.2196" gradientUnits="userSpaceOnUse">
<stop stop-color="#FFCB3D"/>
<stop offset="1" stop-color="#FFBE0C"/>
</linearGradient>
<clipPath id="clip0_144_21472">
<rect width="22" height="22" fill="white" transform="translate(0.339844 0.21875)"/>
</clipPath>
</defs>
</svg>
