<svg width="18" height="19" viewBox="0 0 18 19" fill="none" xmlns="http://www.w3.org/2000/svg">
<path d="M4.00193 2.03584C3.8282 2.07057 3.66316 2.11397 3.5068 2.16606C3.35044 2.21815 3.20277 2.27892 3.06379 2.34838L3.08116 2.33101C2.75686 2.49307 2.44994 2.72169 2.16039 3.01686C1.87084 3.31204 1.65078 3.62169 1.50021 3.9458C1.40756 4.15416 1.33228 4.37699 1.27437 4.61429C1.21646 4.85158 1.1875 5.09756 1.1875 5.35223C1.1875 5.3638 1.1875 5.37538 1.1875 5.38695C1.1875 5.39853 1.1875 5.4101 1.1875 5.42168C1.1875 6.24354 1.4452 6.96412 1.9606 7.58341C2.476 8.2027 3.1217 8.59337 3.89769 8.75543H3.93244C4.80109 8.94064 5.62052 8.79594 6.39072 8.32135C7.16093 7.84675 7.66764 7.18116 7.91086 6.32457C7.94561 6.18566 7.97456 6.03808 7.99773 5.88181C8.02089 5.72554 8.03247 5.56637 8.03247 5.40432C8.03247 4.58245 7.77188 3.85898 7.25069 3.23391C6.7295 2.60883 6.0809 2.21526 5.30491 2.0532H5.28754C5.1833 2.03005 5.07037 2.01269 4.94876 2.00111C4.82715 1.98954 4.70843 1.98375 4.59261 1.98375C4.48838 1.98375 4.38414 1.98954 4.2799 2.00111C4.17566 2.01269 4.07142 2.02426 3.96719 2.03584H4.00193ZM12.4973 2.0532C11.9646 2.16896 11.4955 2.38889 11.0901 2.71301C10.6732 3.03712 10.3547 3.42201 10.1346 3.86767C9.91455 4.31332 9.79294 4.7966 9.76978 5.3175C9.74661 5.8384 9.85085 6.34772 10.0825 6.84547C10.1751 7.03068 10.2736 7.19563 10.3778 7.34032C10.4821 7.48502 10.6037 7.6326 10.7427 7.78309C11.0554 8.1072 11.4231 8.36186 11.8459 8.54707C12.2686 8.73228 12.7174 8.82488 13.1923 8.82488C13.7366 8.82488 14.2404 8.70913 14.7037 8.47762C15.167 8.24611 15.555 7.93357 15.8677 7.54L15.8851 7.52264C16.0357 7.32585 16.1688 7.10592 16.2847 6.86283C16.4005 6.61975 16.4873 6.36508 16.5453 6.09885V6.08148C16.58 5.91943 16.6003 5.71686 16.6061 5.47377C16.6119 5.23068 16.6032 5.02811 16.58 4.86605C16.4642 4.1368 16.1428 3.50882 15.6158 2.98214C15.0888 2.45545 14.4605 2.13423 13.7308 2.01848C13.6613 2.0069 13.5832 1.99822 13.4963 1.99243C13.4094 1.98664 13.3197 1.98375 13.227 1.98375C13.0996 1.98375 12.9722 1.98954 12.8448 2.00111C12.7174 2.01269 12.5958 2.03005 12.48 2.0532H12.4973ZM5.20067 3.39017C5.55971 3.48278 5.87532 3.67378 6.1475 3.96316C6.41968 4.25255 6.59051 4.58245 6.66 4.95287C6.67159 5.02232 6.68027 5.09178 6.68606 5.16123C6.69186 5.23068 6.69475 5.30592 6.69475 5.38695C6.69475 5.50271 6.68896 5.61846 6.67738 5.73422C6.6658 5.84997 6.64263 5.96573 6.60789 6.08148V6.06412C6.51523 6.36508 6.3415 6.64 6.08669 6.88888C5.83189 7.13775 5.54813 7.31428 5.23542 7.41846C5.09643 7.45318 4.91981 7.47633 4.70554 7.48791C4.49127 7.49949 4.30885 7.48791 4.15829 7.45318C3.92665 7.40688 3.71238 7.32296 3.51549 7.20142C3.31859 7.07987 3.15065 6.93228 3.01167 6.75865C2.84952 6.58502 2.72501 6.38824 2.63815 6.1683C2.55128 5.94837 2.50785 5.71107 2.50785 5.45641C2.50785 5.44483 2.50785 5.43615 2.50785 5.43036C2.50785 5.42457 2.50785 5.41589 2.50785 5.40432C2.50785 5.20753 2.52233 5.04837 2.55128 4.92683C2.58024 4.80528 2.64104 4.65769 2.7337 4.48406C2.79161 4.35673 2.84373 4.26123 2.89006 4.19757C2.93639 4.1339 3.01746 4.04419 3.13328 3.92844C3.30701 3.7548 3.48653 3.61879 3.67184 3.5204C3.85716 3.42201 4.05984 3.35545 4.2799 3.32072C4.39572 3.29757 4.54629 3.29468 4.7316 3.31204C4.91691 3.3294 5.07327 3.35545 5.20067 3.39017ZM13.6961 3.35545C13.7308 3.36702 13.7916 3.38728 13.8785 3.41622C13.9654 3.44516 14.0435 3.48278 14.113 3.52908C14.2404 3.58696 14.336 3.63905 14.3997 3.68535C14.4634 3.73165 14.5532 3.81268 14.669 3.92844C14.7848 4.04419 14.8659 4.1339 14.9122 4.19757C14.9585 4.26123 15.0106 4.35673 15.0686 4.48406C15.1612 4.65769 15.222 4.80528 15.251 4.92683C15.2799 5.04837 15.2944 5.20753 15.2944 5.40432C15.2944 5.53165 15.2886 5.63583 15.277 5.71686C15.2654 5.79788 15.2481 5.8847 15.2249 5.9773C15.1207 6.33615 14.9238 6.65447 14.6342 6.93228C14.3447 7.2101 14.0146 7.38373 13.644 7.45318C13.5745 7.46476 13.505 7.47344 13.4355 7.47923C13.366 7.48502 13.2907 7.48791 13.2096 7.48791C13.0938 7.48791 12.9809 7.48212 12.8709 7.47055C12.7608 7.45897 12.6537 7.43582 12.5495 7.40109L12.5668 7.41846C12.2657 7.31428 11.9848 7.13775 11.7242 6.88888C11.4636 6.64 11.287 6.36508 11.1944 6.06412C11.1596 5.95994 11.1365 5.84997 11.1249 5.73422C11.1133 5.61846 11.1075 5.50271 11.1075 5.38695C11.1075 5.30592 11.1104 5.22779 11.1162 5.15255C11.122 5.07731 11.1307 5.00496 11.1422 4.93551V4.95287C11.2233 4.53615 11.426 4.17731 11.7503 3.87635C12.0746 3.57538 12.4568 3.39017 12.8969 3.32072C12.9317 3.32072 12.9722 3.31783 13.0185 3.31204C13.0649 3.30625 13.117 3.30336 13.1749 3.30336C13.2675 3.30336 13.3573 3.30915 13.4442 3.32072C13.531 3.3323 13.6208 3.34387 13.7135 3.35545H13.6961ZM4.10617 10.5959C3.3765 10.7117 2.75397 11.0155 2.23857 11.5075C1.72317 11.9995 1.39598 12.5985 1.25699 13.3046C1.23383 13.4088 1.21646 13.5217 1.20487 13.6432C1.19329 13.7647 1.1875 13.8892 1.1875 14.0165C1.1875 14.1091 1.1904 14.1988 1.19619 14.2856C1.20198 14.3725 1.21066 14.4564 1.22225 14.5374V14.52C1.33807 15.1798 1.61024 15.7528 2.03878 16.239C2.46731 16.7252 2.9943 17.0667 3.61972 17.2634H3.6371C3.82241 17.3213 3.98166 17.3589 4.11486 17.3763C4.24805 17.3937 4.41888 17.4023 4.62736 17.4023C5.19488 17.4023 5.71028 17.275 6.17356 17.0204C6.64842 16.7773 7.03932 16.4532 7.34624 16.048C7.65316 15.6429 7.85874 15.1798 7.96298 14.6589C8.0788 14.138 8.06143 13.6056 7.91086 13.0615C7.77188 12.5869 7.54892 12.1673 7.242 11.8027C6.93508 11.4381 6.57314 11.1458 6.15619 10.9258H6.13881C5.91876 10.8101 5.67843 10.7204 5.41783 10.6567C5.15724 10.593 4.88796 10.5612 4.60999 10.5612C4.51733 10.5612 4.42757 10.5641 4.34071 10.5699C4.25384 10.5757 4.16987 10.5844 4.0888 10.5959H4.10617ZM12.7406 10.5786C12.4742 10.6249 12.2194 10.6943 11.9762 10.7869C11.7329 10.8795 11.5013 10.9953 11.2812 11.1342H11.2986C11.148 11.2268 10.9801 11.3657 10.7948 11.5509C10.6095 11.7361 10.4647 11.904 10.3605 12.0545C10.1751 12.3207 10.0304 12.6188 9.92614 12.9487C9.8219 13.2786 9.76978 13.6229 9.76978 13.9818C9.76978 14.8268 10.0362 15.5618 10.5689 16.1869C11.1017 16.812 11.7677 17.1998 12.5668 17.3503H12.5842C12.7927 17.385 13.0417 17.3966 13.3312 17.385C13.6208 17.3734 13.864 17.3445 14.0609 17.2982C14.6748 17.1245 15.1931 16.8265 15.6158 16.404C16.0385 15.9814 16.3368 15.4634 16.5105 14.8499C16.5568 14.6532 16.5858 14.4101 16.5974 14.1207C16.609 13.8313 16.5974 13.5824 16.5626 13.3741C16.4352 12.6911 16.1283 12.0979 15.6419 11.5943C15.1554 11.0908 14.5705 10.7696 13.8872 10.6307H13.8698C13.754 10.6075 13.6353 10.5901 13.5137 10.5786C13.3921 10.567 13.2675 10.5612 13.1401 10.5612C13.0707 10.5612 13.0012 10.5641 12.9317 10.5699C12.8622 10.5757 12.7927 10.5786 12.7232 10.5786H12.7406ZM5.27016 11.985C5.57129 12.0776 5.84637 12.2541 6.09538 12.5146C6.34439 12.775 6.52102 13.0557 6.62526 13.3567C6.66 13.4956 6.68317 13.6721 6.69475 13.8863C6.70633 14.1004 6.69475 14.2827 6.66 14.4332C6.61368 14.6532 6.52102 14.876 6.38204 15.1017C6.24305 15.3274 6.0809 15.504 5.89559 15.6313C5.68712 15.7933 5.48733 15.9091 5.29622 15.9786C5.10512 16.048 4.87637 16.0827 4.60999 16.0827C4.41309 16.0827 4.25384 16.0683 4.13223 16.0393C4.01062 16.0104 3.86295 15.9496 3.68922 15.857C3.56181 15.7991 3.46626 15.747 3.40256 15.7007C3.33886 15.6544 3.2491 15.5734 3.13328 15.4577C3.01746 15.3419 2.93639 15.2522 2.89006 15.1885C2.84373 15.1249 2.79161 15.0294 2.7337 14.902C2.64104 14.7284 2.58024 14.5808 2.55128 14.4593C2.52233 14.3377 2.50785 14.1786 2.50785 13.9818C2.50785 13.9702 2.50785 13.9615 2.50785 13.9557C2.50785 13.9499 2.50785 13.9413 2.50785 13.9297C2.50785 13.675 2.55128 13.4377 2.63815 13.2178C2.72501 12.9979 2.84952 12.8011 3.01167 12.6274C3.15065 12.4538 3.3157 12.3091 3.5068 12.1934C3.6979 12.0776 3.89769 11.9908 4.10617 11.9329H4.12354C4.27411 11.8982 4.46521 11.8866 4.69685 11.8982C4.92849 11.9098 5.1196 11.9387 5.27016 11.985ZM13.6613 11.9329C13.8698 11.9792 14.0754 12.066 14.2781 12.1934C14.4808 12.3207 14.6516 12.4654 14.7906 12.6274C14.9643 12.8358 15.0917 13.0471 15.1728 13.2612C15.2539 13.4753 15.2944 13.7155 15.2944 13.9818C15.2944 14.1786 15.2799 14.3377 15.251 14.4593C15.222 14.5808 15.1612 14.7284 15.0686 14.902C15.0106 15.0294 14.9585 15.1249 14.9122 15.1885C14.8659 15.2522 14.7848 15.3419 14.669 15.4577C14.5532 15.5734 14.4634 15.6544 14.3997 15.7007C14.336 15.747 14.2404 15.7991 14.113 15.857C13.9393 15.9496 13.7916 16.0104 13.67 16.0393C13.5484 16.0683 13.3892 16.0827 13.1923 16.0827C12.7637 16.0827 12.3844 15.9757 12.0543 15.7615C11.7242 15.5474 11.4665 15.2493 11.2812 14.8673C11.1422 14.5663 11.0814 14.2307 11.0988 13.8602C11.1162 13.4898 11.2117 13.1657 11.3855 12.8879C11.5592 12.6332 11.759 12.4249 11.9848 12.2628C12.2107 12.1008 12.4626 11.9908 12.7406 11.9329C12.8564 11.9098 13.007 11.8982 13.1923 11.8982C13.3776 11.8982 13.5339 11.9098 13.6613 11.9329Z" fill="#634C12"/>
</svg>
