<svg width="19" height="19" viewBox="0 0 19 19" fill="none" xmlns="http://www.w3.org/2000/svg">
<path d="M11.3897 4.74751C11.5871 4.52181 12.0521 4.2381 12.7132 3.93402C13.3549 3.63885 14.123 3.34984 14.8669 3.09461C15.6095 2.83988 16.3212 2.62113 16.8478 2.46594C16.9557 2.43416 17.0557 2.40508 17.1466 2.37891C17.1287 2.4826 17.1086 2.59796 17.0863 2.72307C16.9866 3.28488 16.8453 4.04282 16.6787 4.82904C16.5118 5.6166 16.3208 6.42629 16.1224 7.09385C16.023 7.42795 15.9236 7.72022 15.8265 7.95363C15.7259 8.1956 15.6405 8.34273 15.5799 8.4121C15.4761 8.53071 15.2496 8.62749 14.859 8.65362C14.4844 8.67869 14.0379 8.6335 13.5964 8.55583C13.1583 8.47881 12.7424 8.37306 12.4347 8.28593C12.2813 8.24254 12.1558 8.20406 12.0691 8.17658C12.0684 8.17633 12.0677 8.17613 12.067 8.17593C12.0239 8.10056 11.9634 7.99162 11.8938 7.85739C11.7521 7.58449 11.5753 7.21185 11.4301 6.80729C11.2838 6.39957 11.1764 5.97778 11.1603 5.60204C11.1442 5.22475 11.2213 4.94009 11.3897 4.74751Z" stroke="#595959" stroke-width="0.7"/>
<path d="M15.1574 4.45312C15.1574 4.45312 11.7406 7.39805 10.627 10.6892" stroke="#595959" stroke-width="0.7" stroke-linecap="round" stroke-linejoin="round"/>
<path d="M8.87469 6.33211C8.74322 6.18017 8.41617 5.97478 7.92492 5.74647C7.45294 5.52712 6.88643 5.31158 6.33578 5.1207C5.78643 4.93023 5.25965 4.76663 4.86974 4.65053C4.84487 4.64312 4.8206 4.63591 4.79688 4.62891C4.80298 4.66414 4.80934 4.70067 4.81599 4.73841C4.88986 5.15914 4.99455 5.72656 5.11797 6.31489C5.24163 6.90463 5.38276 7.50918 5.52909 8.00643C5.60236 8.25536 5.67512 8.47125 5.74544 8.64216C5.81936 8.82177 5.87811 8.92036 5.91264 8.96025C5.96359 9.0191 6.09781 9.08881 6.37992 9.10788C6.64636 9.1259 6.9687 9.09347 7.2929 9.03587C7.61364 8.97891 7.91887 8.90049 8.14522 8.83573C8.23896 8.80891 8.31848 8.78469 8.37909 8.76557C8.40856 8.71272 8.4459 8.64381 8.48783 8.56219C8.59173 8.3598 8.7211 8.0842 8.82709 7.78583C8.93414 7.48425 9.01076 7.17758 9.02217 6.90848C9.03363 6.63753 8.97783 6.45126 8.87469 6.33211Z" stroke="#595959" stroke-width="0.7"/>
<path d="M6.43555 6.375C6.43555 6.375 8.68184 8.26362 9.32032 10.4841" stroke="#595959" stroke-width="0.7" stroke-linecap="round" stroke-linejoin="round"/>
<path d="M4.4276 12.0929H3.92715V12.7991L4.59345 12.5651L4.4276 12.0929ZM7.55685 11.4515L7.66445 10.9628L7.65574 10.9608L7.64693 10.9592L7.55685 11.4515ZM10.4179 12.0813L10.568 11.6039L10.547 11.5973L10.5255 11.5926L10.4179 12.0813ZM10.8501 13.8182L10.8762 13.3184L10.8661 13.3179L10.8561 13.3178L10.8501 13.8182ZM8.54034 13.7908L8.5463 13.2904L8.45221 14.2834L8.54034 13.7908ZM4.4276 15.9225L4.41039 15.4223L3.92715 15.439V15.9225H4.4276ZM4.4276 16.8766V17.377H4.92806V16.8766H4.4276ZM1.98092 16.8766H1.48047V17.377H1.98092V16.8766ZM1.98092 11.3715V10.8711H1.48047V11.3715H1.98092ZM4.4276 11.3715H4.92806V10.8711H4.4276V11.3715ZM5.9667 10.9947C5.73574 11.098 4.88332 11.4024 4.26175 11.6207L4.59345 12.5651C5.18944 12.3557 6.09582 12.0334 6.37537 11.9084L5.9667 10.9947ZM7.55685 11.4515C7.64693 10.9592 7.64698 10.9592 7.64693 10.9592C7.64703 10.9593 7.64688 10.9592 7.64693 10.9592C7.64683 10.9592 7.64643 10.9591 7.64628 10.9591C7.64598 10.9591 7.64563 10.959 7.64523 10.9589C7.64443 10.9588 7.64343 10.9586 7.64213 10.9584C7.63957 10.9579 7.63612 10.9573 7.63177 10.9565C7.62301 10.955 7.61075 10.9529 7.59533 10.9504C7.56451 10.9453 7.52092 10.9384 7.46762 10.9308C7.36162 10.9156 7.21474 10.8973 7.05274 10.885C6.89224 10.8728 6.70773 10.8658 6.52896 10.8759C6.36021 10.8855 6.15082 10.9123 5.9667 10.9947L6.37537 11.9084C6.39244 11.9007 6.45685 11.8826 6.58566 11.8753C6.70442 11.8686 6.84125 11.8728 6.97692 11.8831C7.11109 11.8933 7.23521 11.9087 7.32619 11.9216C7.37143 11.9281 7.40776 11.9339 7.43234 11.9379C7.44455 11.9399 7.4538 11.9415 7.45971 11.9426C7.46266 11.9431 7.46471 11.9434 7.46592 11.9437C7.46652 11.9438 7.46692 11.9438 7.46707 11.9439C7.46712 11.9439 7.46702 11.9439 7.46707 11.9439C7.46702 11.9439 7.46682 11.9438 7.55685 11.4515ZM10.5255 11.5926L7.66445 10.9628L7.4493 11.9403L10.3103 12.5701L10.5255 11.5926ZM11.8037 11.8058C11.5182 11.8058 11.2103 11.7571 10.9641 11.7045C10.8432 11.6785 10.7419 11.6527 10.6715 11.6336C10.6364 11.624 10.6092 11.6162 10.5915 11.611C10.5826 11.6083 10.576 11.6064 10.5721 11.6052C10.5701 11.6046 10.5687 11.6042 10.568 11.6039C10.568 11.6039 10.5681 11.6039 10.568 11.6039C10.5681 11.6039 10.568 11.6039 10.4179 12.0813C10.2678 12.5587 10.2679 12.5588 10.2679 12.5588C10.2679 12.5588 10.268 12.5588 10.2679 12.5588C10.268 12.5588 10.2683 12.5589 10.2684 12.5589C10.2687 12.559 10.269 12.5591 10.2693 12.5592C10.27 12.5594 10.2709 12.5597 10.2719 12.56C10.274 12.5607 10.2767 12.5615 10.2801 12.5625C10.287 12.5646 10.2965 12.5675 10.3085 12.571C10.3324 12.5781 10.3664 12.5879 10.4088 12.5994C10.4935 12.6224 10.6128 12.6528 10.7546 12.6831C11.0337 12.7429 11.4187 12.8067 11.8037 12.8067V11.8058ZM11.9122 13.9307C12.2331 13.7058 12.5137 13.3035 12.6167 12.928C12.6669 12.7445 12.7023 12.4658 12.5591 12.2085C12.3922 11.9088 12.0849 11.8058 11.8037 11.8058V12.8067C11.8339 12.8067 11.8222 12.8121 11.7897 12.7963C11.7513 12.7779 11.711 12.7429 11.6845 12.6952C11.6407 12.6165 11.6735 12.5825 11.6513 12.6634C11.6335 12.7285 11.5915 12.8187 11.5266 12.9112C11.4617 13.0038 11.3917 13.0732 11.3377 13.1111L11.9122 13.9307ZM10.8501 13.8182C10.8241 14.318 10.8243 14.318 10.8246 14.318C10.8249 14.3181 10.8258 14.3181 10.8261 14.3181C10.8269 14.3181 10.8276 14.3182 10.8283 14.3182C10.8299 14.3183 10.8315 14.3183 10.8331 14.3184C10.8365 14.3185 10.8402 14.3186 10.8443 14.3187C10.8524 14.3188 10.8619 14.3189 10.8726 14.3187C10.8941 14.3184 10.9207 14.3172 10.9521 14.3145C11.0148 14.309 11.0963 14.297 11.1928 14.2724C11.3869 14.223 11.6365 14.124 11.9122 13.9307L11.3377 13.1111C11.1649 13.2322 11.027 13.2818 10.9458 13.3025C10.9047 13.3129 10.8766 13.3164 10.8641 13.3175C10.8579 13.318 10.8555 13.318 10.8574 13.3179C10.8584 13.3179 10.8604 13.3179 10.8635 13.318C10.865 13.318 10.8669 13.3181 10.869 13.3181C10.87 13.3182 10.8711 13.3182 10.8723 13.3183C10.8729 13.3183 10.8736 13.3183 10.8742 13.3183C10.8745 13.3184 10.8748 13.3184 10.8752 13.3184C10.8753 13.3184 10.8761 13.3184 10.8762 13.3184C10.8764 13.3184 10.8762 13.3184 10.8501 13.8182ZM8.53439 14.2912L10.8443 14.3187L10.8561 13.3178L8.5463 13.2904L8.53439 14.2912ZM11.3415 13.6961C10.9909 13.6753 10.3233 13.5786 9.72022 13.4822C9.42365 13.4348 9.15045 13.3887 8.95127 13.3545C8.85178 13.3374 8.77085 13.3233 8.7149 13.3135C8.68693 13.3086 8.66521 13.3047 8.65054 13.3021C8.64324 13.3008 8.63763 13.2998 8.63393 13.2992C8.63208 13.2988 8.63068 13.2986 8.62978 13.2984C8.62932 13.2983 8.62897 13.2983 8.62877 13.2982C8.62882 13.2982 8.62867 13.2982 8.62877 13.2982C8.62877 13.2982 8.62847 13.2982 8.54034 13.7908C8.45221 14.2834 8.45216 14.2834 8.45221 14.2834C8.45206 14.2834 8.45226 14.2835 8.45221 14.2834C8.45251 14.2835 8.45331 14.2836 8.45386 14.2837C8.45487 14.2839 8.45637 14.2842 8.45837 14.2846C8.46232 14.2853 8.46813 14.2863 8.47568 14.2876C8.4909 14.2903 8.51312 14.2943 8.54165 14.2993C8.5987 14.3093 8.68087 14.3236 8.78181 14.341C8.9836 14.3756 9.2608 14.4224 9.56217 14.4706C10.1549 14.5653 10.8731 14.6711 11.2824 14.6953L11.3415 13.6961ZM12.9084 13.1913C12.535 13.3416 12.2016 13.4756 11.9145 13.5703C11.6121 13.67 11.4305 13.7014 11.3415 13.6961L11.2824 14.6953C11.5784 14.7128 11.9195 14.6226 12.228 14.5209C12.5518 14.414 12.9176 14.2666 13.2822 14.1198L12.9084 13.1913ZM15.2105 12.4421C14.4603 12.5638 13.6116 12.9082 12.9084 13.1913L13.2822 14.1198C14.0167 13.8241 14.7534 13.5303 15.3708 13.4301L15.2105 12.4421ZM16.8079 14.7284C17.2047 14.3291 17.2634 13.6704 17.0027 13.1712C16.7076 12.606 16.0651 12.3033 15.2105 12.4421L15.3708 13.4301C15.9019 13.3438 16.0641 13.5361 16.1155 13.6344C16.2013 13.7987 16.1482 13.9723 16.098 14.0229L16.8079 14.7284ZM11.973 17.2308C12.3182 17.1068 13.395 16.6095 14.4184 16.1002C14.9359 15.8426 15.452 15.5759 15.8693 15.3436C16.0776 15.2277 16.2658 15.1178 16.4192 15.0202C16.5612 14.9298 16.7088 14.8281 16.8079 14.7284L16.098 14.0229C16.0986 14.0222 16.0945 14.0263 16.0834 14.0356C16.0725 14.0445 16.0577 14.056 16.0382 14.0704C15.9989 14.0991 15.9469 14.1344 15.8818 14.1758C15.7516 14.2587 15.5822 14.3579 15.3825 14.469C14.984 14.6908 14.4831 14.9499 13.9724 15.2041C12.9394 15.7182 11.9152 16.188 11.6345 16.2889L11.973 17.2308ZM10.0027 17.3097C10.6358 17.3721 11.3547 17.4531 11.973 17.2308L11.6345 16.2889C11.2725 16.419 10.8057 16.3831 10.1009 16.3135L10.0027 17.3097ZM9.44201 17.259C9.63139 17.2731 9.81661 17.2913 10.0027 17.3097L10.1009 16.3135C9.9165 16.2954 9.71952 16.2759 9.51623 16.2608L9.44201 17.259ZM7.36092 16.809C7.95211 16.9934 8.59785 17.1962 9.44201 17.259L9.51623 16.2608C8.79798 16.2074 8.24978 16.0378 7.65894 15.8535L7.36092 16.809ZM5.39133 16.4052C6.15778 16.4355 6.72829 16.6117 7.36092 16.809L7.65894 15.8535C7.02476 15.6557 6.34229 15.4411 5.43086 15.4051L5.39133 16.4052ZM4.44482 16.4226C4.84808 16.4088 5.23869 16.3992 5.39133 16.4052L5.43086 15.4051C5.23263 15.3973 4.79889 15.409 4.41039 15.4223L4.44482 16.4226ZM3.92715 15.9225V16.8766H4.92806V15.9225H3.92715ZM4.4276 16.3761H1.98092V17.377H4.4276V16.3761ZM2.48138 16.8766V11.3715H1.48047V16.8766H2.48138ZM1.98092 11.872H4.4276V10.8711H1.98092V11.872ZM3.92715 11.3715V12.0929H4.92806V11.3715H3.92715Z" fill="#595959"/>
</svg>
