<svg width="18" height="17" viewBox="0 0 18 17" fill="none" xmlns="http://www.w3.org/2000/svg">
<path d="M2.4831 3.4968H15.6586C16.7792 3.49811 17.6873 4.40617 17.6886 5.52663V14.336C17.6873 15.4566 16.7793 16.3646 15.6588 16.3659H2.48315C1.36252 16.3646 0.45445 15.4566 0.453125 14.3361V5.52676C0.454433 4.40617 1.36249 3.49811 2.48295 3.4968H2.48307H2.4831ZM15.6586 15.2169C16.1446 15.2156 16.5383 14.822 16.5396 14.3361V5.52676C16.5383 5.04078 16.1446 4.64715 15.6588 4.64584H2.48312C1.99711 4.64715 1.60349 5.04078 1.6022 5.52664V14.336C1.60349 14.822 1.99711 15.2156 2.48298 15.2169H2.4831H15.6586ZM14.2032 9.77817C14.2032 9.77818 14.2032 9.77818 14.2032 9.77818H9.99008C9.96893 9.77818 9.95178 9.76104 9.95178 9.73988V9.73988C9.95178 9.71873 9.93463 9.70158 9.91348 9.70158H3.93852C2.01446 9.6994 0.45531 8.14023 0.453125 6.2164V5.45016C0.454433 4.32957 1.36249 3.42151 2.48295 3.4202H15.6586C16.7792 3.42151 17.6873 4.32957 17.6886 5.45003V6.29275C17.6864 8.21685 16.1272 9.77598 14.2034 9.77816H14.2032C14.2032 9.77816 14.2032 9.77817 14.2032 9.77817V9.77817ZM11.1008 8.59084C11.1008 8.61199 11.118 8.62914 11.1391 8.62914H14.2032C15.493 8.62784 16.5382 7.58258 16.5395 6.29291V5.45015C16.5382 4.96416 16.1446 4.57053 15.6588 4.56922H2.4831C1.9971 4.57053 1.60347 4.96416 1.60218 5.45003V6.21619C1.60347 7.506 2.64872 8.55124 3.9384 8.55253H11.0625C11.0837 8.55253 11.1008 8.56968 11.1008 8.59084V8.59084ZM9.64539 9.89306C9.6454 10.2104 9.38817 10.4676 9.07087 10.4676V10.4676C8.75357 10.4676 8.49635 10.2104 8.49635 9.89307V8.43762C8.49635 8.12032 8.75357 7.8631 9.07086 7.8631V7.8631C9.38815 7.8631 9.64537 8.12032 9.64538 8.43761L9.64539 9.89306ZM12.1143 2.14674C12.4172 3.42205 11.4501 4.64584 10.1393 4.64584H7.9975C6.6873 4.64584 5.72028 3.42309 6.02217 2.14814V2.14814C6.23898 1.23254 7.05658 0.585938 7.9975 0.585938H10.1393C11.0797 0.585938 11.897 1.23181 12.1143 2.14674V2.14674ZM7.14085 2.41417C7.01078 2.96712 7.43033 3.4968 7.99837 3.4968H10.1385C10.7071 3.4968 11.1268 2.96607 10.9956 2.41276V2.41276C10.9015 2.01549 10.5467 1.73496 10.1385 1.73496H7.99837C7.58955 1.73496 7.23446 2.01622 7.14085 2.41417V2.41417Z" fill="#634C12"/>
</svg>
