<svg width="19" height="19" viewBox="0 0 19 19" fill="none" xmlns="http://www.w3.org/2000/svg">
<path d="M12.0906 1.91341C11.7315 1.97129 11.3812 2.07258 11.0395 2.21727C10.6978 2.36197 10.3822 2.54428 10.0927 2.76422C10.0232 2.81052 9.92761 2.88865 9.806 2.99862C9.68439 3.10859 9.57147 3.21566 9.46723 3.31984L9.05028 3.7192L8.87655 3.56293C8.77231 3.4819 8.65359 3.40666 8.5204 3.3372C8.38721 3.26775 8.24533 3.21566 8.09476 3.18093L8.07739 3.16357C7.96157 3.14042 7.80231 3.13174 7.59963 3.13753C7.39694 3.14331 7.23769 3.15778 7.12187 3.18093C6.76283 3.27354 6.42695 3.47322 6.11423 3.77997C5.80152 4.08672 5.58725 4.43109 5.47143 4.81308C5.44827 4.88254 5.43379 4.96067 5.428 5.04749C5.42221 5.1343 5.41931 5.26453 5.41931 5.43816C5.41931 5.63494 5.4251 5.77096 5.43669 5.8462C5.44827 5.92144 5.47143 6.01115 5.50618 6.11533C5.56409 6.28896 5.63937 6.44813 5.73203 6.59282C5.82468 6.73751 5.95209 6.89668 6.11423 7.07031C6.19531 7.15134 6.25901 7.22079 6.30534 7.27867C6.35167 7.33655 6.37483 7.37127 6.37483 7.38285C6.36325 7.38285 6.32561 7.40889 6.2619 7.46098C6.1982 7.51307 6.12003 7.56806 6.02737 7.62593C5.56409 7.9732 5.12687 8.34362 4.71571 8.73718C4.30454 9.13075 3.92523 9.54168 3.57777 9.96998L3.5604 10.0047C3.30559 10.3172 3.12318 10.5516 3.01315 10.7079C2.90312 10.8642 2.80757 11.0349 2.72649 11.2201C2.58751 11.4979 2.49196 11.77 2.43984 12.0362C2.38772 12.3024 2.36166 12.6208 2.36166 12.9912C2.36166 13.269 2.34429 13.46 2.30954 13.5642C2.27479 13.6684 2.19372 13.7899 2.06632 13.9288C1.91575 14.1024 1.79414 14.3021 1.70148 14.5278C1.60883 14.7536 1.5625 14.9938 1.5625 15.2484C1.5625 15.2716 1.5625 15.2947 1.5625 15.3179C1.5625 15.341 1.5625 15.3642 1.5625 15.3873C1.57408 15.6767 1.63199 15.9285 1.73623 16.1426C1.84047 16.3568 2.00841 16.5854 2.24005 16.8285C2.48327 17.06 2.71202 17.2278 2.92628 17.332C3.14055 17.4362 3.39246 17.4941 3.68201 17.5056C3.97156 17.5172 4.23216 17.4825 4.4638 17.4015C4.69544 17.3204 4.91549 17.1873 5.12397 17.0021C5.27454 16.8748 5.39615 16.7966 5.48881 16.7677C5.58146 16.7388 5.80731 16.7185 6.16635 16.7069C6.51381 16.6954 6.7802 16.6751 6.96551 16.6462C7.15083 16.6172 7.3593 16.5564 7.59094 16.4638C7.77625 16.3944 7.95578 16.3105 8.12951 16.2121C8.30324 16.1137 8.52329 15.9603 8.78968 15.752C9.33404 15.3468 9.79153 14.959 10.1622 14.5886C10.5328 14.2182 10.9266 13.7494 11.3435 13.1822C11.4362 13.078 11.5144 12.9796 11.5781 12.887C11.6418 12.7944 11.6794 12.7423 11.691 12.7307C11.7026 12.7076 11.7257 12.7076 11.7605 12.7307C11.7952 12.7539 11.8821 12.8291 12.0211 12.9565C12.2759 13.1995 12.5162 13.3732 12.742 13.4774C12.9679 13.5815 13.2372 13.6394 13.5499 13.651C13.7699 13.6626 13.9582 13.6539 14.1145 13.6249C14.2709 13.596 14.4359 13.5352 14.6096 13.4426C14.9224 13.2922 15.1945 13.078 15.4262 12.8002C15.6578 12.5224 15.8142 12.2388 15.8953 11.9494C15.9184 11.8336 15.9329 11.6803 15.9387 11.4893C15.9445 11.2983 15.9358 11.1391 15.9126 11.0118C15.8663 10.8497 15.8084 10.7021 15.7389 10.569C15.6694 10.4359 15.5883 10.3057 15.4957 10.1783L15.513 10.1957L15.3567 10.0221L15.7563 9.60535C15.8605 9.50117 15.9647 9.3912 16.069 9.27545C16.1732 9.15969 16.2427 9.07866 16.2775 9.03236C16.567 8.66194 16.7958 8.24522 16.9637 7.7822C17.1316 7.31918 17.2156 6.82722 17.2156 6.30632C17.2156 5.76228 17.12 5.24138 16.9289 4.74363C16.7378 4.24588 16.4744 3.80023 16.1385 3.40666V3.42402C15.791 3.03045 15.3856 2.70055 14.9224 2.43431C14.4591 2.16808 13.9611 1.99444 13.4283 1.91341H13.3935C13.3009 1.90184 13.1995 1.89316 13.0895 1.88737C12.9795 1.88158 12.8666 1.87869 12.7507 1.87869C12.6349 1.87869 12.5191 1.88158 12.4033 1.88737C12.2875 1.89316 12.1774 1.90184 12.0732 1.91341H12.0906ZM13.602 3.30248C14.1 3.45296 14.5344 3.70183 14.905 4.0491C15.2756 4.39636 15.542 4.80729 15.7041 5.28189L15.7215 5.29926C15.7794 5.48446 15.82 5.64652 15.8431 5.78543C15.8663 5.92433 15.8779 6.10375 15.8779 6.32369C15.8779 6.54362 15.8605 6.74619 15.8258 6.9314C15.791 7.11661 15.7331 7.29603 15.652 7.46967C15.5478 7.72433 15.4349 7.93558 15.3133 8.10343C15.1916 8.27127 14.9745 8.51725 14.6618 8.84136C14.407 9.1076 14.2419 9.30439 14.1666 9.43172C14.0914 9.55905 14.0479 9.72689 14.0363 9.93525C14.0248 10.132 14.0479 10.3086 14.1058 10.4648C14.1637 10.6211 14.2738 10.7976 14.4359 10.9944C14.5749 11.168 14.6386 11.333 14.627 11.4893C14.6154 11.6455 14.5228 11.8105 14.3491 11.9841C14.2332 12.123 14.1232 12.2156 14.019 12.2619C13.9147 12.3082 13.7931 12.3314 13.6541 12.3314C13.4457 12.3314 13.2169 12.2214 12.9679 12.0015C12.7189 11.7815 11.7257 10.8092 9.98842 9.08445C8.2627 7.34812 7.28981 6.35552 7.06975 6.10665C6.84969 5.85777 6.73966 5.62916 6.73966 5.4208C6.73966 5.29347 6.76283 5.17482 6.80916 5.06485C6.85548 4.95488 6.93656 4.84202 7.05238 4.72627C7.14503 4.63366 7.22611 4.5671 7.2956 4.52659C7.36509 4.48607 7.44617 4.46003 7.53882 4.44845C7.63148 4.43688 7.72124 4.44556 7.8081 4.4745C7.89497 4.50344 7.98473 4.55842 8.07739 4.63945C8.2627 4.78993 8.41327 4.89122 8.52909 4.94331C8.64491 4.9954 8.79547 5.02723 8.98078 5.03881C9.10819 5.03881 9.2298 5.02723 9.34562 5.00408C9.46144 4.98093 9.57726 4.94041 9.69308 4.88254C9.71624 4.87096 9.78863 4.81308 9.91024 4.7089C10.0319 4.60472 10.1564 4.48897 10.2838 4.36164C10.6081 4.0491 10.8831 3.81759 11.109 3.66711C11.3348 3.51662 11.5867 3.40087 11.8647 3.31984C12.0269 3.27354 12.1658 3.2446 12.2817 3.23302C12.3975 3.22145 12.5886 3.21566 12.855 3.21566C13.0634 3.21566 13.2111 3.22145 13.298 3.23302C13.3848 3.2446 13.4862 3.26775 13.602 3.30248ZM10.7528 11.7584C10.7297 11.7931 10.6573 11.8944 10.5357 12.0623C10.4141 12.2301 10.2953 12.3893 10.1795 12.5397C9.91314 12.887 9.63227 13.214 9.33693 13.5208C9.04159 13.8275 8.73177 14.114 8.40747 14.3803L8.3901 14.3976C7.84575 14.8259 7.44327 15.095 7.18268 15.205C6.92208 15.315 6.5254 15.3757 5.99262 15.3873C5.56409 15.3989 5.24848 15.4394 5.04579 15.5089C4.84311 15.5783 4.62015 15.7114 4.37693 15.9082C4.23795 16.024 4.13371 16.0992 4.06422 16.1339C3.99472 16.1687 3.90207 16.186 3.78625 16.186C3.67043 16.186 3.56909 16.1629 3.48222 16.1166C3.39535 16.0703 3.29401 15.995 3.17819 15.8909C3.07395 15.7751 2.99867 15.6767 2.95234 15.5957C2.90601 15.5147 2.88285 15.4163 2.88285 15.3005C2.88285 15.1732 2.90022 15.0748 2.93497 15.0053C2.96972 14.9359 3.045 14.8317 3.16082 14.6928C3.3693 14.4497 3.50538 14.224 3.56909 14.0156C3.63279 13.8073 3.67043 13.4716 3.68201 13.0086C3.69359 12.7307 3.70517 12.5368 3.71676 12.4269C3.72834 12.3169 3.74571 12.2214 3.76887 12.1404C3.82679 11.9783 3.89338 11.8278 3.96866 11.6889C4.04395 11.55 4.15687 11.388 4.30744 11.2028C4.70123 10.6819 5.09791 10.2246 5.49749 9.83107C5.89707 9.4375 6.38062 9.02657 6.94814 8.59828L7.34772 8.3031L9.06765 10.0047C9.53093 10.4793 9.92761 10.8873 10.2577 11.2288C10.5878 11.5703 10.7528 11.7468 10.7528 11.7584Z" fill="#595959"/>
</svg>
