<svg width="318" height="345" viewBox="0 0 318 345" fill="none" xmlns="http://www.w3.org/2000/svg">
<g filter="url(#filter0_d_144_21863)">
<path d="M105.073 48.2872C109.964 48.2914 114.718 46.6653 118.582 43.6658L147.325 21.3537C154.136 16.3977 163.205 16.3978 170.016 21.3537L199.706 43.7221C203.497 46.5782 208.11 48.1316 212.856 48.1507L240.887 48.263C256.177 48.263 268.572 61.1396 268.572 77.0237V89.8715C268.572 96.231 271.324 102.279 276.118 106.457L286.092 115.149C287.436 116.32 288.212 118.048 288.212 119.871V282.588C288.212 293.934 279.359 303.131 268.437 303.131H49.5685C38.6481 303.131 29.7939 293.934 29.7939 282.588L29.8036 119.87C29.8036 118.048 30.5799 116.32 31.922 115.149L41.8875 106.464C46.6816 102.286 49.4333 96.2378 49.4333 89.8785V77.0237C49.4333 61.1396 61.8272 48.263 77.1177 48.263L105.073 48.2872Z" fill="#C8B289"/>
</g>
<mask id="mask0_144_21863" style="mask-type:alpha" maskUnits="userSpaceOnUse" x="29" y="10" width="260" height="294">
<path d="M108.67 48.2646L147.657 14.2873C154.468 9.3313 163.537 9.33136 170.348 14.2873L209.338 48.2646H240.887C256.177 48.2646 268.572 61.1411 268.572 77.0253V99.8828L286.092 115.15C287.436 116.321 288.212 118.05 288.212 119.872V282.59C288.212 293.935 279.359 303.133 268.437 303.133H49.5685C38.6481 303.133 29.7939 293.935 29.7939 282.589L29.8036 119.872C29.8036 118.05 30.5799 116.321 31.922 115.15L49.4333 99.8893V77.0253C49.4333 61.1411 61.8272 48.2646 77.1177 48.2646H108.67Z" fill="#EBE9FF"/>
</mask>
<g mask="url(#mask0_144_21863)">
<path d="M152.414 13.5856L32.8062 114.47C30.9026 116.076 29.8041 118.439 29.8039 120.93L29.7949 282.594C29.7949 293.94 38.6483 303.138 49.5695 303.138H268.438C279.36 303.138 288.213 293.94 288.213 282.595V120.94C288.213 118.444 287.109 116.075 285.198 114.47L165.113 13.5736C161.441 10.488 156.081 10.4931 152.414 13.5856Z" fill="#E5D2AF"/>
<path d="M258.711 48.2617C264.156 48.2617 268.57 52.6759 268.57 58.121L268.57 301.722C268.57 302.499 267.94 303.13 267.162 303.13L50.8403 303.13C50.0625 303.13 49.4319 302.499 49.4319 301.722L49.4319 58.121C49.4319 52.6758 53.846 48.2617 59.2912 48.2617L258.711 48.2617Z" fill="#F9F9FF"/>
<rect x="79.2793" y="147.184" width="124.94" height="18.7438" rx="6.33811" fill="#E9D6B3"/>
<rect x="79.2793" y="83.4258" width="123.718" height="18.7438" rx="6.33811" fill="#E9D6B3"/>
<rect x="79.2793" y="115.309" width="93.8202" height="18.7438" rx="6.33811" fill="#E9D6B3"/>
<path d="M129.316 209.464L28.6113 125.035L29.3104 294.719L129.316 209.464Z" fill="#C8B289"/>
<path d="M189.204 210.95L291.221 126.254L289.806 287.64L189.204 210.95Z" fill="#C8B289"/>
<path d="M-40.0175 317.704L151.101 178.636C156.041 175.041 162.735 175.041 167.675 178.636L369.295 325.346C370.398 326.148 369.831 327.893 368.467 327.893L-36.7027 327.893C-42.1583 327.893 -44.4288 320.914 -40.0175 317.704Z" fill="#D6C79D"/>
</g>
<defs>
<filter id="filter0_d_144_21863" x="0.715237" y="0.531595" width="316.574" height="343.654" filterUnits="userSpaceOnUse" color-interpolation-filters="sRGB">
<feFlood flood-opacity="0" result="BackgroundImageFix"/>
<feColorMatrix in="SourceAlpha" type="matrix" values="0 0 0 0 0 0 0 0 0 0 0 0 0 0 0 0 0 0 127 0" result="hardAlpha"/>
<feOffset dy="11.9736"/>
<feGaussianBlur stdDeviation="14.5394"/>
<feColorMatrix type="matrix" values="0 0 0 0 0.290196 0 0 0 0 0.227451 0 0 0 0 1 0 0 0 0.15 0"/>
<feBlend mode="normal" in2="BackgroundImageFix" result="effect1_dropShadow_144_21863"/>
<feBlend mode="normal" in="SourceGraphic" in2="effect1_dropShadow_144_21863" result="shape"/>
</filter>
</defs>
</svg>
