<svg width="45" height="40" viewBox="0 0 45 40" fill="none" xmlns="http://www.w3.org/2000/svg">
<g filter="url(#filter0_d_365_33)">
<path d="M10.5192 4C8.02333 4 6 6.02341 6 8.51941V8.97428L19.5579 16.275L33.1154 8.97453V8.51941C33.1154 6.02341 31.0921 4 28.5962 4H10.5192Z" fill="url(#paint0_linear_365_33)" stroke="url(#paint1_linear_365_33)"/>
<path d="M33.1154 10.9651L20.0936 17.9771C19.7592 18.1572 19.3567 18.1572 19.0223 17.9771L6 10.9648V21.5017C6 23.9978 8.02333 26.0211 10.5192 26.0211H28.5962C31.0921 26.0211 33.1154 23.9978 33.1154 21.5017V10.9651Z" fill="url(#paint2_linear_365_33)" stroke="url(#paint3_linear_365_33)"/>
</g>
<defs>
<filter id="filter0_d_365_33" x="0.5" y="0.5" width="44.1152" height="39.0195" filterUnits="userSpaceOnUse" color-interpolation-filters="sRGB">
<feFlood flood-opacity="0" result="BackgroundImageFix"/>
<feColorMatrix in="SourceAlpha" type="matrix" values="0 0 0 0 0 0 0 0 0 0 0 0 0 0 0 0 0 0 127 0" result="hardAlpha"/>
<feOffset dx="3" dy="5"/>
<feGaussianBlur stdDeviation="4"/>
<feComposite in2="hardAlpha" operator="out"/>
<feColorMatrix type="matrix" values="0 0 0 0 0.784314 0 0 0 0 0.698039 0 0 0 0 0.537255 0 0 0 0.33 0"/>
<feBlend mode="normal" in2="BackgroundImageFix" result="effect1_dropShadow_365_33"/>
<feBlend mode="normal" in="SourceGraphic" in2="effect1_dropShadow_365_33" result="shape"/>
</filter>
<linearGradient id="paint0_linear_365_33" x1="19.5577" y1="4" x2="19.5577" y2="16.275" gradientUnits="userSpaceOnUse">
<stop stop-color="#EBDAB9"/>
<stop offset="1" stop-color="#F6F1E6"/>
</linearGradient>
<linearGradient id="paint1_linear_365_33" x1="19.768" y1="3.67696" x2="19.768" y2="16.5986" gradientUnits="userSpaceOnUse">
<stop stop-color="#EBDAB9"/>
<stop offset="1" stop-color="#EDE8DF"/>
</linearGradient>
<linearGradient id="paint2_linear_365_33" x1="19.5577" y1="10.9648" x2="19.5577" y2="26.0211" gradientUnits="userSpaceOnUse">
<stop stop-color="#EBDAB9"/>
<stop offset="1" stop-color="#F6F1E6"/>
</linearGradient>
<linearGradient id="paint3_linear_365_33" x1="19.768" y1="10.5686" x2="19.768" y2="26.4181" gradientUnits="userSpaceOnUse">
<stop stop-color="#EBDAB9"/>
<stop offset="1" stop-color="#EDE8DF"/>
</linearGradient>
</defs>
</svg>
