<svg width="18" height="19" viewBox="0 0 18 19" fill="none" xmlns="http://www.w3.org/2000/svg">
<path d="M8.10582 0.757402C7.5965 0.826855 7.14216 0.916565 6.7428 1.02653C6.34345 1.1365 5.9412 1.29566 5.53605 1.50402C5.15406 1.68923 4.79812 1.89759 4.46821 2.1291C4.13831 2.36061 3.83445 2.62106 3.55664 2.91045C3.37143 3.08408 3.1978 3.26929 3.03574 3.46607C2.87368 3.66286 2.71742 3.87122 2.56693 4.09115V4.10851C2.24282 4.58311 1.97948 5.1069 1.7769 5.67989C1.57433 6.25288 1.43832 6.84034 1.36887 7.44227C1.33414 7.67378 1.31967 8.00657 1.32546 8.44065C1.33125 8.87474 1.3515 9.20753 1.38623 9.43904C1.44411 9.93679 1.54829 10.423 1.69877 10.8976C1.84925 11.3722 2.02867 11.8062 2.23703 12.1998C2.38751 12.466 2.57851 12.7554 2.81002 13.068C3.05311 13.3921 3.32224 13.722 3.61741 14.0577C3.91259 14.3934 4.22802 14.7233 4.56371 15.0474C4.8994 15.3831 5.23509 15.6898 5.57078 15.9676C5.92962 16.2686 6.37528 16.613 6.90775 17.0008C7.44023 17.3885 7.79907 17.6287 7.98428 17.7213C8.27367 17.8602 8.5891 17.9297 8.93058 17.9297C9.27205 17.9297 9.58749 17.8544 9.87688 17.704C10.0505 17.6114 10.3573 17.4088 10.7971 17.0962C11.237 16.7837 11.6364 16.4827 11.9952 16.1934C12.574 15.7303 13.1585 15.1892 13.7489 14.5699C14.3392 13.9506 14.8254 13.3689 15.2074 12.8249C15.5315 12.3619 15.8035 11.8468 16.0235 11.2796C16.2318 10.7123 16.3765 10.1249 16.4576 9.51718C16.5386 8.90946 16.5502 8.29307 16.4923 7.66799C16.446 7.05449 16.3302 6.45835 16.145 5.87957C15.9135 5.19661 15.5952 4.56575 15.19 3.98697C14.7849 3.4082 14.3161 2.89598 13.7836 2.45032C13.2511 2.00466 12.6608 1.64293 12.0126 1.36512C11.3643 1.07573 10.6814 0.884733 9.96369 0.792128H9.92897C9.75533 0.768978 9.44279 0.754507 8.99135 0.74872C8.5399 0.742931 8.24473 0.745827 8.10582 0.757402ZM9.52961 2.07701C10.3746 2.14646 11.1675 2.37797 11.9084 2.77154C12.6492 3.16511 13.2917 3.69758 13.8357 4.36896C14.1714 4.77411 14.4521 5.23423 14.6778 5.74934C14.9035 6.26446 15.0569 6.79982 15.1379 7.35545C15.1611 7.56381 15.1756 7.88214 15.1814 8.31043C15.1871 8.73872 15.1785 9.06284 15.1553 9.28277C15.0859 9.7921 14.973 10.2667 14.8167 10.7066C14.6605 11.1464 14.4608 11.5458 14.2177 11.9046C13.9167 12.3792 13.5 12.903 12.9675 13.476C12.4351 14.049 11.9026 14.5554 11.3701 14.9953C11.0807 15.2384 10.6872 15.5393 10.1894 15.8982C9.69167 16.257 9.37334 16.4712 9.23443 16.5406C9.18813 16.5638 9.13894 16.5811 9.08685 16.5927C9.03476 16.6043 8.97977 16.6101 8.9219 16.6101C8.88717 16.6101 8.85534 16.6101 8.8264 16.6101C8.79746 16.6101 8.76563 16.6043 8.7309 16.5927H8.74826C8.60936 16.558 8.24762 16.3294 7.66306 15.9069C7.07849 15.4844 6.56628 15.0821 6.12641 14.7001C5.69811 14.3297 5.24088 13.8783 4.75471 13.3458C4.26854 12.8133 3.89812 12.3445 3.64346 11.9394C3.40037 11.5805 3.1978 11.1754 3.03574 10.7239C2.87368 10.2725 2.75793 9.7921 2.68848 9.28277C2.66533 9.06284 2.65375 8.73872 2.65375 8.31043C2.65375 7.88214 2.67111 7.56381 2.70584 7.35545C2.78687 6.8114 2.93735 6.2905 3.15729 5.79275C3.36564 5.30658 3.63188 4.85803 3.956 4.4471C4.28011 4.03617 4.65053 3.66864 5.06725 3.34453C5.47239 3.02042 5.91805 2.75418 6.40422 2.54582L6.43895 2.52846C6.92512 2.33167 7.42576 2.19566 7.94087 2.12042C8.45598 2.04518 8.98556 2.03071 9.52961 2.07701ZM8.22736 4.52523C7.46338 4.64099 6.83541 4.94774 6.34345 5.44549C5.85149 5.94324 5.55342 6.5741 5.44924 7.33809C5.42609 7.44227 5.41162 7.55223 5.40583 7.66799C5.40004 7.78374 5.39715 7.8995 5.39715 8.01525C5.39715 8.11943 5.40004 8.22072 5.40583 8.31911C5.41162 8.4175 5.4203 8.513 5.43188 8.60561V8.58824C5.50133 9.21332 5.71258 9.76026 6.06564 10.2291C6.41869 10.6979 6.87303 11.0423 7.42865 11.2622C7.67174 11.3664 7.89457 11.4329 8.09714 11.4619C8.29971 11.4908 8.57463 11.5053 8.9219 11.5053C9.18813 11.5053 9.37334 11.5024 9.47752 11.4966C9.5817 11.4908 9.70324 11.4705 9.84215 11.4358C10.5714 11.2738 11.1618 10.941 11.6132 10.4374C12.0646 9.9339 12.3367 9.30014 12.4293 8.53615C12.4293 8.45512 12.4322 8.34516 12.438 8.20625C12.4437 8.06734 12.4466 7.93423 12.4466 7.80689C12.4351 7.48278 12.4003 7.20497 12.3425 6.97346C12.2846 6.74195 12.192 6.49886 12.0646 6.2442C11.8563 5.80433 11.5582 5.4397 11.1704 5.15031C10.7827 4.86092 10.3341 4.66414 9.82479 4.55996C9.65115 4.52523 9.38781 4.50208 9.03476 4.49051C8.6817 4.47893 8.41257 4.49051 8.22736 4.52523ZM9.52961 5.86221C10.0042 5.95481 10.3775 6.16028 10.6495 6.4786C10.9216 6.79693 11.0749 7.21075 11.1097 7.72008C11.1444 8.1368 11.1126 8.50432 11.0142 8.82265C10.9158 9.14097 10.7624 9.4101 10.554 9.63004C10.3804 9.7921 10.1865 9.91943 9.97237 10.012C9.75823 10.1046 9.50646 10.1625 9.21707 10.1857C8.76563 10.232 8.36048 10.1915 8.00164 10.0641C7.6428 9.93679 7.3592 9.74001 7.15084 9.47377C6.98878 9.25383 6.87303 9.00207 6.80357 8.71847C6.73412 8.43487 6.71097 8.10786 6.73412 7.73744C6.76885 7.22812 6.91933 6.8114 7.18557 6.48728C7.4518 6.16317 7.81643 5.95481 8.27945 5.86221C8.42994 5.82748 8.64119 5.81012 8.91321 5.81012C9.18524 5.81012 9.3907 5.82748 9.52961 5.86221Z" fill="#26231D"/>
</svg>
