<svg width="19" height="19" viewBox="0 0 19 19" fill="none" xmlns="http://www.w3.org/2000/svg">
<path d="M14.3871 2.74832C14.3523 2.74832 14.1845 2.79462 13.8835 2.88723C13.571 2.97983 13.16 3.10427 12.6507 3.26054C12.1414 3.41681 11.551 3.59333 10.8797 3.79012C10.1967 3.9869 9.47903 4.20105 8.72662 4.43256C5.78644 5.32387 4.06458 5.85345 3.56104 6.0213C3.05751 6.18914 2.69577 6.35409 2.47584 6.51615C2.2096 6.72451 1.98099 6.97049 1.78999 7.25409C1.59899 7.53769 1.46298 7.84734 1.38195 8.18303V8.20039C1.33565 8.39717 1.3125 8.63737 1.3125 8.92097C1.3125 9.20457 1.34144 9.44476 1.39932 9.64154C1.5035 10.0583 1.6916 10.4316 1.96362 10.7615C2.23565 11.0914 2.55687 11.3547 2.92729 11.5515H2.94465C3.00253 11.5862 3.07198 11.621 3.15301 11.6557C3.23404 11.6904 3.2977 11.7136 3.344 11.7251C3.41346 11.7483 3.45397 11.7657 3.46555 11.7772C3.47712 11.7888 3.48291 11.8062 3.48291 11.8293C3.47133 11.8525 3.45687 11.9017 3.4395 11.9769C3.42214 12.0521 3.40188 12.1361 3.37873 12.2287C3.35558 12.3444 3.33532 12.4689 3.31796 12.602C3.3006 12.7351 3.29191 12.8711 3.29191 13.01C3.29191 13.1258 3.2977 13.2357 3.30928 13.3399C3.32085 13.4441 3.33822 13.5541 3.36137 13.6698V13.6351C3.51185 14.4222 3.87358 15.0878 4.44657 15.6319C5.01956 16.1759 5.71699 16.5116 6.53885 16.6389C6.71248 16.6737 6.9411 16.6881 7.2247 16.6824C7.5083 16.6766 7.73691 16.6563 7.91055 16.6216C8.55878 16.4711 9.12887 16.1904 9.62083 15.7795C10.1128 15.3685 10.4745 14.8679 10.706 14.2775C10.7408 14.1965 10.7697 14.13 10.7929 14.0779C10.816 14.0258 10.8276 13.9997 10.8276 13.9997C10.8276 13.9997 10.9954 14.0489 11.3311 14.1473C11.6668 14.2457 12.0719 14.3644 12.5465 14.5033C13.0211 14.6422 13.4436 14.7666 13.8141 14.8766C14.1845 14.9865 14.3928 15.0473 14.4391 15.0589C14.5665 15.082 14.7198 15.0878 14.8993 15.0762C15.0787 15.0647 15.2205 15.0415 15.3247 15.0068C15.915 14.7869 16.4041 14.2689 16.7919 13.4528C17.1796 12.6367 17.4314 11.5747 17.5472 10.2666C17.5935 9.82675 17.6108 9.29717 17.5993 8.67788C17.5877 8.05859 17.5587 7.51744 17.5124 7.05441C17.443 6.53352 17.3388 6.01551 17.1999 5.5004C17.061 4.98529 16.9047 4.5541 16.7311 4.20684C16.6038 3.95217 16.4475 3.71488 16.2623 3.49494C16.0771 3.27501 15.8977 3.10716 15.724 2.99141C15.5735 2.8988 15.4317 2.82935 15.2986 2.78305C15.1655 2.73674 15.0179 2.71359 14.8559 2.71359C14.8443 2.71359 14.8298 2.71359 14.8125 2.71359C14.7951 2.71359 14.7748 2.71359 14.7517 2.71359C14.6938 2.71359 14.6301 2.71649 14.5607 2.72227C14.4912 2.72806 14.4276 2.73674 14.3697 2.74832H14.3871ZM14.9774 4.08529C15.1973 4.2242 15.4086 4.51359 15.6112 4.95346C15.8137 5.39333 15.9729 5.9258 16.0887 6.55088C16.1581 6.95602 16.2102 7.38432 16.2449 7.83576C16.2796 8.29878 16.2912 8.75891 16.2796 9.21614C16.2681 9.67338 16.2391 10.1161 16.1928 10.5444C16.135 10.9843 16.0655 11.3894 15.9845 11.7599C15.8571 12.2345 15.7096 12.6425 15.5417 12.984C15.3739 13.3255 15.1973 13.5599 15.0121 13.6872C14.9658 13.7103 14.9253 13.7306 14.8906 13.748C14.8559 13.7653 14.8153 13.7682 14.769 13.7566C14.7343 13.7566 14.5317 13.7046 14.1613 13.6004C13.7909 13.4962 13.3626 13.3689 12.8764 13.2184C12.3787 13.0679 11.7334 12.874 10.9404 12.6367C10.1475 12.3994 9.4443 12.1882 8.8308 12.0029C8.20572 11.8177 7.57486 11.6296 6.9382 11.4386C6.30155 11.2476 5.8501 11.1116 5.58387 11.0306C5.30605 10.938 5.03982 10.8541 4.78516 10.7788C4.53049 10.7036 4.35107 10.6544 4.24689 10.6312C3.99223 10.5502 3.80992 10.4866 3.69995 10.4403C3.58998 10.394 3.47712 10.3361 3.36137 10.2666C3.14143 10.1161 2.96491 9.92514 2.83179 9.69363C2.69867 9.46212 2.63211 9.20167 2.63211 8.91228C2.63211 8.91228 2.63211 8.90939 2.63211 8.9036C2.63211 8.89782 2.63211 8.89492 2.63211 8.89492C2.63211 8.54766 2.7334 8.23222 2.93597 7.94862C3.13854 7.66502 3.41346 7.45956 3.76072 7.33223C3.79545 7.32065 4.38001 7.14123 5.51441 6.79396C6.63724 6.4467 7.87582 6.07049 9.23016 5.66535C10.5845 5.26021 11.8231 4.88979 12.9459 4.5541C14.0803 4.20684 14.6649 4.0332 14.6996 4.0332C14.7575 4.01005 14.798 4.00426 14.8211 4.01584C14.8443 4.02742 14.8964 4.05057 14.9774 4.08529ZM7.18129 12.8885C7.81794 13.0853 8.36778 13.256 8.8308 13.4007C9.29382 13.5454 9.52533 13.6177 9.52533 13.6177C9.53691 13.6409 9.51665 13.7161 9.46456 13.8435C9.41247 13.9708 9.35749 14.0865 9.29961 14.1907C9.23016 14.3065 9.1173 14.4425 8.96103 14.5988C8.80476 14.755 8.65717 14.8737 8.51826 14.9547C8.3099 15.0936 8.09576 15.1949 7.87582 15.2586C7.65589 15.3222 7.40122 15.3541 7.11184 15.3541C6.83402 15.3541 6.58515 15.3222 6.36521 15.2586C6.14528 15.1949 5.93692 15.0994 5.74014 14.9721C5.39287 14.7521 5.12663 14.4888 4.94143 14.182C4.75622 13.8753 4.65204 13.5425 4.62889 13.1837C4.61731 12.9984 4.63178 12.7843 4.6723 12.5412C4.71281 12.2981 4.75622 12.1766 4.80252 12.1766C4.8141 12.1766 5.05139 12.246 5.51441 12.3849C5.97744 12.5238 6.53306 12.6917 7.18129 12.8885Z" fill="#595959"/>
</svg>
