<svg width="17" height="16" viewBox="0 0 17 16" fill="none" xmlns="http://www.w3.org/2000/svg">
<g clip-path="url(#clip0_1_642)">
<path d="M2.68995 0.533298C3.08106 0.142187 3.53439 -0.0355911 4.04995 -3.52859e-05C4.5655 0.0355206 4.98328 0.266631 5.30328 0.693298L7.11661 2.98663C7.29439 3.19996 7.40995 3.43996 7.46328 3.70663C7.51661 3.9733 7.50772 4.23108 7.43661 4.47996L6.90328 6.66663C6.83217 6.91552 6.8855 7.12885 7.06328 7.30663L9.51661 9.75996C9.69439 9.93774 9.90772 9.99107 10.1566 9.91996L12.3433 9.38663C12.5922 9.31552 12.8499 9.30663 13.1166 9.35996C13.3833 9.4133 13.6233 9.52885 13.8366 9.70663L16.1299 11.52C16.5566 11.84 16.7877 12.2577 16.8233 12.7733C16.8588 13.2889 16.6811 13.7422 16.2899 14.1333L15.2766 15.1466C14.8855 15.5377 14.4322 15.7955 13.9166 15.92C13.4011 16.0444 12.8944 16.0177 12.3966 15.84C9.72995 14.9155 7.39217 13.4489 5.38328 11.44C3.37439 9.43107 1.90772 7.0933 0.983279 4.42663C0.805501 3.92885 0.778834 3.42219 0.903279 2.90663C1.02772 2.39108 1.2855 1.93774 1.67661 1.54663L2.68995 0.533298Z" fill="#F9F9F9"/>
</g>
<defs>
<clipPath id="clip0_1_642">
<rect width="16" height="16" fill="white" transform="matrix(1 0 0 -1 0.90332 16)"/>
</clipPath>
</defs>
</svg>
