<svg width="33" height="28" viewBox="0 0 33 28" fill="none" xmlns="http://www.w3.org/2000/svg">
<g clip-path="url(#clip0_3_1188)">
<path d="M3.8316 17.3633C3.77622 17.3086 3.70699 17.2676 3.62392 17.2402C3.54085 17.2129 3.46239 17.1992 3.38855 17.1992C3.29625 17.1992 3.21317 17.2129 3.13933 17.2402C3.06549 17.2676 3.00088 17.3086 2.9455 17.3633C2.89012 17.418 2.84858 17.4863 2.82089 17.5684C2.7932 17.6504 2.77936 17.7279 2.77936 17.8008C2.77936 17.8919 2.7932 17.974 2.82089 18.0469C2.84858 18.1198 2.89012 18.1836 2.9455 18.2383C3.00088 18.293 3.06549 18.334 3.13933 18.3613C3.21317 18.3887 3.29625 18.4023 3.38855 18.4023C3.46239 18.4023 3.54085 18.3887 3.62392 18.3613C3.70699 18.334 3.77622 18.293 3.8316 18.2383C3.88698 18.1836 3.92851 18.1198 3.9562 18.0469C3.9839 17.974 3.99774 17.8919 3.99774 17.8008C4.03466 17.7279 4.03928 17.6504 4.01159 17.5684C3.9839 17.4863 3.9239 17.418 3.8316 17.3633ZM32.9621 19.5234C32.9067 19.3594 32.8052 19.2272 32.6575 19.127C32.5098 19.0267 32.3529 19.0039 32.1867 19.0586L27.8393 20.2344L25.098 10.1445L29.4454 8.99609C29.6115 8.94141 29.7407 8.83659 29.833 8.68164C29.9254 8.52669 29.9438 8.36719 29.8884 8.20312C29.833 8.03906 29.7315 7.91146 29.5838 7.82031C29.4362 7.72917 29.2792 7.71094 29.1131 7.76562L24.1565 9.10547C24.0457 9.1237 23.9488 9.16927 23.8657 9.24219C23.7827 9.3151 23.7319 9.39713 23.7134 9.48828L22.4674 8.77734C22.1166 8.54037 21.7197 8.4082 21.2767 8.38086C20.8336 8.35352 20.4183 8.40365 20.0306 8.53125L18.7845 8.94141C18.3968 9.06901 18.0276 9.25586 17.6769 9.50195C17.3261 9.74805 17.0308 10.0352 16.7908 10.3633L14.9909 9.37891C14.6402 9.16016 14.2571 9.03255 13.8417 8.99609C13.4264 8.95963 13.0156 9.01432 12.6095 9.16016L9.14819 10.3633L9.25895 9.92578C9.31433 9.76172 9.29587 9.60677 9.20357 9.46094C9.11127 9.3151 8.97281 9.21484 8.78821 9.16016L3.88698 7.76562C3.72083 7.71094 3.56392 7.72917 3.41624 7.82031C3.26856 7.91146 3.16702 8.03906 3.11164 8.20312C3.05626 8.36719 3.07472 8.52669 3.16702 8.68164C3.25933 8.83659 3.38855 8.94141 3.55469 8.99609L7.90211 10.1445L7.62521 11.1836L5.16074 20.2344L0.813324 19.0586C0.647181 19.0039 0.490267 19.0267 0.342584 19.127C0.194901 19.2272 0.093369 19.3594 0.0379878 19.5234C-0.0173933 19.6875 0.00106707 19.8424 0.093369 19.9883C0.185671 20.1341 0.314894 20.2344 0.481037 20.2891L5.46534 21.6016C5.4838 21.6016 5.50688 21.6016 5.53457 21.6016C5.56226 21.6016 5.59456 21.6016 5.63148 21.6016C5.74225 21.6016 5.83916 21.5788 5.92224 21.5332C6.00531 21.4876 6.07453 21.4193 6.12992 21.3281L8.40054 21.9297C8.34516 22.2943 8.40977 22.6497 8.59438 22.9961C8.77898 23.3424 9.03743 23.6159 9.36971 23.8164C9.49894 23.8893 9.64662 23.9531 9.81276 24.0078C9.97891 24.0625 10.145 24.0898 10.3112 24.0898C10.3666 24.0898 10.4312 24.0853 10.505 24.0762C10.5789 24.0671 10.6435 24.0534 10.6989 24.0352C10.7912 24.2539 10.9065 24.4544 11.045 24.6367C11.1834 24.819 11.3634 24.9648 11.585 25.0742C11.7326 25.1654 11.8849 25.2337 12.0419 25.2793C12.1988 25.3249 12.3695 25.3477 12.5541 25.3477C12.6095 25.3477 12.6741 25.3477 12.748 25.3477C12.8218 25.3477 12.8864 25.3294 12.9418 25.293C13.0156 25.5117 13.1264 25.7122 13.2741 25.8945C13.4218 26.0768 13.6064 26.2318 13.8279 26.3594C13.9571 26.4323 14.1048 26.4961 14.2709 26.5508C14.4371 26.6055 14.6032 26.6328 14.7694 26.6328C14.8248 26.6328 14.8894 26.6283 14.9632 26.6191C15.0371 26.61 15.1017 26.5964 15.157 26.5781C15.2493 26.7969 15.3647 26.9974 15.5032 27.1797C15.6416 27.362 15.8308 27.5078 16.0708 27.6172C16.2001 27.6901 16.3477 27.7539 16.5139 27.8086C16.68 27.8633 16.8462 27.8906 17.0123 27.8906C17.2892 27.8906 17.5523 27.8359 17.8015 27.7266C18.0507 27.6172 18.2676 27.4531 18.4522 27.2344L18.5076 27.2891C18.6553 27.362 18.8076 27.4258 18.9645 27.4805C19.1214 27.5352 19.2829 27.5625 19.4491 27.5625C19.7998 27.5625 20.1275 27.4805 20.4321 27.3164C20.7367 27.1523 20.9721 26.9245 21.1382 26.6328C21.249 26.4141 21.3274 26.1908 21.3736 25.9629C21.4197 25.735 21.4151 25.5117 21.3597 25.293C21.5813 25.2201 21.7843 25.1107 21.9689 24.9648C22.1535 24.819 22.3012 24.6367 22.412 24.418C22.5227 24.2174 22.6012 24.0033 22.6473 23.7754C22.6935 23.5475 22.6889 23.3242 22.6335 23.1055C22.6889 23.069 22.7443 23.0462 22.7996 23.0371C22.855 23.028 22.9104 23.0143 22.9658 22.9961L26.8978 21.4375C26.9532 21.4922 27.0178 21.5332 27.0917 21.5605C27.1655 21.5879 27.2486 21.6016 27.3409 21.6016C27.3594 21.6016 27.3824 21.6016 27.4101 21.6016C27.4378 21.6016 27.4701 21.6016 27.507 21.6016L32.4637 20.2891C32.6667 20.2526 32.8098 20.1569 32.8929 20.002C32.9759 19.847 32.999 19.6875 32.9621 19.5234ZM11.6957 21.2188L10.9204 22.5312C10.8465 22.7135 10.7219 22.8184 10.5466 22.8457C10.3712 22.873 10.2004 22.8503 10.0343 22.7773C9.86814 22.6862 9.76661 22.554 9.72969 22.3809C9.69277 22.2077 9.72046 22.0391 9.81276 21.875L10.5881 20.5625C10.6435 20.4531 10.7219 20.3711 10.8235 20.3164C10.925 20.2617 11.0311 20.2344 11.1419 20.2344C11.1973 20.2344 11.2527 20.2389 11.3081 20.248C11.3634 20.2572 11.4188 20.2891 11.4742 20.3438C11.5665 20.3984 11.6357 20.4531 11.6819 20.5078C11.728 20.5625 11.7511 20.6354 11.7511 20.7266C11.788 20.8359 11.7973 20.9316 11.7788 21.0137C11.7603 21.0957 11.7326 21.1641 11.6957 21.2188ZM13.9387 22.4766L13.1633 23.8164C13.1079 23.8893 13.0479 23.9531 12.9833 24.0078C12.9187 24.0625 12.8495 24.0898 12.7757 24.0898C12.6834 24.1081 12.5957 24.1081 12.5126 24.0898C12.4295 24.0716 12.3418 24.0534 12.2495 24.0352C12.1757 23.9805 12.1111 23.9212 12.0557 23.8574C12.0003 23.7936 11.9726 23.7253 11.9726 23.6523C11.9542 23.5612 11.9542 23.4746 11.9726 23.3926C11.9911 23.3105 12.0095 23.2331 12.028 23.1602L12.831 21.8203C12.8864 21.7109 12.9649 21.6289 13.0664 21.5742C13.1679 21.5195 13.2741 21.4922 13.3848 21.4922C13.4402 21.4922 13.4956 21.4967 13.551 21.5059C13.6064 21.515 13.6618 21.5469 13.7171 21.6016C13.791 21.6562 13.8556 21.7155 13.911 21.7793C13.9663 21.8431 13.994 21.9115 13.994 21.9844C14.0125 22.0938 14.0125 22.1895 13.994 22.2715C13.9756 22.3535 13.9571 22.4219 13.9387 22.4766ZM16.1816 23.8164L15.3786 25.1289C15.3047 25.293 15.1801 25.3932 15.0047 25.4297C14.8294 25.4661 14.6586 25.4388 14.4925 25.3477C14.3263 25.2747 14.2248 25.1517 14.1879 24.9785C14.151 24.8053 14.1786 24.6367 14.2709 24.4727L15.0463 23.1602C15.1017 23.069 15.1617 23.0007 15.2263 22.9551C15.2909 22.9095 15.3601 22.8867 15.4339 22.8867C15.4709 22.8867 15.5032 22.8867 15.5309 22.8867C15.5586 22.8867 15.5816 22.8867 15.6001 22.8867C15.6555 22.8867 15.7109 22.8958 15.7662 22.9141C15.8216 22.9323 15.8862 22.9596 15.9601 22.9961C16.0339 23.0508 16.0985 23.1055 16.1539 23.1602C16.2093 23.2148 16.237 23.2878 16.237 23.3789C16.2554 23.4336 16.2554 23.4974 16.237 23.5703C16.2185 23.6432 16.2001 23.7253 16.1816 23.8164ZM18.3968 25.0742L17.6215 26.4141C17.5292 26.5781 17.4 26.6738 17.2338 26.7012C17.0677 26.7285 16.9016 26.7057 16.7354 26.6328C16.5693 26.5417 16.4677 26.4095 16.4308 26.2363C16.3939 26.0632 16.4216 25.8945 16.5139 25.7305L17.2892 24.418C17.3446 24.3086 17.4231 24.2266 17.5246 24.1719C17.6261 24.1172 17.7323 24.0898 17.843 24.0898C17.8984 24.0898 17.9538 24.0944 18.0092 24.1035C18.0646 24.1126 18.1199 24.1445 18.1753 24.1992C18.323 24.2721 18.4199 24.3952 18.4661 24.5684C18.5122 24.7415 18.4891 24.9102 18.3968 25.0742ZM20.086 26.0039C19.9937 26.1862 19.8598 26.3001 19.6845 26.3457C19.5091 26.3913 19.3383 26.3503 19.1722 26.2227H19.1168L19.4491 25.6758C19.5229 25.6029 19.5737 25.5117 19.6014 25.4023C19.6291 25.293 19.6614 25.1836 19.6983 25.0742L19.8091 25.1289C19.9752 25.2383 20.0814 25.3796 20.1275 25.5527C20.1737 25.7259 20.1598 25.8763 20.086 26.0039ZM24.0457 21.2188C24.0457 21.1641 24.0411 21.1094 24.0319 21.0547C24.0226 21 24.0088 20.9453 23.9903 20.8906C24.2119 20.7995 24.4149 20.6855 24.5995 20.5488C24.7841 20.4121 24.9318 20.2344 25.0426 20.0156C25.3195 19.5417 25.3887 19.054 25.2503 18.5527C25.1118 18.0514 24.8026 17.6732 24.3226 17.418L21.692 15.9414C21.5259 15.8503 21.3551 15.8275 21.1797 15.873C21.0044 15.9186 20.8798 16.0143 20.8059 16.1602C20.7136 16.3242 20.6905 16.4883 20.7367 16.6523C20.7828 16.8164 20.8798 16.944 21.0274 17.0352L23.6581 18.5117C23.8242 18.6029 23.9211 18.7305 23.9488 18.8945C23.9765 19.0586 23.9534 19.2318 23.8796 19.4141C23.7873 19.5781 23.6581 19.6738 23.4919 19.7012C23.3258 19.7285 23.1504 19.7057 22.9658 19.6328L20.3629 18.1289C20.1967 18.056 20.026 18.0423 19.8506 18.0879C19.6752 18.1335 19.5414 18.2201 19.4491 18.3477C19.3752 18.5117 19.3614 18.6803 19.4075 18.8535C19.4537 19.0267 19.5506 19.1497 19.6983 19.2227L22.3012 20.7266C22.3935 20.7812 22.4627 20.8359 22.5089 20.8906C22.555 20.9453 22.5781 21.0182 22.5781 21.1094C22.5781 21.2005 22.5781 21.2871 22.5781 21.3691C22.5781 21.4512 22.5597 21.5286 22.5227 21.6016C22.5043 21.6562 22.4766 21.7018 22.4397 21.7383C22.4027 21.7747 22.3566 21.8021 22.3012 21.8203C22.2828 21.8203 22.2689 21.8294 22.2597 21.8477C22.2504 21.8659 22.2274 21.875 22.1905 21.875C22.1166 21.9115 22.0289 21.9251 21.9274 21.916C21.8259 21.9069 21.7289 21.875 21.6366 21.8203L19.006 20.3438C18.8399 20.2526 18.6737 20.2298 18.5076 20.2754C18.3415 20.321 18.2122 20.4167 18.1199 20.5625C18.0461 20.7266 18.0322 20.8952 18.0784 21.0684C18.1245 21.2415 18.2122 21.3646 18.3415 21.4375L20.9721 22.9414C21.1382 23.0143 21.2397 23.1374 21.2767 23.3105C21.3136 23.4837 21.2859 23.6523 21.1936 23.8164C21.1382 23.8893 21.0782 23.9531 21.0136 24.0078C20.949 24.0625 20.8798 24.0898 20.8059 24.0898C20.7136 24.1081 20.6259 24.1081 20.5429 24.0898C20.4598 24.0716 20.3813 24.0534 20.3075 24.0352L18.6184 23.0508C18.3968 22.9414 18.1753 22.8594 17.9538 22.8047C17.7323 22.75 17.5107 22.7591 17.2892 22.832C17.1969 22.5951 17.0815 22.3854 16.9431 22.2031C16.8046 22.0208 16.6246 21.875 16.4031 21.7656C16.2001 21.6562 15.9785 21.5788 15.7385 21.5332C15.4986 21.4876 15.2678 21.4922 15.0463 21.5469C14.9724 21.3281 14.8617 21.1276 14.714 20.9453C14.5663 20.763 14.3817 20.6172 14.1602 20.5078C13.9387 20.3984 13.7171 20.321 13.4956 20.2754C13.2741 20.2298 13.0526 20.2344 12.831 20.2891C12.7387 20.0703 12.6187 19.8698 12.4711 19.6875C12.3234 19.5052 12.1388 19.3503 11.9172 19.2227C11.4557 18.9492 10.9665 18.8854 10.4496 19.0312C9.93275 19.1771 9.55432 19.487 9.31433 19.9609L8.92666 20.8359L6.4622 20.1797L8.73283 11.7852L13.0526 10.3086C13.2741 10.2174 13.491 10.1855 13.7033 10.2129C13.9156 10.2402 14.1233 10.3086 14.3263 10.418L16.0155 11.4023L14.714 13.5078C14.474 13.9271 14.3817 14.3691 14.4371 14.834C14.4925 15.2988 14.6955 15.7044 15.0463 16.0508C15.2493 16.2331 15.4801 16.3789 15.7385 16.4883C15.997 16.5977 16.2554 16.6523 16.5139 16.6523C16.7908 16.6523 17.0492 16.5977 17.2892 16.4883C17.5292 16.3789 17.7507 16.2331 17.9538 16.0508L21.1936 12.8516C21.3413 12.7422 21.4151 12.5918 21.4151 12.4004C21.4151 12.209 21.3413 12.0586 21.1936 11.9492C21.0828 11.8216 20.9351 11.7578 20.7505 11.7578C20.5659 11.7578 20.4183 11.8216 20.3075 11.9492L17.0677 15.1484C16.9016 15.3125 16.7077 15.3945 16.4862 15.3945C16.2647 15.3945 16.0893 15.3125 15.9601 15.1484C15.8124 15.0208 15.7247 14.8659 15.697 14.6836C15.6693 14.5013 15.7109 14.3281 15.8216 14.1641L17.6215 11.3477C17.8246 11.056 18.0599 10.8099 18.3276 10.6094C18.5953 10.4089 18.8768 10.2539 19.1722 10.1445L20.4183 9.76172C20.6398 9.67057 20.8798 9.63867 21.1382 9.66602C21.3967 9.69336 21.6366 9.76172 21.8582 9.87109L24.0457 11.0742L26.4825 20.2344L24.0457 21.2188ZM29.9992 17.3633C29.9438 17.3086 29.8792 17.2676 29.8054 17.2402C29.7315 17.2129 29.6484 17.1992 29.5561 17.1992C29.4823 17.1992 29.4038 17.2129 29.3208 17.2402C29.2377 17.2676 29.1685 17.3086 29.1131 17.3633C29.0577 17.418 29.0162 17.4863 28.9885 17.5684C28.9608 17.6504 28.947 17.7279 28.947 17.8008C28.947 17.8919 28.9608 17.974 28.9885 18.0469C29.0162 18.1198 29.0577 18.1836 29.1131 18.2383C29.1685 18.293 29.2377 18.334 29.3208 18.3613C29.4038 18.3887 29.4823 18.4023 29.5561 18.4023C29.6484 18.4023 29.7315 18.3887 29.8054 18.3613C29.8792 18.334 29.9438 18.293 29.9992 18.2383C30.0546 18.1836 30.1007 18.1198 30.1376 18.0469C30.1746 17.974 30.193 17.8919 30.193 17.8008C30.2115 17.7279 30.1976 17.6504 30.1515 17.5684C30.1053 17.4863 30.0546 17.418 29.9992 17.3633ZM16.5139 2.26953C16.3477 2.26953 16.1908 2.32878 16.0431 2.44727C15.8955 2.56576 15.8216 2.72526 15.8216 2.92578V5.96094C15.8216 6.125 15.8862 6.27539 16.0155 6.41211C16.1447 6.54883 16.3108 6.61719 16.5139 6.61719C16.68 6.61719 16.8323 6.55338 16.9708 6.42578C17.1092 6.29818 17.1785 6.14323 17.1785 5.96094V2.92578C17.1415 2.72526 17.0631 2.56576 16.9431 2.44727C16.8231 2.32878 16.68 2.26953 16.5139 2.26953ZM16.9569 0.164062C16.9016 0.109375 16.8323 0.0683594 16.7493 0.0410156C16.6662 0.0136719 16.5877 0 16.5139 0C16.4216 0 16.3385 0.0136719 16.2647 0.0410156C16.1908 0.0683594 16.1262 0.109375 16.0708 0.164062C16.0155 0.21875 15.9693 0.287109 15.9324 0.369141C15.8955 0.451172 15.877 0.528646 15.877 0.601562C15.877 0.692709 15.8955 0.77474 15.9324 0.847656C15.9693 0.920572 16.0155 0.984375 16.0708 1.03906C16.1262 1.09375 16.1908 1.13477 16.2647 1.16211C16.3385 1.18945 16.4216 1.20312 16.5139 1.20312C16.5877 1.20312 16.6662 1.18945 16.7493 1.16211C16.8323 1.13477 16.9016 1.09375 16.9569 1.03906C17.0123 0.984375 17.0538 0.920572 17.0815 0.847656C17.1092 0.77474 17.1231 0.692709 17.1231 0.601562C17.1231 0.546875 17.1092 0.483072 17.0815 0.410156C17.0538 0.33724 17.0123 0.255209 16.9569 0.164062ZM11.9726 5.63281L10.865 3.69141C10.7912 3.52734 10.6666 3.42708 10.4912 3.39062C10.3158 3.35417 10.145 3.38151 9.97891 3.47266C9.81276 3.5638 9.71123 3.69141 9.67431 3.85547C9.63739 4.01953 9.66508 4.18359 9.75738 4.34766L10.865 6.28906C10.9204 6.39844 10.9988 6.48047 11.1004 6.53516C11.2019 6.58984 11.3081 6.61719 11.4188 6.61719C11.4742 6.61719 11.5296 6.61263 11.585 6.60352C11.6403 6.5944 11.6957 6.5625 11.7511 6.50781C11.8988 6.39844 11.9957 6.25716 12.0419 6.08398C12.088 5.91081 12.0649 5.76042 11.9726 5.63281ZM22.9658 3.47266C22.8366 3.38151 22.6889 3.35417 22.5227 3.39062C22.3566 3.42708 22.2274 3.52734 22.1351 3.69141L21.0274 5.63281C20.9351 5.79688 20.9121 5.96094 20.9582 6.125C21.0044 6.28906 21.1013 6.41667 21.249 6.50781C21.3044 6.52604 21.3597 6.54883 21.4151 6.57617C21.4705 6.60352 21.5259 6.61719 21.5813 6.61719C21.692 6.61719 21.7982 6.58984 21.8997 6.53516C22.0012 6.48047 22.0797 6.39844 22.1351 6.28906L23.2704 4.34766C23.3442 4.18359 23.3581 4.01953 23.3119 3.85547C23.2658 3.69141 23.1504 3.5638 22.9658 3.47266Z" fill="#A19060"/>
</g>
<defs>
<clipPath id="clip0_3_1188">
<rect width="33" height="28" fill="white" transform="matrix(1 0 0 -1 0 28)"/>
</clipPath>
</defs>
</svg>
