<svg width="16" height="16" viewBox="0 0 16 16" fill="none" xmlns="http://www.w3.org/2000/svg">
<mask id="path-1-inside-1_1_1068" fill="white">
<path d="M11.5599 3.64004C11.4017 3.64004 11.247 3.68696 11.1155 3.77487C10.9839 3.86277 10.8814 3.98771 10.8208 4.13389C10.7603 4.28007 10.7444 4.44093 10.7753 4.59611C10.8062 4.7513 10.8824 4.89384 10.9942 5.00573C11.1061 5.11761 11.2487 5.1938 11.4038 5.22467C11.559 5.25554 11.7199 5.23969 11.8661 5.17914C12.0122 5.11859 12.1372 5.01606 12.2251 4.8845C12.313 4.75294 12.3599 4.59827 12.3599 4.44004C12.3599 4.22787 12.2756 4.02438 12.1256 3.87436C11.9756 3.72433 11.7721 3.64004 11.5599 3.64004ZM14.6266 5.25337C14.6136 4.70024 14.51 4.15298 14.3199 3.63337C14.1504 3.1888 13.8866 2.78623 13.5466 2.45337C13.2165 2.11166 12.813 1.84949 12.3666 1.68671C11.8484 1.49081 11.3005 1.38485 10.7466 1.37337C10.0399 1.33337 9.81325 1.33337 7.99992 1.33337C6.18659 1.33337 5.95992 1.33337 5.25325 1.37337C4.69935 1.38485 4.15148 1.49081 3.63325 1.68671C3.1877 1.85114 2.78454 2.11308 2.45325 2.45337C2.11154 2.78349 1.84937 3.187 1.68659 3.63337C1.49069 4.1516 1.38473 4.69948 1.37325 5.25337C1.33325 5.96004 1.33325 6.18671 1.33325 8.00004C1.33325 9.81337 1.33325 10.04 1.37325 10.7467C1.38473 11.3006 1.49069 11.8485 1.68659 12.3667C1.84937 12.8131 2.11154 13.2166 2.45325 13.5467C2.78454 13.887 3.1877 14.1489 3.63325 14.3134C4.15148 14.5093 4.69935 14.6152 5.25325 14.6267C5.95992 14.6667 6.18659 14.6667 7.99992 14.6667C9.81325 14.6667 10.0399 14.6667 10.7466 14.6267C11.3005 14.6152 11.8484 14.5093 12.3666 14.3134C12.813 14.1506 13.2165 13.8884 13.5466 13.5467C13.8881 13.2151 14.1521 12.8122 14.3199 12.3667C14.51 11.8471 14.6136 11.2998 14.6266 10.7467C14.6266 10.04 14.6666 9.81337 14.6666 8.00004C14.6666 6.18671 14.6666 5.96004 14.6266 5.25337ZM13.4266 10.6667C13.4217 11.0899 13.3451 11.5092 13.1999 11.9067C13.0935 12.1968 12.9225 12.459 12.6999 12.6734C12.4837 12.8937 12.2221 13.0643 11.9333 13.1734C11.5357 13.3185 11.1164 13.3952 10.6933 13.4C10.0266 13.4334 9.77992 13.44 8.02659 13.44C6.27325 13.44 6.02659 13.44 5.35992 13.4C4.92051 13.4083 4.48298 13.3406 4.06659 13.2C3.79044 13.0854 3.54082 12.9152 3.33325 12.7C3.11198 12.4859 2.94315 12.2235 2.83992 11.9334C2.67716 11.5301 2.58688 11.1013 2.57325 10.6667C2.57325 10 2.53325 9.75337 2.53325 8.00004C2.53325 6.24671 2.53325 6.00004 2.57325 5.33337C2.57624 4.90074 2.65522 4.472 2.80659 4.06671C2.92395 3.78531 3.1041 3.53448 3.33325 3.33337C3.53579 3.10415 3.78611 2.9221 4.06659 2.80004C4.47295 2.6534 4.90125 2.57676 5.33325 2.57337C5.99992 2.57337 6.24659 2.53337 7.99992 2.53337C9.75325 2.53337 9.99992 2.53337 10.6666 2.57337C11.0898 2.57823 11.5091 2.65487 11.9066 2.80004C12.2095 2.91248 12.4814 3.09527 12.6999 3.33337C12.9184 3.53816 13.0891 3.78853 13.1999 4.06671C13.3481 4.47266 13.4248 4.90123 13.4266 5.33337C13.4599 6.00004 13.4666 6.24671 13.4666 8.00004C13.4666 9.75337 13.4599 10 13.4266 10.6667ZM7.99992 4.58004C7.32379 4.58136 6.66323 4.78306 6.10169 5.15965C5.54015 5.53625 5.10284 6.07084 4.84501 6.69588C4.58718 7.32091 4.5204 8.00835 4.65311 8.67133C4.78583 9.3343 5.11208 9.94306 5.59064 10.4207C6.0692 10.8983 6.67859 11.2234 7.34183 11.3548C8.00506 11.4862 8.69236 11.4181 9.3169 11.1591C9.94143 10.9 10.4752 10.4617 10.8507 9.8994C11.2262 9.33713 11.4266 8.67617 11.4266 8.00004C11.4275 7.55011 11.3394 7.10444 11.1674 6.68868C10.9954 6.27291 10.743 5.89525 10.4245 5.57741C10.106 5.25957 9.72789 5.00783 9.31178 4.83666C8.89568 4.66549 8.44985 4.57828 7.99992 4.58004ZM7.99992 10.22C7.56084 10.22 7.13163 10.0898 6.76655 9.8459C6.40148 9.60197 6.11693 9.25525 5.94891 8.8496C5.78088 8.44395 5.73692 7.99758 5.82258 7.56694C5.90823 7.1363 6.11967 6.74074 6.43014 6.43026C6.74061 6.11979 7.13618 5.90836 7.56682 5.8227C7.99746 5.73704 8.44382 5.781 8.84948 5.94903C9.25513 6.11705 9.60184 6.4016 9.84578 6.76667C10.0897 7.13175 10.2199 7.56097 10.2199 8.00004C10.2199 8.29158 10.1625 8.58026 10.0509 8.8496C9.93937 9.11894 9.77584 9.36367 9.5697 9.56982C9.36355 9.77596 9.11882 9.93949 8.84948 10.0511C8.58013 10.1626 8.29145 10.22 7.99992 10.22Z"/>
</mask>
<path d="M11.5599 3.64004C11.4017 3.64004 11.247 3.68696 11.1155 3.77487C10.9839 3.86277 10.8814 3.98771 10.8208 4.13389C10.7603 4.28007 10.7444 4.44093 10.7753 4.59611C10.8062 4.7513 10.8824 4.89384 10.9942 5.00573C11.1061 5.11761 11.2487 5.1938 11.4038 5.22467C11.559 5.25554 11.7199 5.23969 11.8661 5.17914C12.0122 5.11859 12.1372 5.01606 12.2251 4.8845C12.313 4.75294 12.3599 4.59827 12.3599 4.44004C12.3599 4.22787 12.2756 4.02438 12.1256 3.87436C11.9756 3.72433 11.7721 3.64004 11.5599 3.64004ZM14.6266 5.25337C14.6136 4.70024 14.51 4.15298 14.3199 3.63337C14.1504 3.1888 13.8866 2.78623 13.5466 2.45337C13.2165 2.11166 12.813 1.84949 12.3666 1.68671C11.8484 1.49081 11.3005 1.38485 10.7466 1.37337C10.0399 1.33337 9.81325 1.33337 7.99992 1.33337C6.18659 1.33337 5.95992 1.33337 5.25325 1.37337C4.69935 1.38485 4.15148 1.49081 3.63325 1.68671C3.1877 1.85114 2.78454 2.11308 2.45325 2.45337C2.11154 2.78349 1.84937 3.187 1.68659 3.63337C1.49069 4.1516 1.38473 4.69948 1.37325 5.25337C1.33325 5.96004 1.33325 6.18671 1.33325 8.00004C1.33325 9.81337 1.33325 10.04 1.37325 10.7467C1.38473 11.3006 1.49069 11.8485 1.68659 12.3667C1.84937 12.8131 2.11154 13.2166 2.45325 13.5467C2.78454 13.887 3.1877 14.1489 3.63325 14.3134C4.15148 14.5093 4.69935 14.6152 5.25325 14.6267C5.95992 14.6667 6.18659 14.6667 7.99992 14.6667C9.81325 14.6667 10.0399 14.6667 10.7466 14.6267C11.3005 14.6152 11.8484 14.5093 12.3666 14.3134C12.813 14.1506 13.2165 13.8884 13.5466 13.5467C13.8881 13.2151 14.1521 12.8122 14.3199 12.3667C14.51 11.8471 14.6136 11.2998 14.6266 10.7467C14.6266 10.04 14.6666 9.81337 14.6666 8.00004C14.6666 6.18671 14.6666 5.96004 14.6266 5.25337ZM13.4266 10.6667C13.4217 11.0899 13.3451 11.5092 13.1999 11.9067C13.0935 12.1968 12.9225 12.459 12.6999 12.6734C12.4837 12.8937 12.2221 13.0643 11.9333 13.1734C11.5357 13.3185 11.1164 13.3952 10.6933 13.4C10.0266 13.4334 9.77992 13.44 8.02659 13.44C6.27325 13.44 6.02659 13.44 5.35992 13.4C4.92051 13.4083 4.48298 13.3406 4.06659 13.2C3.79044 13.0854 3.54082 12.9152 3.33325 12.7C3.11198 12.4859 2.94315 12.2235 2.83992 11.9334C2.67716 11.5301 2.58688 11.1013 2.57325 10.6667C2.57325 10 2.53325 9.75337 2.53325 8.00004C2.53325 6.24671 2.53325 6.00004 2.57325 5.33337C2.57624 4.90074 2.65522 4.472 2.80659 4.06671C2.92395 3.78531 3.1041 3.53448 3.33325 3.33337C3.53579 3.10415 3.78611 2.9221 4.06659 2.80004C4.47295 2.6534 4.90125 2.57676 5.33325 2.57337C5.99992 2.57337 6.24659 2.53337 7.99992 2.53337C9.75325 2.53337 9.99992 2.53337 10.6666 2.57337C11.0898 2.57823 11.5091 2.65487 11.9066 2.80004C12.2095 2.91248 12.4814 3.09527 12.6999 3.33337C12.9184 3.53816 13.0891 3.78853 13.1999 4.06671C13.3481 4.47266 13.4248 4.90123 13.4266 5.33337C13.4599 6.00004 13.4666 6.24671 13.4666 8.00004C13.4666 9.75337 13.4599 10 13.4266 10.6667ZM7.99992 4.58004C7.32379 4.58136 6.66323 4.78306 6.10169 5.15965C5.54015 5.53625 5.10284 6.07084 4.84501 6.69588C4.58718 7.32091 4.5204 8.00835 4.65311 8.67133C4.78583 9.3343 5.11208 9.94306 5.59064 10.4207C6.0692 10.8983 6.67859 11.2234 7.34183 11.3548C8.00506 11.4862 8.69236 11.4181 9.3169 11.1591C9.94143 10.9 10.4752 10.4617 10.8507 9.8994C11.2262 9.33713 11.4266 8.67617 11.4266 8.00004C11.4275 7.55011 11.3394 7.10444 11.1674 6.68868C10.9954 6.27291 10.743 5.89525 10.4245 5.57741C10.106 5.25957 9.72789 5.00783 9.31178 4.83666C8.89568 4.66549 8.44985 4.57828 7.99992 4.58004ZM7.99992 10.22C7.56084 10.22 7.13163 10.0898 6.76655 9.8459C6.40148 9.60197 6.11693 9.25525 5.94891 8.8496C5.78088 8.44395 5.73692 7.99758 5.82258 7.56694C5.90823 7.1363 6.11967 6.74074 6.43014 6.43026C6.74061 6.11979 7.13618 5.90836 7.56682 5.8227C7.99746 5.73704 8.44382 5.781 8.84948 5.94903C9.25513 6.11705 9.60184 6.4016 9.84578 6.76667C10.0897 7.13175 10.2199 7.56097 10.2199 8.00004C10.2199 8.29158 10.1625 8.58026 10.0509 8.8496C9.93937 9.11894 9.77584 9.36367 9.5697 9.56982C9.36355 9.77596 9.11882 9.93949 8.84948 10.0511C8.58013 10.1626 8.29145 10.22 7.99992 10.22Z" fill="#F9F9F9"/>
<path d="M11.5599 3.64004V-18.36V3.64004ZM12.3599 4.44004H-9.64008H12.3599ZM14.6266 5.25337L-7.36737 5.7689L-7.35884 6.13302L-7.33825 6.49667L14.6266 5.25337ZM14.3199 3.63337L34.9805 -3.92563L34.9294 -4.06544L34.8764 -4.20454L14.3199 3.63337ZM13.5466 2.45337L-2.27595 17.7389L-2.06294 17.9594L-1.84386 18.1739L13.5466 2.45337ZM12.3666 1.68671L4.58769 22.2656L4.70816 22.3111L4.82916 22.3552L12.3666 1.68671ZM10.7466 1.37337L9.50329 23.3382L9.89686 23.3605L10.291 23.3687L10.7466 1.37337ZM5.25325 1.37337L5.70886 23.3687L6.10297 23.3605L6.49654 23.3382L5.25325 1.37337ZM3.63325 1.68671L11.2503 22.326L11.3313 22.2961L11.4121 22.2656L3.63325 1.68671ZM2.45325 2.45337L17.7388 18.2759L17.9814 18.0415L18.2167 17.7998L2.45325 2.45337ZM1.68659 3.63337L22.2654 11.4123L22.311 11.2918L22.3551 11.1708L1.68659 3.63337ZM1.37325 5.25337L23.3381 6.49667L23.3604 6.1031L23.3685 5.70898L1.37325 5.25337ZM1.37325 10.7467L23.3685 10.2911L23.3604 9.89699L23.3381 9.50342L1.37325 10.7467ZM1.68659 12.3667L22.3551 4.82928L22.311 4.70828L22.2654 4.58781L1.68659 12.3667ZM2.45325 13.5467L18.2167 -1.7997L17.9814 -2.04143L17.7388 -2.27583L2.45325 13.5467ZM3.63325 14.3134L11.4121 -6.26547L11.3313 -6.29601L11.2503 -6.32592L3.63325 14.3134ZM5.25325 14.6267L6.49654 -7.33813L6.10297 -7.36041L5.70886 -7.36857L5.25325 14.6267ZM10.7466 14.6267L10.291 -7.36857L9.89686 -7.36041L9.50329 -7.33813L10.7466 14.6267ZM12.3666 14.3134L4.82916 -6.35513L4.70816 -6.31101L4.58769 -6.26547L12.3666 14.3134ZM13.5466 13.5467L-1.77974 -2.23632L-2.03182 -1.99153L-2.27595 -1.73882L13.5466 13.5467ZM14.3199 12.3667L34.9081 20.1209L34.9448 20.0235L34.9805 19.9257L14.3199 12.3667ZM14.6266 10.7467L36.6205 11.2622L36.6266 11.0045V10.7467H14.6266ZM13.4266 10.6667L-8.54597 9.56808L-8.56711 9.99098L-8.57197 10.4144L13.4266 10.6667ZM13.1999 11.9067L33.8537 19.4843L33.8595 19.4687L33.8651 19.4531L13.1999 11.9067ZM12.6999 12.6734L-2.56174 -3.17218L-2.7849 -2.95725L-3.00192 -2.73611L12.6999 12.6734ZM11.9333 13.1734L19.4797 33.8386L19.5921 33.7975L19.7041 33.7553L11.9333 13.1734ZM10.6933 13.4L10.4409 -8.59851L10.0175 -8.59366L9.59463 -8.57251L10.6933 13.4ZM5.35992 13.4L6.67755 -8.56046L5.81351 -8.61231L4.94807 -8.5961L5.35992 13.4ZM4.06659 13.2L-4.367 33.5194L-3.67745 33.8056L-2.97008 34.0444L4.06659 13.2ZM3.33325 12.7L19.1675 -2.5734L18.9052 -2.84533L18.6337 -3.10809L3.33325 12.7ZM2.83992 11.9334L23.567 4.55858L23.4128 4.12523L23.2407 3.69871L2.83992 11.9334ZM2.57325 10.6667H-19.4267V11.0116L-19.4159 11.3562L2.57325 10.6667ZM2.57325 5.33337L24.5338 6.651L24.5687 6.06868L24.5727 5.48533L2.57325 5.33337ZM2.80659 4.06671L-17.4981 -4.40207L-17.6578 -4.0191L-17.803 -3.63037L2.80659 4.06671ZM3.33325 3.33337L17.8446 19.8688L18.8945 18.9475L19.8194 17.9007L3.33325 3.33337ZM4.06659 2.80004L-3.40081 -17.8939L-4.06505 -17.6542L-4.71255 -17.3724L4.06659 2.80004ZM5.33325 2.57337V-19.4266H5.24702L5.1608 -19.426L5.33325 2.57337ZM10.6666 2.57337L9.34896 24.5339L9.88115 24.5658L10.4143 24.5719L10.6666 2.57337ZM11.9066 2.80004L19.5613 -17.8253L19.5072 -17.8454L19.453 -17.8652L11.9066 2.80004ZM12.6999 3.33337L-3.51033 18.2071L-2.95017 18.8176L-2.34569 19.3842L12.6999 3.33337ZM13.1999 4.06671L33.8664 -3.47629L33.7564 -3.77764L33.6377 -4.07565L13.1999 4.06671ZM13.4266 5.33337L-8.57322 5.42539L-8.57112 5.92901L-8.54597 6.432L13.4266 5.33337ZM7.99992 4.58004L8.0428 26.58L8.06435 26.58L8.0859 26.5799L7.99992 4.58004ZM11.4266 8.00004L-10.5734 7.9569L-10.5734 7.97845V8L11.4266 8.00004ZM7.99992 10.22V32.22V10.22ZM10.2199 8.00004H32.2199H10.2199ZM11.5599 -18.36C7.05051 -18.36 2.64236 -17.0228 -1.10708 -14.5175L23.338 22.0672C19.8517 24.3967 15.7529 25.64 11.5599 25.64V-18.36ZM-1.10708 -14.5175C-4.85653 -12.0122 -7.77886 -8.45129 -9.50453 -4.28514L31.1462 12.5529C29.5416 16.4267 26.8243 19.7377 23.338 22.0672L-1.10708 -14.5175ZM-9.50453 -4.28514C-11.2302 -0.118987 -11.6817 4.46533 -10.802 8.8881L32.3526 0.304126C33.1706 4.41652 32.7507 8.67914 31.1462 12.5529L-9.50453 -4.28514ZM-10.802 8.8881C-9.92224 13.3109 -7.75073 17.3735 -4.56212 20.5621L26.5506 -10.5506C29.5154 -7.58577 31.5346 -3.80831 32.3526 0.304126L-10.802 8.8881ZM-4.56212 20.5621C-1.37346 23.7507 2.68911 25.9222 7.11186 26.8019L15.6958 -16.3526C19.8082 -15.5346 23.5857 -13.5155 26.5506 -10.5506L-4.56212 20.5621ZM7.11186 26.8019C11.5346 27.6817 16.1189 27.2302 20.2851 25.5045L3.44703 -15.1462C7.32083 -16.7508 11.5834 -17.1706 15.6958 -16.3526L7.11186 26.8019ZM20.2851 25.5045C24.4513 23.7788 28.0122 20.8564 30.5174 17.107L-6.06724 -7.33805C-3.73778 -10.8243 -0.426809 -13.5416 3.44703 -15.1462L20.2851 25.5045ZM30.5174 17.107C33.0227 13.3577 34.3599 8.94955 34.3599 4.44004H-9.64008C-9.64008 0.246982 -8.39667 -3.8518 -6.06724 -7.33805L30.5174 17.107ZM34.3599 4.44004C34.3599 -1.60695 31.9577 -7.4062 27.682 -11.682L-3.43074 19.4307C-7.40648 15.455 -9.64008 10.0627 -9.64008 4.44004H34.3599ZM27.682 -11.682C23.4061 -15.9578 17.6069 -18.36 11.5599 -18.36V25.64C5.93732 25.64 0.545022 23.4065 -3.43074 19.4307L27.682 -11.682ZM36.6205 4.73785C36.5512 1.77976 35.9972 -1.1469 34.9805 -3.92563L-6.34071 11.1924C-6.97714 9.45286 -7.32397 7.62071 -7.36737 5.7689L36.6205 4.73785ZM34.8764 -4.20454C33.5745 -7.61897 31.5482 -10.7108 28.937 -13.2671L-1.84386 18.1739C-3.77506 16.2832 -5.27366 13.9966 -6.23652 11.4713L34.8764 -4.20454ZM29.3691 -12.8322C26.7211 -15.5732 23.4845 -17.6761 19.904 -18.9818L4.82916 22.3552C2.14142 21.375 -0.288214 19.7965 -2.27595 17.7389L29.3691 -12.8322ZM20.1455 -18.8921C17.2846 -19.9736 14.26 -20.5586 11.2022 -20.6219L10.291 23.3687C8.34095 23.3283 6.41213 22.9552 4.58769 22.2656L20.1455 -18.8921ZM11.9899 -20.5915C10.5488 -20.673 9.67912 -20.6666 7.99992 -20.6666V23.3334C8.46236 23.3334 8.78896 23.3334 9.04685 23.3339C9.30728 23.3345 9.43068 23.3356 9.49232 23.3364C9.53328 23.3369 9.50357 23.3368 9.44412 23.3346C9.39627 23.3328 9.38888 23.3317 9.50329 23.3382L11.9899 -20.5915ZM7.99992 -20.6666C6.32072 -20.6666 5.45105 -20.673 4.00996 -20.5915L6.49654 23.3382C6.61096 23.3317 6.60357 23.3328 6.55572 23.3346C6.49627 23.3368 6.46656 23.3369 6.50752 23.3364C6.56916 23.3356 6.69255 23.3345 6.95299 23.3339C7.21088 23.3334 7.53748 23.3334 7.99992 23.3334V-20.6666ZM4.79765 -20.6219C1.73982 -20.5586 -1.28474 -19.9736 -4.14564 -18.8921L11.4121 22.2656C9.5877 22.9552 7.65888 23.3283 5.70886 23.3687L4.79765 -20.6219ZM-3.9838 -18.9526C-7.50532 -17.653 -10.6918 -15.5826 -13.3102 -12.893L18.2167 17.7998C16.2609 19.8088 13.8807 21.3552 11.2503 22.326L-3.9838 -18.9526ZM-12.8323 -13.3692C-15.5733 -10.7212 -17.6762 -7.48455 -18.9819 -3.90406L22.3551 11.1708C21.3749 13.8585 19.7963 16.2882 17.7388 18.2759L-12.8323 -13.3692ZM-18.8923 -4.14552C-19.9737 -1.28461 -20.5587 1.73994 -20.622 4.79777L23.3685 5.70898C23.3281 7.65901 22.9551 9.58782 22.2654 11.4123L-18.8923 -4.14552ZM-20.5916 4.01008C-20.6732 5.45117 -20.6667 6.32084 -20.6667 8.00004H23.3333C23.3333 7.5376 23.3333 7.211 23.3338 6.95311C23.3344 6.69268 23.3354 6.56928 23.3363 6.50764C23.3368 6.46668 23.3367 6.49639 23.3345 6.55584C23.3327 6.60369 23.3316 6.61108 23.3381 6.49667L-20.5916 4.01008ZM-20.6667 8.00004C-20.6667 9.67924 -20.6732 10.5489 -20.5916 11.99L23.3381 9.50342C23.3316 9.389 23.3327 9.39639 23.3345 9.44424C23.3367 9.50369 23.3368 9.5334 23.3363 9.49244C23.3354 9.4308 23.3344 9.30741 23.3338 9.04697C23.3333 8.78908 23.3333 8.46248 23.3333 8.00004H-20.6667ZM-20.622 11.2023C-20.5587 14.2601 -19.9737 17.2847 -18.8923 20.1456L22.2654 4.58781C22.9551 6.41226 23.3281 8.34107 23.3685 10.2911L-20.622 11.2023ZM-18.9819 19.9041C-17.6762 23.4846 -15.5733 26.7213 -12.8323 29.3692L17.7388 -2.27583C19.7963 -0.288092 21.3749 2.14154 22.3551 4.82928L-18.9819 19.9041ZM-13.3102 28.8931C-10.6918 31.5827 -7.50531 33.653 -3.9838 34.9527L11.2503 -6.32592C13.8807 -5.35515 16.2609 -3.80871 18.2167 -1.7997L-13.3102 28.8931ZM-4.14564 34.8922C-1.28476 35.9736 1.7398 36.5587 4.79765 36.622L5.70886 -7.36857C7.65891 -7.32818 9.58772 -6.95511 11.4121 -6.26547L-4.14564 34.8922ZM4.00996 36.5915C5.45105 36.6731 6.32073 36.6667 7.99992 36.6667V-7.33329C7.53747 -7.33329 7.21088 -7.3333 6.95299 -7.33387C6.69255 -7.33443 6.56916 -7.33547 6.50752 -7.3363C6.46656 -7.33685 6.49626 -7.33674 6.55572 -7.3345C6.60357 -7.33269 6.61096 -7.33166 6.49654 -7.33813L4.00996 36.5915ZM7.99992 36.6667C9.67911 36.6667 10.5488 36.6731 11.9899 36.5915L9.50329 -7.33813C9.38888 -7.33166 9.39627 -7.33269 9.44412 -7.3345C9.50358 -7.33674 9.53328 -7.33685 9.49232 -7.3363C9.43068 -7.33547 9.30729 -7.33443 9.04685 -7.33387C8.78896 -7.3333 8.46236 -7.33329 7.99992 -7.33329V36.6667ZM11.2022 36.622C14.26 36.5587 17.2846 35.9736 20.1455 34.8922L4.58769 -6.26547C6.41211 -6.95511 8.34093 -7.32818 10.291 -7.36857L11.2022 36.622ZM19.904 34.9819C23.4845 33.6761 26.7211 31.5732 29.3691 28.8322L-2.27595 -1.73882C-0.288208 -3.7964 2.14143 -5.37497 4.82916 -6.35513L19.904 34.9819ZM28.8729 29.3297C31.538 26.7418 33.5988 23.5973 34.9081 20.1209L-6.26826 4.61255C-5.29447 2.02703 -3.76182 -0.311589 -1.77974 -2.23632L28.8729 29.3297ZM34.9805 19.9257C35.9972 17.147 36.5512 14.2203 36.6205 11.2622L-7.36737 10.2312C-7.32397 8.37936 -6.97714 6.54722 -6.34071 4.8077L34.9805 19.9257ZM36.6266 10.7467C36.6266 10.7847 36.6207 11.048 36.6386 10.3801C36.6542 9.79974 36.6666 9.09214 36.6666 8.00004H-7.33341C-7.33341 8.72128 -7.34107 9.03367 -7.34546 9.19667C-7.34749 9.27212 -7.37341 10.0021 -7.37341 10.7467H36.6266ZM36.6666 8.00004C36.6666 6.32085 36.673 5.45117 36.5914 4.01008L-7.33825 6.49667C-7.33178 6.61108 -7.33281 6.60369 -7.33462 6.55584C-7.33687 6.49638 -7.33698 6.46668 -7.33642 6.50764C-7.33559 6.56928 -7.33455 6.69267 -7.33399 6.95311C-7.33343 7.211 -7.33341 7.5376 -7.33341 8.00004H36.6666ZM-8.57197 10.4144C-8.54827 8.34827 -8.17407 6.30116 -7.4653 4.36027L33.8651 19.4531C34.8642 16.7172 35.3917 13.8315 35.4251 10.919L-8.57197 10.4144ZM-7.4539 4.32913C-6.41242 1.49041 -4.73959 -1.07459 -2.56174 -3.17218L27.9616 28.5189C30.5846 25.9926 32.5994 22.9033 33.8537 19.4843L-7.4539 4.32913ZM-3.00192 -2.73611C-0.981245 -4.79512 1.46349 -6.38952 4.16245 -7.40853L19.7041 33.7553C22.9806 32.5182 25.9486 30.5825 28.4018 28.0829L-3.00192 -2.73611ZM4.38682 -7.49185C6.3277 -8.20061 8.37481 -8.57481 10.4409 -8.59851L10.9456 35.3986C13.8581 35.3652 16.7437 34.8377 19.4797 33.8386L4.38682 -7.49185ZM9.59463 -8.57251C9.44997 -8.56528 9.42699 -8.56455 9.43234 -8.56475C9.45431 -8.56555 9.45926 -8.56534 9.41507 -8.56464C9.25514 -8.56208 8.92883 -8.55996 8.02659 -8.55996V35.44C9.83615 35.44 10.5437 35.435 11.7919 35.3726L9.59463 -8.57251ZM8.02659 -8.55996C7.57899 -8.55996 7.26304 -8.55997 7.01307 -8.56053C6.76041 -8.56109 6.64326 -8.56212 6.58778 -8.56289C6.55202 -8.56338 6.59264 -8.56308 6.66838 -8.56013C6.73671 -8.55747 6.76398 -8.55528 6.67755 -8.56046L4.04229 35.3605C5.49444 35.4477 6.4392 35.44 8.02659 35.44V-8.55996ZM4.94807 -8.5961C7.0393 -8.63526 9.12158 -8.31325 11.1032 -7.64427L-2.97008 34.0444C-0.155612 34.9945 2.80173 35.4518 5.77177 35.3962L4.94807 -8.5961ZM12.5002 -7.11928C15.0108 -6.07722 17.2803 -4.52987 19.1675 -2.5734L-12.5009 27.9735C-10.1986 30.3603 -7.42994 32.2481 -4.367 33.5194L12.5002 -7.11928ZM18.6337 -3.10809C20.8464 -0.966412 22.5347 1.6573 23.567 4.55858L-17.8872 19.3082C-16.6484 22.7897 -14.6225 25.9382 -11.9672 28.5082L18.6337 -3.10809ZM23.2407 3.69871C24.0474 5.69739 24.4949 7.82285 24.5624 9.97717L-19.4159 11.3562C-19.3211 14.3798 -18.6931 17.3629 -17.5608 20.168L23.2407 3.69871ZM24.5733 10.6667C24.5733 10.2605 24.5668 9.92232 24.5596 9.64371C24.5564 9.51974 24.5528 9.40326 24.5506 9.33005C24.5481 9.24634 24.5465 9.19365 24.545 9.13698C24.5408 8.9839 24.5333 8.68546 24.5333 8.00004H-19.4667C-19.4667 9.06795 -19.4543 9.76952 -19.4385 10.3448C-19.435 10.4702 -19.4316 10.5826 -19.4294 10.6545C-19.427 10.737 -19.4261 10.7667 -19.4256 10.787C-19.4253 10.7969 -19.4267 10.7395 -19.4267 10.6667H24.5733ZM24.5333 8.00004C24.5333 7.55245 24.5333 7.2365 24.5338 6.98653C24.5344 6.73387 24.5354 6.61672 24.5362 6.56124C24.5367 6.52548 24.5364 6.5661 24.5334 6.64184C24.5308 6.71017 24.5286 6.73744 24.5338 6.651L-19.3873 4.01574C-19.4744 5.46789 -19.4667 6.41265 -19.4667 8.00004H24.5333ZM24.5727 5.48533C24.5579 7.62974 24.1664 9.75487 23.4162 11.7638L-17.803 -3.63037C-18.856 -0.810857 -19.4054 2.17175 -19.4262 5.18142L24.5727 5.48533ZM23.1113 12.5355C21.9376 15.3494 20.1362 17.8578 17.8446 19.8688L-11.1781 -13.2021C-13.928 -10.7888 -16.0897 -7.77878 -17.4981 -4.40207L23.1113 12.5355ZM19.8194 17.9007C17.8933 20.0805 15.5129 21.8117 12.8457 22.9725L-4.71255 -17.3724C-7.9407 -15.9675 -10.8217 -13.8722 -13.1529 -11.234L19.8194 17.9007ZM11.534 23.494C9.60001 24.1918 7.56167 24.5566 5.5057 24.5727L5.1608 -19.426C2.24083 -19.4031 -0.6541 -18.885 -3.40081 -17.8939L11.534 23.494ZM5.33325 24.5734C5.73943 24.5734 6.07764 24.5669 6.35625 24.5597C6.48022 24.5565 6.5967 24.553 6.66991 24.5507C6.75362 24.5482 6.80631 24.5466 6.86298 24.5451C7.01606 24.5409 7.3145 24.5334 7.99992 24.5334V-19.4666C6.93201 -19.4666 6.23044 -19.4541 5.65519 -19.4383C5.52978 -19.4349 5.41736 -19.4315 5.34543 -19.4293C5.26298 -19.4268 5.23326 -19.426 5.21296 -19.4254C5.20303 -19.4252 5.26041 -19.4266 5.33325 -19.4266V24.5734ZM7.99992 24.5334C8.44751 24.5334 8.76346 24.5334 9.01343 24.5339C9.26609 24.5345 9.38324 24.5355 9.43872 24.5363C9.47447 24.5368 9.43386 24.5365 9.35812 24.5335C9.28979 24.5309 9.26252 24.5287 9.34896 24.5339L11.9842 -19.3871C10.5321 -19.4743 9.58731 -19.4666 7.99992 -19.4666V24.5334ZM10.4143 24.5719C8.34815 24.5482 6.30104 24.174 4.36015 23.4653L19.453 -17.8652C16.7171 -18.8643 13.8314 -19.3918 10.9189 -19.4252L10.4143 24.5719ZM4.25189 23.4254C1.28768 22.3253 -1.37276 20.5368 -3.51033 18.2071L28.9102 -11.5404C26.3357 -14.3462 23.1314 -16.5003 19.5613 -17.8253L4.25189 23.4254ZM-2.34569 19.3842C-4.48324 17.3805 -6.15349 14.9308 -7.23784 12.2091L33.6377 -4.07565C32.3317 -7.35379 30.32 -10.3042 27.7455 -12.7175L-2.34569 19.3842ZM-7.46656 11.6097C-8.18997 9.62769 -8.5644 7.53529 -8.57322 5.42539L35.4264 5.24135C35.414 2.26717 34.8861 -0.682364 33.8664 -3.47629L-7.46656 11.6097ZM-8.54597 6.432C-8.53873 6.57667 -8.538 6.59965 -8.5382 6.5943C-8.53901 6.57234 -8.5388 6.56739 -8.53809 6.61158C-8.53553 6.77149 -8.53341 7.0978 -8.53341 8.00004H35.4666C35.4666 6.19044 35.4615 5.48286 35.3991 4.23475L-8.54597 6.432ZM-8.53341 8.00004C-8.53341 8.90228 -8.53553 9.22859 -8.53809 9.3885C-8.5388 9.4327 -8.53901 9.42774 -8.5382 9.40578C-8.538 9.40043 -8.53873 9.42341 -8.54597 9.56808L35.3991 11.7653C35.4615 10.5172 35.4666 9.80964 35.4666 8.00004H-8.53341ZM7.95703 -17.4199C2.93155 -17.4101 -1.97826 -15.9109 -6.15203 -13.1118L18.3554 23.4311C15.3047 25.4771 11.716 26.5728 8.0428 26.58L7.95703 -17.4199ZM-6.15203 -13.1118C-10.3258 -10.3127 -13.5762 -6.33919 -15.4926 -1.69344L25.1826 15.0852C23.7819 18.4809 21.4061 21.3852 18.3554 23.4311L-6.15203 -13.1118ZM-15.4926 -1.69344C-17.409 2.95231 -17.9053 8.06186 -16.9189 12.9896L26.2251 4.35307C26.9461 7.95485 26.5834 11.6895 25.1826 15.0852L-15.4926 -1.69344ZM-16.9189 12.9896C-15.9325 17.9173 -13.5076 22.4421 -9.95056 25.9922L21.1318 -5.1508C23.7317 -2.55596 25.5042 0.751295 26.2251 4.35307L-16.9189 12.9896ZM-9.95056 25.9922C-6.39354 29.5423 -1.86405 31.9584 3.06559 32.9352L11.6181 -10.2256C15.2212 -9.51161 18.5319 -7.74563 21.1318 -5.1508L-9.95056 25.9922ZM3.06559 32.9352C7.99525 33.912 13.1038 33.4057 17.7458 31.4803L0.887987 -9.16219C4.28091 -10.5695 8.01487 -10.9396 11.6181 -10.2256L3.06559 32.9352ZM17.7458 31.4803C22.3878 29.5549 26.355 26.2967 29.146 22.1175L-7.44462 -2.31872C-5.40461 -5.37341 -2.50494 -7.75486 0.887987 -9.16219L17.7458 31.4803ZM29.146 22.1175C31.937 17.9383 33.4266 13.0256 33.4266 8.00008L-10.5734 8C-10.5734 4.32678 -9.48462 0.735963 -7.44462 -2.31872L29.146 22.1175ZM33.4265 8.04318C33.4331 4.69333 32.7773 1.37521 31.4969 -1.72033L-9.16209 15.0977C-10.0986 12.8337 -10.5782 10.4069 -10.5734 7.9569L33.4265 8.04318ZM31.4969 -1.72033C30.2165 -4.81585 28.3367 -7.62768 25.9657 -9.99408L-5.1167 21.1489C-6.85079 19.4182 -8.22562 17.3617 -9.16209 15.0977L31.4969 -1.72033ZM25.9657 -9.99408C23.5947 -12.3605 20.7792 -14.2348 17.6812 -15.5092L0.942386 25.1825C-1.32342 24.2504 -3.38259 22.8796 -5.1167 21.1489L25.9657 -9.99408ZM17.6812 -15.5092C14.5832 -16.7836 11.2638 -17.4329 7.91394 -17.4198L8.0859 26.5799C5.6359 26.5894 3.20819 26.1146 0.942386 25.1825L17.6812 -15.5092ZM7.99992 -11.78C11.912 -11.78 15.7363 -10.6199 18.9891 -8.44643L-5.45599 28.1382C-1.47303 30.7996 3.20966 32.22 7.99992 32.22V-11.78ZM18.9891 -8.44643C22.2419 -6.27297 24.7772 -3.18376 26.2743 0.430563L-14.3764 17.2686C-12.5433 21.6943 -9.43895 25.4769 -5.45599 28.1382L18.9891 -8.44643ZM26.2743 0.430563C27.7714 4.04489 28.1631 8.02199 27.3999 11.8589L-15.7547 3.27495C-16.6892 7.97317 -16.2096 12.843 -14.3764 17.2686L26.2743 0.430563ZM27.3999 11.8589C26.6366 15.6959 24.7528 19.2203 21.9865 21.9866L-9.12621 -9.12609C-12.5134 -5.73885 -14.8202 -1.42326 -15.7547 3.27495L27.3999 11.8589ZM21.9865 21.9866C19.2202 24.7529 15.6957 26.6368 11.8588 27.4L3.27483 -15.7546C-1.42338 -14.82 -5.73898 -12.5133 -9.12621 -9.12609L21.9865 21.9866ZM11.8588 27.4C8.02186 28.1632 4.04476 27.7715 0.430441 26.2744L17.2685 -14.3763C12.8429 -16.2095 7.97305 -16.6891 3.27483 -15.7546L11.8588 27.4ZM0.430441 26.2744C-3.18388 24.7773 -6.27309 22.242 -8.44655 18.9892L28.1381 -5.45587C25.4768 -9.43883 21.6941 -12.5432 17.2685 -14.3763L0.430441 26.2744ZM-8.44655 18.9892C-10.62 15.7364 -11.7801 11.9121 -11.7801 8.00004H32.2199C32.2199 3.20979 30.7994 -1.4729 28.1381 -5.45587L-8.44655 18.9892ZM-11.7801 8.00004C-11.7801 5.4025 -11.2685 2.83039 -10.2744 0.430563L30.3763 17.2686C31.5935 14.3301 32.2199 11.1806 32.2199 8.00004H-11.7801ZM-10.2744 0.430563C-9.28038 -1.96925 -7.8234 -4.14979 -5.98665 -5.98653L25.126 25.1262C27.3751 22.8771 29.1591 20.2071 30.3763 17.2686L-10.2744 0.430563ZM-5.98665 -5.98653C-4.14991 -7.82328 -1.96938 -9.28026 0.430441 -10.2743L17.2685 30.3764C20.207 29.1592 22.877 27.3752 25.126 25.1262L-5.98665 -5.98653ZM0.430441 -10.2743C2.83027 -11.2683 5.40238 -11.78 7.99992 -11.78V32.22C11.1805 32.22 14.33 31.5936 17.2685 30.3764L0.430441 -10.2743Z" fill="#F9F9F9" mask="url(#path-1-inside-1_1_1068)"/>
</svg>
