<svg width="14" height="14" viewBox="0 0 14 14" fill="none" xmlns="http://www.w3.org/2000/svg">
<path d="M3.14569 14.0039H0.421078V5.24414H3.14569V14.0039ZM1.76873 4.07227C0.919125 4.07227 0.216 3.33984 0.216 2.46094C0.216 1.61133 0.919125 0.908203 1.76873 0.908203C2.64764 0.908203 3.35077 1.61133 3.35077 2.46094C3.35077 3.33984 2.64764 4.07227 1.76873 4.07227ZM13.3117 14.0039H10.6164V9.75586C10.6164 8.73047 10.5871 7.44141 9.18084 7.44141C7.77459 7.44141 7.56952 8.52539 7.56952 9.66797V14.0039H4.84491V5.24414H7.45233V6.44531H7.48162C7.86248 5.77148 8.74139 5.03906 10.0597 5.03906C12.8137 5.03906 13.341 6.85547 13.341 9.19922V14.0039H13.3117Z" fill="#F9F9F9"/>
</svg>
