<svg width="13" height="20" viewBox="0 0 13 20" fill="none" xmlns="http://www.w3.org/2000/svg">
<path d="M10.8233 10.52C10.3322 11.5022 9.63333 12.5789 8.72667 13.75C8.00889 14.6944 7.23444 15.6011 6.40333 16.47C5.57222 15.6011 4.79778 14.6944 4.08 13.75C3.17333 12.5789 2.47444 11.5022 1.98333 10.52C1.37889 9.31111 1.07667 8.24389 1.07667 7.31833C1.07667 6.39278 1.31278 5.52389 1.785 4.71167C2.25722 3.89944 2.90889 3.25722 3.74 2.785C4.57111 2.31278 5.45889 2.07667 6.40333 2.07667C7.34778 2.07667 8.23556 2.31278 9.06667 2.785C9.89778 3.25722 10.5494 3.89944 11.0217 4.71167C11.4939 5.52389 11.73 6.39278 11.73 7.31833C11.73 8.24389 11.4278 9.31111 10.8233 10.52ZM6.40333 18C6.74333 17.66 7.08333 17.32 7.42333 16.98C8.21667 16.1489 8.93444 15.2989 9.57667 14.43C10.5211 13.1833 11.2578 12.0311 11.7867 10.9733C12.4667 9.61333 12.8067 8.40444 12.8067 7.34667C12.8067 6.21333 12.5139 5.15555 11.9283 4.17333C11.3428 3.19111 10.5683 2.41667 9.605 1.85C8.64167 1.28333 7.57444 1 6.40333 1C5.23222 1 4.165 1.28333 3.20167 1.85C2.23833 2.41667 1.46389 3.19111 0.878333 4.17333C0.292778 5.15555 0 6.21333 0 7.34667C0 8.40444 0.34 9.61333 1.02 10.9733C1.54889 12.0311 2.28556 13.1833 3.23 14.43C3.87222 15.2989 4.59 16.1489 5.38333 16.98L6.40333 18ZM6.40333 9.5C5.79889 9.5 5.29833 9.29222 4.90167 8.87667C4.505 8.46111 4.30667 7.96056 4.30667 7.375C4.30667 6.78944 4.505 6.28889 4.90167 5.87333C5.29833 5.45778 5.79889 5.25 6.40333 5.25C7.00778 5.25 7.51778 5.45778 7.93333 5.87333C8.34889 6.28889 8.55667 6.78944 8.55667 7.375C8.55667 7.96056 8.34889 8.46111 7.93333 8.87667C7.51778 9.29222 7.00778 9.5 6.40333 9.5ZM6.40333 10.5767C7.27222 10.5767 8.01833 10.265 8.64167 9.64167C9.265 9.01833 9.57667 8.26278 9.57667 7.375C9.57667 6.48722 9.265 5.73167 8.64167 5.10833C8.01833 4.485 7.27222 4.17333 6.40333 4.17333C5.53444 4.17333 4.78833 4.485 4.165 5.10833C3.54167 5.73167 3.23 6.48722 3.23 7.375C3.23 8.26278 3.54167 9.01833 4.165 9.64167C4.78833 10.265 5.53444 10.5767 6.40333 10.5767Z" fill="#A19060"/>
</svg>
