<svg width="17" height="18" viewBox="0 0 17 18" fill="none" xmlns="http://www.w3.org/2000/svg">
<g clip-path="url(#clip0_1_632)">
<path d="M9.01 1.91667C8.67 1.72778 8.33 1.72778 7.99 1.91667L1.64333 5.31667C1.45444 5.39222 1.31278 5.515 1.21833 5.685C1.12389 5.855 1.07667 6.03444 1.07667 6.22333V7.13L7.19667 10.7567L8.5 9.96333L9.80333 10.7567L15.9233 7.13V6.22333C15.9233 6.03444 15.8761 5.855 15.7817 5.685C15.6872 5.515 15.5456 5.39222 15.3567 5.31667L9.01 1.91667ZM15.9233 8.32L10.88 11.38L15.9233 14.44V8.32ZM15.9233 15.63L8.5 11.21L1.07667 15.63C1.15222 15.8944 1.28444 16.0928 1.47333 16.225C1.66222 16.3572 1.88889 16.4233 2.15333 16.4233H14.9033C15.13 16.4233 15.3378 16.3572 15.5267 16.225C15.7156 16.0928 15.8478 15.8944 15.9233 15.63ZM1.07667 14.44L6.12 11.38L1.07667 8.32V14.44ZM7.48 0.953331C7.82 0.802221 8.16 0.726665 8.5 0.726665C8.84 0.726665 9.18 0.802221 9.52 0.953331L15.8667 4.35333C16.2067 4.54222 16.4806 4.80667 16.6883 5.14667C16.8961 5.48667 17 5.84555 17 6.22333V15.3467C17 15.9511 16.7922 16.4611 16.3767 16.8767C15.9611 17.2922 15.4511 17.5 14.8467 17.5H2.15333C1.54889 17.5 1.03889 17.2922 0.623333 16.8767C0.207778 16.4611 0 15.97 0 15.4033V6.22333C0 5.84555 0.103889 5.48667 0.311667 5.14667C0.519444 4.80667 0.793333 4.54222 1.13333 4.35333L7.48 0.953331Z" fill="#A19060"/>
</g>
<defs>
<clipPath id="clip0_1_632">
<rect width="17" height="17" fill="white" transform="matrix(1 0 0 -1 0 17.5)"/>
</clipPath>
</defs>
</svg>
