<svg width="168" height="70" viewBox="0 0 168 70" fill="none" xmlns="http://www.w3.org/2000/svg">
<path d="M116.819 23.9963C108.5 23.9963 100.105 27.6678 100.105 35.8622C100.105 39.7073 101.938 42.8527 105.376 44.9623C108.277 46.7303 112.253 47.7119 116.564 47.7119C119.308 47.7119 121.976 47.3648 124.818 46.4158L123.256 42.5436C121.407 42.9829 119.796 43.1239 118.408 43.1239C111.656 43.1239 107.773 40.4828 107.773 35.8622C107.773 31.2471 111.846 28.4922 118.392 28.4922C119.688 28.4922 120.919 28.6169 122.497 28.964L124.845 25.2816C121.993 24.1102 119.373 23.9963 116.813 23.9963M82.4522 23.9963C75.1634 23.9963 67.3215 27.7004 67.3215 35.8297C67.3215 43.9645 75.1634 47.7282 82.4522 47.7282C89.7409 47.7282 97.5883 44.0079 97.5883 35.8297C97.5883 27.6516 89.7409 23.9963 82.4522 23.9963ZM82.4522 43.5523C78.0486 43.5523 74.9899 40.3689 74.9899 35.8297C74.9899 31.2851 77.9889 28.0908 82.4522 28.0908C86.9209 28.0908 89.9145 31.2092 89.9145 35.8297C89.9145 40.4503 86.8395 43.5523 82.4522 43.5523ZM138.468 23.9963C135.122 23.9963 131.933 24.4465 128.419 25.4226V47.3485H135.952V28.4271C136.787 28.3023 137.573 28.2373 138.3 28.2373C140.003 28.2373 145.545 28.6169 145.545 33.5682C145.545 37.1421 142.297 38.7528 139.059 38.7528C138.913 38.7528 138.566 38.7365 138.3 38.7257L136.803 41.9037C138.251 42.0609 139.027 42.1097 139.802 42.1097C146.473 42.1097 153.214 39.3385 153.214 33.1561C153.214 27.5865 147.167 23.9963 138.474 23.9963" fill="white"/>
<path d="M55.6834 43.5741C57.8201 41.7411 62.0502 38.2268 60.5426 30.0216C60.5263 29.9294 60.3907 29.9348 60.3853 30.027C60.1684 33.2701 58.4492 35.32 57.6358 37.8743C57.6141 37.9503 57.5056 37.934 57.5056 37.8526C57.5327 35.3742 55.4773 33.4599 55.1628 31.9793C55.1411 31.8926 55.0164 31.8926 55.0001 31.9793C54.2137 36.909 56.524 40.2334 55.5587 43.4927C55.537 43.5687 55.6238 43.6283 55.6834 43.5741Z" fill="white"/>
<path d="M59.2682 41.9471C56.7084 45.022 56.3288 44.7834 53.563 47.4896C53.5088 47.5492 53.4166 47.4787 53.46 47.4082C55.2984 44.3821 54.2246 41.9417 53.7528 40.9167C53.7148 40.8408 53.6064 40.8625 53.601 40.9438C53.4491 44.0242 51.1768 50.852 40.4606 55.0278C40.0593 55.1797 39.8695 55.44 39.902 55.6244C39.902 55.6244 39.902 55.8738 40.4769 55.8467C43.2752 55.7165 54.8971 53.2273 59.3821 42.0176C59.4146 41.9417 59.317 41.8874 59.2682 41.9471Z" fill="white"/>
<path d="M38.0798 20.6611C36.9951 22.6351 35.6773 26.4042 35.4441 27.5973H34.3595C34.3106 27.5973 34.2727 27.6407 34.2781 27.6841C34.3866 29.0128 36.9572 30.9217 37.9659 31.6213C38.0201 31.6593 38.0906 31.6213 38.0906 31.5508L38.2316 20.7045C38.2316 20.6177 38.1231 20.5852 38.0798 20.6611Z" fill="white"/>
<path d="M38.6818 20.6611C39.7719 22.6351 41.0843 26.4042 41.3175 27.5973H42.4021C42.4509 27.5973 42.4889 27.6407 42.4889 27.6841C42.3804 29.0128 39.8044 30.9217 38.7957 31.6213C38.7469 31.6593 38.6764 31.6213 38.6764 31.5508L38.5354 20.7045C38.5354 20.6177 38.6439 20.5852 38.6872 20.6611" fill="white"/>
<path d="M24.793 30.7807C26.3332 32.4294 29.5003 34.8481 30.5633 35.4338L30.2271 36.4696C30.2162 36.5185 30.2379 36.5673 30.2867 36.5781C31.5774 36.8818 34.186 35.0217 35.1621 34.2733C35.211 34.2353 35.1947 34.1594 35.135 34.1377L24.8852 30.6506C24.8093 30.6289 24.7388 30.7211 24.7985 30.7807" fill="white"/>
<path d="M24.983 30.2059C27.1902 29.7829 31.1762 29.6907 32.3802 29.8426L32.7164 28.8068C32.7273 28.758 32.7761 28.7363 32.8249 28.7525C34.0505 29.2623 35.0647 32.3101 35.4172 33.487C35.4334 33.5466 35.3738 33.6009 35.3141 33.5846L24.9776 30.3632C24.8962 30.3415 24.9016 30.2222 24.983 30.2059Z" fill="white"/>
<path d="M30.2923 46.573C32.3314 45.6185 35.607 43.3462 36.4909 42.5165L37.3695 43.1564C37.4075 43.1835 37.4617 43.1727 37.4888 43.1347C38.1776 41.9959 37.2122 38.9372 36.8109 37.7766C36.7892 37.7116 36.7079 37.7061 36.6699 37.7604L30.2001 46.4537C30.1458 46.5188 30.2163 46.611 30.2923 46.573Z" fill="white"/>
<path d="M29.8042 46.2206C30.0862 43.9863 31.2305 40.1575 31.7457 39.0566L30.8617 38.4167C30.8237 38.3896 30.8183 38.3353 30.8454 38.2974C31.7131 37.2887 34.9128 37.2615 36.1385 37.2887C36.2035 37.2887 36.2361 37.3646 36.1981 37.4188L29.9506 46.2749C29.9072 46.3454 29.7933 46.3074 29.8042 46.2261" fill="white"/>
<path d="M46.9739 46.2206C46.6919 43.9808 45.5476 40.1574 45.0378 39.0511L45.9163 38.4112C45.9543 38.3841 45.9597 38.3298 45.9326 38.2919C45.0649 37.2832 41.8652 37.256 40.6342 37.2832C40.5691 37.2832 40.5366 37.3591 40.5745 37.4133L46.822 46.2748C46.8708 46.3399 46.9847 46.3019 46.9684 46.2206" fill="white"/>
<path d="M46.4857 46.5731C44.452 45.6186 41.1764 43.3409 40.287 42.5111L39.4085 43.1511C39.3705 43.1782 39.3163 43.1728 39.2892 43.1294C38.6004 41.9905 39.5658 38.9319 39.9671 37.7713C39.9888 37.7116 40.0701 37.7008 40.1081 37.755L46.5833 46.4484C46.6322 46.5189 46.5617 46.6111 46.4857 46.5731Z" fill="white"/>
<path d="M51.7897 30.2059C49.5825 29.7775 45.5964 29.6907 44.3925 29.8371L44.0562 28.8013C44.0454 28.7579 43.9912 28.7308 43.9478 28.7471C42.7221 29.2623 41.708 32.3047 41.3555 33.4815C41.3392 33.5466 41.3989 33.6008 41.4585 33.5791L51.7951 30.3632C51.8765 30.3361 51.871 30.2222 51.7897 30.2059Z" fill="white"/>
<path d="M51.974 30.7807C50.4392 32.4294 47.2666 34.8481 46.2091 35.4338L46.5454 36.4696C46.5562 36.5185 46.5345 36.5673 46.4857 36.5781C45.195 36.8818 42.5864 35.0217 41.6103 34.2733C41.5615 34.2353 41.5777 34.1594 41.6374 34.1377L51.8872 30.6506C51.9631 30.6289 52.0282 30.7211 51.974 30.7807Z" fill="white"/>
<path d="M52.3917 19.0938C51.7247 18.4864 50.7485 18.1881 49.7506 18.0905C49.6639 18.0851 49.5771 18.058 49.5012 18.02C47.7495 17.0764 45.8785 16.2737 43.937 15.8345C43.9316 15.8345 43.9099 15.829 43.9099 15.829C43.8611 15.8182 43.8177 15.8453 43.8068 15.8941C43.8014 15.9375 43.8285 15.9809 43.8719 15.9972C43.8719 15.9972 43.8936 15.9972 43.9045 16.0026C45.9544 16.5069 47.999 17.4451 49.1866 18.4322C49.268 18.4972 49.3276 18.584 49.371 18.6816C49.7073 19.4843 50.0815 20.2272 50.7485 20.84C51.3939 21.4312 52.305 21.5288 52.7551 21.0516C53.2052 20.5743 53.1184 19.7608 52.3972 19.0938" fill="white"/>
<path d="M56.4536 26.3663L54.4905 23.8608C53.0099 21.979 52.332 22.5213 51.1986 22.581C50.9979 22.5918 50.8027 22.5321 50.6454 22.4074C48.6172 20.7696 46.3394 19.2294 43.3241 18.5895C43.3133 18.5895 43.2916 18.5841 43.2916 18.5841C43.2536 18.5732 43.2102 18.6003 43.2048 18.6383C43.194 18.6763 43.2211 18.7142 43.2536 18.7197C43.2536 18.7197 43.4272 18.7685 43.5139 18.7902C45.9544 19.4409 48.0423 20.6178 49.897 22.505C52.9991 26.247 55.0165 25.7644 56.3506 26.4802C56.4265 26.5236 56.5079 26.4314 56.4536 26.3609" fill="white"/>
<path d="M57.202 26.0301C56.92 24.4628 57.3321 21.7404 55.3635 19.5385C55.293 19.4463 55.1791 19.3325 55.0653 19.2186C52.3537 16.2955 48.7364 14.1533 44.4901 13.2477C44.143 13.1772 43.7959 13.1121 43.438 13.0524C43.4325 13.0524 43.4163 13.047 43.4163 13.047C43.3783 13.047 43.3403 13.0687 43.3349 13.1067C43.3295 13.1446 43.3566 13.1826 43.3946 13.188C43.3946 13.188 43.4325 13.1934 43.4488 13.1988C43.785 13.2585 44.1213 13.329 44.4521 13.3995C48.3676 14.2889 51.6812 16.1491 54.2843 19.2457C54.4307 19.4247 54.4741 19.6633 54.3982 19.8802C54.0945 20.7045 53.8613 21.3553 54.6368 22.4942C54.8592 22.8304 56.4373 25.1678 57.0556 26.0843C57.1044 26.1548 57.2128 26.1114 57.1966 26.0301" fill="white"/>
<path d="M57.842 30.0324C57.842 30.1084 57.739 30.1301 57.7119 30.0596C57.5112 29.5498 57.1045 28.7146 56.394 28.0367C55.4992 27.1744 54.5176 27.1094 53.7746 26.4152C53.715 26.3555 53.6174 26.4098 53.6336 26.4911C54.561 30.8893 57.3106 31.0737 57.6793 33.5575C57.6902 33.6389 57.8041 33.6497 57.8312 33.5684C58.5796 31.2798 61.8118 27.8144 57.7553 22.5593C57.701 22.4888 57.5871 22.5485 57.6143 22.6352C58.5308 25.4065 57.7824 27.8361 57.842 30.0324Z" fill="white"/>
<path d="M21.089 43.5741C18.9523 41.7411 14.7222 38.2268 16.2245 30.0216C16.2407 29.9294 16.3763 29.9348 16.3871 30.027C16.5987 33.2701 18.3178 35.32 19.1313 37.8743C19.153 37.9503 19.2614 37.934 19.2614 37.8526C19.2343 35.3742 21.2897 33.4599 21.6042 31.9793C21.6314 31.8926 21.7561 31.8926 21.7669 31.9793C22.5587 36.909 20.243 40.2334 21.2084 43.4927C21.23 43.5687 21.1487 43.6283 21.089 43.5741Z" fill="white"/>
<path d="M17.5044 41.9471C20.0641 45.022 20.4383 44.7834 23.2041 47.4896C23.2638 47.5492 23.356 47.4787 23.3126 47.4082C21.4687 44.3821 22.5425 41.9417 23.0197 40.9167C23.0523 40.8408 23.1607 40.8625 23.1662 40.9438C23.3234 44.0242 25.5957 50.852 36.3065 55.0278C36.7078 55.1797 36.8976 55.44 36.8651 55.6244C36.8651 55.6244 36.8651 55.8738 36.2902 55.8467C33.4973 55.7165 21.87 53.2273 17.385 42.0176C17.3579 41.9417 17.4555 41.8874 17.5044 41.9471Z" fill="white"/>
<path d="M24.3754 19.0938C25.0425 18.4864 26.0241 18.1881 27.0165 18.0905C27.1087 18.0851 27.19 18.058 27.266 18.02C29.0177 17.0764 30.8941 16.2737 32.8301 15.8345C32.8356 15.8345 32.8573 15.829 32.8573 15.829C32.9007 15.8182 32.9495 15.8453 32.9603 15.8941C32.9657 15.9375 32.9386 15.9809 32.8952 15.9972C32.8952 15.9972 32.8735 15.9972 32.8627 16.0026C30.8127 16.5069 28.7682 17.4451 27.5805 18.4322C27.4992 18.4972 27.4395 18.584 27.3961 18.6816C27.0599 19.4843 26.6857 20.2272 26.0186 20.84C25.3733 21.4312 24.4622 21.5288 24.0121 21.0516C23.5619 20.5743 23.6487 19.7608 24.37 19.0938" fill="white"/>
<path d="M20.319 26.3663L22.2821 23.8608C23.7627 21.979 24.4406 22.5213 25.5686 22.581C25.7692 22.5918 25.9645 22.5321 26.1218 22.4074C28.15 20.7696 30.4278 19.2294 33.443 18.5895C33.4539 18.5895 33.481 18.5841 33.481 18.5841C33.519 18.5732 33.5569 18.6003 33.5624 18.6383C33.5732 18.6763 33.5515 18.7142 33.5135 18.7197C33.5135 18.7197 33.34 18.7685 33.2532 18.7902C30.8128 19.4409 28.7249 20.6178 26.8702 22.505C23.7681 26.247 21.7561 25.7644 20.4166 26.4802C20.3461 26.5236 20.2647 26.4314 20.319 26.3609" fill="white"/>
<path d="M19.5652 26.0301C19.8472 24.4628 19.435 21.7404 21.4036 19.5385C21.4796 19.4463 21.588 19.3325 21.7019 19.2186C24.4189 16.2955 28.0308 14.1533 32.2825 13.2477C32.6296 13.1772 32.9767 13.1121 33.3292 13.0524C33.3401 13.0524 33.3563 13.047 33.3563 13.047C33.3943 13.047 33.4268 13.0687 33.4323 13.1067C33.4377 13.1446 33.4106 13.1826 33.3726 13.188C33.3726 13.188 33.3401 13.1934 33.3238 13.1988C32.9821 13.2585 32.6459 13.329 32.3151 13.3995C28.3995 14.2889 25.086 16.1491 22.4883 19.2457C22.3419 19.4247 22.2985 19.6633 22.3744 19.8802C22.6781 20.7045 22.9113 21.3553 22.1358 22.4942C21.908 22.8304 20.3353 25.1678 19.717 26.0843C19.6682 26.1548 19.5543 26.1114 19.5706 26.0301" fill="white"/>
<path d="M19.1528 22.6352C19.1854 22.5485 19.0715 22.4888 19.0118 22.5593C14.9553 27.8144 18.1875 31.2852 18.9359 33.5738C18.963 33.6497 19.0769 33.6389 19.0878 33.5575C19.462 31.0737 22.2115 30.8893 23.1335 26.4911C23.1497 26.4098 23.0521 26.3555 22.9925 26.4152C22.2495 27.1094 21.2733 27.169 20.3731 28.0367C19.6626 28.7146 19.2613 29.5498 19.0552 30.0596C19.0281 30.1301 18.9251 30.1084 18.9251 30.0324C18.9847 27.8361 18.2363 25.4065 19.1528 22.6352Z" fill="white"/>
</svg>
