<svg width="24" height="25" viewBox="0 0 24 25" fill="none" xmlns="http://www.w3.org/2000/svg">
<g clip-path="url(#clip0_1_561)">
<path d="M10.6029 21.073C10.3949 21.073 10.2109 21.021 10.0509 20.917C9.89085 20.813 9.77485 20.669 9.70285 20.485C9.63085 20.301 9.61485 20.113 9.65485 19.921C9.69485 19.729 9.77885 19.569 9.90685 19.441L17.3469 11.977L9.90685 4.537C9.81085 4.441 9.73885 4.333 9.69085 4.213C9.64285 4.093 9.61885 3.969 9.61885 3.841C9.61885 3.713 9.64285 3.593 9.69085 3.481C9.73885 3.369 9.81085 3.265 9.90685 3.169C10.0029 3.073 10.1109 3.001 10.2309 2.953C10.3509 2.905 10.4629 2.881 10.5669 2.881C10.6709 2.881 10.8029 2.913 10.9629 2.977C11.0749 3.025 11.1789 3.097 11.2749 3.193L19.3869 11.305C19.5789 11.497 19.6749 11.725 19.6749 11.989C19.6749 12.253 19.5789 12.481 19.3869 12.673L11.2749 20.785C11.0829 20.977 10.8589 21.073 10.6029 21.073ZM18.7149 12.937H1.43485C1.16285 12.937 0.934854 12.845 0.750854 12.661C0.566854 12.477 0.474854 12.253 0.474854 11.989C0.474854 11.725 0.570854 11.497 0.762854 11.305C0.954854 11.113 1.17885 11.017 1.43485 11.017H18.7149C18.9709 11.017 19.1949 11.113 19.3869 11.305C19.5789 11.497 19.6749 11.725 19.6749 11.989C19.6749 12.253 19.5829 12.477 19.3989 12.661C19.2149 12.845 18.9869 12.937 18.7149 12.937Z" fill="#131313"/>
</g>
<defs>
<clipPath id="clip0_1_561">
<rect width="23.05" height="24" fill="white" transform="matrix(1 0 0 -1 0.469971 24.0249)"/>
</clipPath>
</defs>
</svg>
