<svg width="16" height="13" viewBox="0 0 16 13" fill="none" xmlns="http://www.w3.org/2000/svg">
<path d="M14.3066 3.33203C14.3066 3.47852 14.3066 3.5957 14.3066 3.74219C14.3066 7.81445 11.2305 12.4727 5.57617 12.4727C3.81836 12.4727 2.20703 11.9746 0.859375 11.0957C1.09375 11.125 1.32812 11.1543 1.5918 11.1543C3.02734 11.1543 4.3457 10.6562 5.40039 9.83594C4.05273 9.80664 2.91016 8.92773 2.5293 7.69727C2.73438 7.72656 2.91016 7.75586 3.11523 7.75586C3.37891 7.75586 3.67188 7.69727 3.90625 7.63867C2.5 7.3457 1.44531 6.11523 1.44531 4.62109V4.5918C1.85547 4.82617 2.35352 4.94336 2.85156 4.97266C2.00195 4.41602 1.47461 3.47852 1.47461 2.42383C1.47461 1.83789 1.62109 1.31055 1.88477 0.871094C3.4082 2.7168 5.69336 3.94727 8.24219 4.09375C8.18359 3.85938 8.1543 3.625 8.1543 3.39062C8.1543 1.69141 9.53125 0.314453 11.2305 0.314453C12.1094 0.314453 12.9004 0.666016 13.4863 1.28125C14.1602 1.13477 14.834 0.871094 15.4199 0.519531C15.1855 1.25195 14.7168 1.83789 14.0723 2.21875C14.6875 2.16016 15.3027 1.98438 15.8301 1.75C15.4199 2.36523 14.8926 2.89258 14.3066 3.33203Z" fill="#F9F9F9"/>
</svg>
