<svg width="216" height="79" viewBox="0 0 216 79" fill="none" xmlns="http://www.w3.org/2000/svg">
<path d="M43.1367 32.3213C44.4787 31.8128 45.4675 31.5774 46.2812 31.6631L46.4033 31.6758L46.5254 31.6797C46.6042 31.6822 46.6626 31.6881 46.7041 31.6934C46.7211 31.7322 46.7423 31.7851 46.7646 31.8555C46.83 32.0614 46.893 32.3612 46.9336 32.7773C47.017 33.6321 46.9834 34.7014 46.8818 35.9863C46.832 36.6173 46.7693 37.2566 46.7051 37.9258C46.6421 38.5824 46.5774 39.2699 46.5293 39.9375C46.5112 40.1889 46.5003 40.4417 46.4971 40.6953V40.7412C46.4991 42.6709 46.9486 44.5352 47.75 46.207C48.6873 48.1623 49.4917 49.6539 49.9121 51.1357C50.3004 52.5043 50.1313 53.1178 49.8408 53.5312L49.8174 53.5645L49.7939 53.5996C48.8983 54.9447 48.1977 55.9275 47.4775 56.6025C46.825 57.2142 46.3927 57.3494 46.0186 57.3555H45.9961C45.3758 57.3698 45.0269 57.2391 44.0264 56.8115C42.9348 56.345 41.3728 55.6836 39.0508 55.6836C36.7616 55.6836 35.2087 56.2838 34.0527 56.7686C32.9569 57.228 32.5741 57.3937 31.918 57.4219C31.8023 57.4234 31.4105 57.3797 30.624 56.6387C30.014 56.0639 29.412 55.3045 28.7568 54.3975L28.0811 53.4414C26.5421 51.1744 25.1211 47.8866 24.5205 44.4678C23.913 41.0098 24.2097 37.8292 25.5732 35.459L25.5859 35.4355L25.5996 35.4121C26.7884 33.2678 29.0835 31.8613 31.5137 31.7725C32.1664 31.7618 32.9496 31.9872 34.1348 32.457C34.6335 32.6548 35.3523 32.9561 35.9727 33.1699C36.5922 33.3834 37.4977 33.6533 38.4902 33.6533C39.5441 33.6532 40.5397 33.3154 41.1406 33.0977C41.6772 32.9032 42.6766 32.4957 43.1367 32.3213ZM42.1572 22.7754C42.4364 22.7602 42.616 22.8701 42.6934 22.9404C42.7709 23.0111 42.8503 23.1325 42.8633 23.3105C42.8661 23.3489 42.8625 23.3843 42.8594 23.416C42.8264 23.4242 42.7886 23.4333 42.7461 23.4365C42.5357 23.4524 42.3653 23.3778 42.2578 23.2881C42.1503 23.1983 42.0427 23.0402 42.0205 22.8223C42.0196 22.8128 42.0211 22.803 42.0205 22.7939C42.0624 22.785 42.1084 22.7781 42.1572 22.7754Z" fill="white" stroke="white" stroke-width="6.66044"/>
<path d="M148.123 37.3305C147.266 37.3305 146.571 38.0252 146.571 38.882V40.0811C146.571 40.7705 146.012 41.3295 145.323 41.3295C144.633 41.3295 144.074 41.8884 144.074 42.5779V42.7035C144.074 43.393 144.633 43.952 145.323 43.952C146.012 43.952 146.571 44.5109 146.571 45.2004V52.8626C146.571 55.9053 147.942 57.1224 151.392 57.1224C151.587 57.1224 151.779 57.1148 151.967 57.1017C152.614 57.0566 153.08 56.4893 153.08 55.8412V55.5558C153.08 54.9207 152.532 54.4419 151.897 54.4419C150.352 54.4419 149.674 53.7175 149.674 52.0657V45.655C149.674 44.7144 150.437 43.952 151.377 43.952H151.769C152.493 43.952 153.08 43.3649 153.08 42.6407C153.08 41.9165 152.493 41.3295 151.769 41.3295H151.377C150.437 41.3295 149.674 40.567 149.674 39.6264V38.882C149.674 38.0252 148.979 37.3305 148.123 37.3305Z" fill="white"/>
<path d="M161.867 57.3397C166.457 57.3397 169.271 54.2536 169.271 49.139C169.271 44.0534 166.442 40.9528 161.867 40.9528C157.278 40.9528 154.449 44.0534 154.449 49.139C154.449 54.2536 157.263 57.3397 161.867 57.3397ZM161.867 54.5723C159.168 54.5723 157.653 52.5873 157.653 49.139C157.653 45.7196 159.168 43.7201 161.867 43.7201C164.552 43.7201 166.082 45.7196 166.082 49.139C166.082 52.5728 164.552 54.5723 161.867 54.5723Z" fill="white"/>
<path d="M171.679 55.4839C171.679 56.3408 172.374 57.0354 173.231 57.0354C174.087 57.0354 174.782 56.3408 174.782 55.4839V47.7191C174.782 45.5023 176.442 44.0099 178.794 44.0099C179.653 44.0099 180.526 43.3109 180.526 42.4525V42.2237C180.526 41.5774 180.084 41.0248 179.438 41.0017C179.336 40.9981 179.235 40.9962 179.141 40.9962C177.133 40.9962 175.417 42.0805 174.927 43.5819C174.908 43.6377 174.857 43.6767 174.798 43.6767C174.726 43.6767 174.667 43.6177 174.667 43.5449V42.4668C174.667 41.7987 174.125 41.257 173.457 41.257H173.173C172.348 41.257 171.679 41.9258 171.679 42.7508V55.4839Z" fill="white"/>
<path d="M188.231 43.6042C189.124 43.6042 189.897 43.848 190.513 44.2919C192.239 45.5372 190.34 47.6901 188.211 47.6901C186.022 47.6901 184.162 45.441 185.993 44.2394C186.617 43.8294 187.376 43.6042 188.231 43.6042ZM193.075 52.7757C192.47 52.7757 191.947 53.1544 191.526 53.5886C190.833 54.3032 189.757 54.6882 188.346 54.6882C185.864 54.6882 184.262 52.9351 184.161 50.1677C184.161 50.0717 184.239 49.9938 184.335 49.9938H194.173C194.773 49.9938 195.26 49.5073 195.26 48.9072C195.26 43.952 192.618 40.9528 188.245 40.9528C183.815 40.9528 181 44.1548 181 49.1969C181 54.2391 183.757 57.3397 188.26 57.3397C191 57.3397 193.112 56.3284 194.273 54.5952C194.838 53.7527 194.089 52.7757 193.075 52.7757Z" fill="white"/>
<path d="M128.048 51.2087C127.058 51.2087 126.248 52.0602 126.573 52.9949C127.557 55.8282 130.461 57.561 134.464 57.561C139.58 57.561 142.782 54.963 142.782 50.8183C142.782 47.5595 140.957 45.7574 136.529 44.7212L134.15 44.1356C131.338 43.4748 130.201 42.5888 130.201 41.042C130.201 39.0897 131.966 37.8133 134.614 37.8133C136.493 37.8133 137.936 38.5097 138.677 39.6955C139.122 40.4085 139.796 41.057 140.637 41.057C141.615 41.057 142.418 40.2177 142.087 39.2966C141.12 36.6088 138.297 34.8398 134.659 34.8398C129.947 34.8398 126.806 37.4078 126.806 41.2673C126.806 44.4509 128.586 46.3431 132.49 47.2592L135.272 47.9349C138.129 48.6107 139.386 49.6019 139.386 51.2538C139.386 53.176 137.411 54.5726 134.719 54.5726C132.551 54.5726 130.881 53.8359 130.063 52.5977C129.59 51.8826 128.905 51.2087 128.048 51.2087Z" fill="white"/>
<path d="M94.0783 40.9962C91.9728 40.9962 90.1477 42.038 89.1837 43.7886C89.158 43.8353 89.109 43.865 89.0557 43.865C88.976 43.865 88.9115 43.8005 88.9115 43.7208V42.561C88.9115 41.8408 88.3277 41.257 87.6075 41.257H87.4177C86.5927 41.257 85.9239 41.9258 85.9239 42.7508V60.7289C85.9239 61.5858 86.6186 62.2804 87.4754 62.2804C88.3323 62.2804 89.0269 61.5858 89.0269 60.7289V54.7961C89.0269 54.7125 89.0947 54.6448 89.1782 54.6448C89.2358 54.6448 89.2883 54.6777 89.3149 54.7288C90.1552 56.344 91.908 57.2962 94.1072 57.2962C98.0761 57.2962 100.602 54.1521 100.602 49.139C100.602 44.1258 98.0761 40.9962 94.0783 40.9962ZM93.1979 54.4999C90.6001 54.4999 88.9692 52.4424 88.9692 49.1535C88.9692 45.85 90.6001 43.7926 93.2124 43.7926C95.8391 43.7926 97.4122 45.8065 97.4122 49.139C97.4122 52.4859 95.8391 54.4999 93.1979 54.4999Z" fill="white"/>
<path d="M111.46 40.9962C109.354 40.9962 107.529 42.038 106.565 43.7886C106.539 43.8353 106.49 43.865 106.437 43.865C106.357 43.865 106.293 43.8005 106.293 43.7208V42.561C106.293 41.8408 105.709 41.257 104.989 41.257H104.799C103.974 41.257 103.305 41.9258 103.305 42.7508V60.7289C103.305 61.5858 104 62.2804 104.857 62.2804C105.714 62.2804 106.408 61.5858 106.408 60.7289V54.7961C106.408 54.7125 106.476 54.6448 106.56 54.6448C106.617 54.6448 106.67 54.6777 106.696 54.7288C107.537 56.344 109.289 57.2962 111.489 57.2962C115.458 57.2962 117.983 54.1521 117.983 49.139C117.983 44.1258 115.458 40.9962 111.46 40.9962ZM110.579 54.4999C107.981 54.4999 106.351 52.4424 106.351 49.1535C106.351 45.85 107.981 43.7926 110.594 43.7926C113.22 43.7926 114.794 45.8065 114.794 49.139C114.794 52.4859 113.22 54.4999 110.579 54.4999Z" fill="white"/>
<path d="M79.9703 55.91C80.2014 56.5833 80.8347 57.0354 81.5465 57.0354C82.7005 57.0354 83.5052 55.8908 83.1147 54.8049L76.7333 37.0616C76.3673 36.044 75.4022 35.3654 74.3207 35.3654C73.2393 35.3654 72.2741 36.044 71.9082 37.0616L65.5005 54.8781C65.1227 55.9284 65.901 57.0354 67.0172 57.0354C67.7043 57.0354 68.3158 56.5999 68.5404 55.9505L69.1599 54.1596C69.7553 52.4384 71.3764 51.2838 73.1977 51.2838H75.3415C77.1605 51.2838 78.7787 52.4392 79.3694 54.1596L79.9703 55.91ZM74.1075 39.4202C74.1321 39.3483 74.1998 39.3 74.2758 39.3C74.3519 39.3 74.4195 39.3484 74.4441 39.4204L76.4769 45.3767C76.9931 46.8891 75.8689 48.4605 74.2709 48.4605C72.6714 48.4605 71.5471 46.8864 72.066 45.3735L74.1075 39.4202Z" fill="white"/>
<path d="M148.123 37.3305C147.266 37.3305 146.571 38.0252 146.571 38.882V40.0811C146.571 40.7705 146.012 41.3295 145.323 41.3295C144.633 41.3295 144.074 41.8884 144.074 42.5779V42.7035C144.074 43.393 144.633 43.952 145.323 43.952C146.012 43.952 146.571 44.5109 146.571 45.2004V52.8626C146.571 55.9053 147.942 57.1224 151.392 57.1224C151.587 57.1224 151.779 57.1148 151.967 57.1017C152.614 57.0566 153.08 56.4893 153.08 55.8412V55.5558C153.08 54.9207 152.532 54.4419 151.897 54.4419C150.352 54.4419 149.674 53.7175 149.674 52.0657V45.655C149.674 44.7144 150.437 43.952 151.377 43.952H151.769C152.493 43.952 153.08 43.3649 153.08 42.6407C153.08 41.9165 152.493 41.3295 151.769 41.3295H151.377C150.437 41.3295 149.674 40.567 149.674 39.6264V38.882C149.674 38.0252 148.979 37.3305 148.123 37.3305Z" stroke="#EE542D"/>
<path d="M161.867 57.3397C166.457 57.3397 169.271 54.2536 169.271 49.139C169.271 44.0534 166.442 40.9528 161.867 40.9528C157.278 40.9528 154.449 44.0534 154.449 49.139C154.449 54.2536 157.263 57.3397 161.867 57.3397ZM161.867 54.5723C159.168 54.5723 157.653 52.5873 157.653 49.139C157.653 45.7196 159.168 43.7201 161.867 43.7201C164.552 43.7201 166.082 45.7196 166.082 49.139C166.082 52.5728 164.552 54.5723 161.867 54.5723Z" stroke="#EE542D"/>
<path d="M171.679 55.4839C171.679 56.3408 172.374 57.0354 173.231 57.0354C174.087 57.0354 174.782 56.3408 174.782 55.4839V47.7191C174.782 45.5023 176.442 44.0099 178.794 44.0099C179.653 44.0099 180.526 43.3109 180.526 42.4525V42.2237C180.526 41.5774 180.084 41.0248 179.438 41.0017C179.336 40.9981 179.235 40.9962 179.141 40.9962C177.133 40.9962 175.417 42.0805 174.927 43.5819C174.908 43.6377 174.857 43.6767 174.798 43.6767C174.726 43.6767 174.667 43.6177 174.667 43.5449V42.4668C174.667 41.7987 174.125 41.257 173.457 41.257H173.173C172.348 41.257 171.679 41.9258 171.679 42.7508V55.4839Z" stroke="#EE542D"/>
<path d="M188.231 43.6042C189.124 43.6042 189.897 43.848 190.513 44.2919C192.239 45.5372 190.34 47.6901 188.211 47.6901C186.022 47.6901 184.162 45.441 185.993 44.2394C186.617 43.8294 187.376 43.6042 188.231 43.6042ZM193.075 52.7757C192.47 52.7757 191.947 53.1544 191.526 53.5886C190.833 54.3032 189.757 54.6882 188.346 54.6882C185.864 54.6882 184.262 52.9351 184.161 50.1677C184.161 50.0717 184.239 49.9938 184.335 49.9938H194.173C194.773 49.9938 195.26 49.5073 195.26 48.9072C195.26 43.952 192.618 40.9528 188.245 40.9528C183.815 40.9528 181 44.1548 181 49.1969C181 54.2391 183.757 57.3397 188.26 57.3397C191 57.3397 193.112 56.3284 194.273 54.5952C194.838 53.7527 194.089 52.7757 193.075 52.7757Z" stroke="#EE542D"/>
<path d="M128.048 51.2087C127.058 51.2087 126.248 52.0602 126.573 52.9949C127.557 55.8282 130.461 57.561 134.464 57.561C139.58 57.561 142.782 54.963 142.782 50.8183C142.782 47.5595 140.957 45.7574 136.529 44.7212L134.15 44.1356C131.338 43.4748 130.201 42.5888 130.201 41.042C130.201 39.0897 131.966 37.8133 134.614 37.8133C136.493 37.8133 137.936 38.5097 138.677 39.6955C139.122 40.4085 139.796 41.057 140.637 41.057C141.615 41.057 142.418 40.2177 142.087 39.2966C141.12 36.6088 138.297 34.8398 134.659 34.8398C129.947 34.8398 126.806 37.4078 126.806 41.2673C126.806 44.4509 128.586 46.3431 132.49 47.2592L135.272 47.9349C138.129 48.6107 139.386 49.6019 139.386 51.2538C139.386 53.176 137.411 54.5726 134.719 54.5726C132.551 54.5726 130.881 53.8359 130.063 52.5977C129.59 51.8826 128.905 51.2087 128.048 51.2087Z" stroke="#EE542D"/>
<path d="M94.0783 40.9962C91.9728 40.9962 90.1477 42.038 89.1837 43.7886C89.158 43.8353 89.109 43.865 89.0557 43.865C88.976 43.865 88.9115 43.8005 88.9115 43.7208V42.561C88.9115 41.8408 88.3277 41.257 87.6075 41.257H87.4177C86.5927 41.257 85.9239 41.9258 85.9239 42.7508V60.7289C85.9239 61.5858 86.6186 62.2804 87.4754 62.2804C88.3323 62.2804 89.0269 61.5858 89.0269 60.7289V54.7961C89.0269 54.7125 89.0947 54.6448 89.1782 54.6448C89.2358 54.6448 89.2883 54.6777 89.3149 54.7288C90.1552 56.344 91.908 57.2962 94.1072 57.2962C98.0761 57.2962 100.602 54.1521 100.602 49.139C100.602 44.1258 98.0761 40.9962 94.0783 40.9962ZM93.1979 54.4999C90.6001 54.4999 88.9692 52.4424 88.9692 49.1535C88.9692 45.85 90.6001 43.7926 93.2124 43.7926C95.8391 43.7926 97.4122 45.8065 97.4122 49.139C97.4122 52.4859 95.8391 54.4999 93.1979 54.4999Z" stroke="#EE542D"/>
<path d="M111.46 40.9962C109.354 40.9962 107.529 42.038 106.565 43.7886C106.539 43.8353 106.49 43.865 106.437 43.865C106.357 43.865 106.293 43.8005 106.293 43.7208V42.561C106.293 41.8408 105.709 41.257 104.989 41.257H104.799C103.974 41.257 103.305 41.9258 103.305 42.7508V60.7289C103.305 61.5858 104 62.2804 104.857 62.2804C105.714 62.2804 106.408 61.5858 106.408 60.7289V54.7961C106.408 54.7125 106.476 54.6448 106.56 54.6448C106.617 54.6448 106.67 54.6777 106.696 54.7288C107.537 56.344 109.289 57.2962 111.489 57.2962C115.458 57.2962 117.983 54.1521 117.983 49.139C117.983 44.1258 115.458 40.9962 111.46 40.9962ZM110.579 54.4999C107.981 54.4999 106.351 52.4424 106.351 49.1535C106.351 45.85 107.981 43.7926 110.594 43.7926C113.22 43.7926 114.794 45.8065 114.794 49.139C114.794 52.4859 113.22 54.4999 110.579 54.4999Z" stroke="#EE542D"/>
<path d="M79.9703 55.91C80.2014 56.5833 80.8347 57.0354 81.5465 57.0354C82.7005 57.0354 83.5052 55.8908 83.1147 54.8049L76.7333 37.0616C76.3673 36.044 75.4022 35.3654 74.3207 35.3654C73.2393 35.3654 72.2741 36.044 71.9082 37.0616L65.5005 54.8781C65.1227 55.9284 65.901 57.0354 67.0172 57.0354C67.7043 57.0354 68.3158 56.5999 68.5404 55.9505L69.1599 54.1596C69.7553 52.4384 71.3764 51.2838 73.1977 51.2838H75.3415C77.1605 51.2838 78.7787 52.4392 79.3694 54.1596L79.9703 55.91ZM74.1075 39.4202C74.1321 39.3483 74.1998 39.3 74.2758 39.3C74.3519 39.3 74.4195 39.3484 74.4441 39.4204L76.4769 45.3767C76.9931 46.8891 75.8689 48.4605 74.2709 48.4605C72.6714 48.4605 71.5471 46.8864 72.066 45.3735L74.1075 39.4202Z" stroke="#EE542D"/>
<path d="M71.24 21.05V21.98H69.39V28H68.25V21.98H66.39V21.05H71.24ZM73.5345 21.97V24.01H75.9345V24.94H73.5345V27.07H76.2345V28H72.3945V21.04H76.2345V21.97H73.5345ZM75.2945 19.56L73.0845 20.65V19.81L75.2945 18.59V19.56ZM78.7787 27.08H81.1287V28H77.6387V21.05H78.7787V27.08ZM83.222 21.97V24.01H85.622V24.94H83.222V27.07H85.922V28H82.082V21.04H85.922V21.97H83.222ZM84.982 19.56L82.772 20.65V19.81L84.982 18.59V19.56ZM86.9462 24.51C86.9462 23.83 87.1028 23.22 87.4162 22.68C87.7362 22.14 88.1662 21.72 88.7062 21.42C89.2528 21.1133 89.8495 20.96 90.4962 20.96C91.2362 20.96 91.8928 21.1433 92.4662 21.51C93.0462 21.87 93.4662 22.3833 93.7262 23.05H92.3562C92.1762 22.6833 91.9262 22.41 91.6062 22.23C91.2862 22.05 90.9162 21.96 90.4962 21.96C90.0362 21.96 89.6262 22.0633 89.2662 22.27C88.9062 22.4767 88.6228 22.7733 88.4162 23.16C88.2162 23.5467 88.1162 23.9967 88.1162 24.51C88.1162 25.0233 88.2162 25.4733 88.4162 25.86C88.6228 26.2467 88.9062 26.5467 89.2662 26.76C89.6262 26.9667 90.0362 27.07 90.4962 27.07C90.9162 27.07 91.2862 26.98 91.6062 26.8C91.9262 26.62 92.1762 26.3467 92.3562 25.98H93.7262C93.4662 26.6467 93.0462 27.16 92.4662 27.52C91.8928 27.88 91.2362 28.06 90.4962 28.06C89.8428 28.06 89.2462 27.91 88.7062 27.61C88.1662 27.3033 87.7362 26.88 87.4162 26.34C87.1028 25.8 86.9462 25.19 86.9462 24.51ZM100.611 21.05V28H99.4705V24.96H96.2005V28H95.0605V21.05H96.2005V24.03H99.4705V21.05H100.611ZM106.301 26.58H103.391L102.891 28H101.701L104.191 21.04H105.511L108.001 28H106.801L106.301 26.58ZM105.981 25.65L104.851 22.42L103.711 25.65H105.981ZM112.694 28L111.094 25.22H110.224V28H109.084V21.05H111.484C112.017 21.05 112.467 21.1433 112.834 21.33C113.207 21.5167 113.484 21.7667 113.664 22.08C113.851 22.3933 113.944 22.7433 113.944 23.13C113.944 23.5833 113.811 23.9967 113.544 24.37C113.284 24.7367 112.881 24.9867 112.334 25.12L114.054 28H112.694ZM110.224 24.31H111.484C111.911 24.31 112.231 24.2033 112.444 23.99C112.664 23.7767 112.774 23.49 112.774 23.13C112.774 22.77 112.667 22.49 112.454 22.29C112.241 22.0833 111.917 21.98 111.484 21.98H110.224V24.31ZM120.432 23.05C120.252 22.7033 120.002 22.4433 119.682 22.27C119.362 22.09 118.992 22 118.572 22C118.112 22 117.702 22.1033 117.342 22.31C116.982 22.5167 116.699 22.81 116.492 23.19C116.292 23.57 116.192 24.01 116.192 24.51C116.192 25.01 116.292 25.4533 116.492 25.84C116.699 26.22 116.982 26.5133 117.342 26.72C117.702 26.9267 118.112 27.03 118.572 27.03C119.192 27.03 119.696 26.8567 120.082 26.51C120.469 26.1633 120.706 25.6933 120.792 25.1H118.182V24.19H122.012V25.08C121.939 25.62 121.746 26.1167 121.432 26.57C121.126 27.0233 120.722 27.3867 120.222 27.66C119.729 27.9267 119.179 28.06 118.572 28.06C117.919 28.06 117.322 27.91 116.782 27.61C116.242 27.3033 115.812 26.88 115.492 26.34C115.179 25.8 115.022 25.19 115.022 24.51C115.022 23.83 115.179 23.22 115.492 22.68C115.812 22.14 116.242 21.72 116.782 21.42C117.329 21.1133 117.926 20.96 118.572 20.96C119.312 20.96 119.969 21.1433 120.542 21.51C121.122 21.87 121.542 22.3833 121.802 23.05H120.432ZM124.277 21.97V24.01H126.677V24.94H124.277V27.07H126.977V28H123.137V21.04H126.977V21.97H124.277ZM131.991 28L130.391 25.22H129.521V28H128.381V21.05H130.781C131.314 21.05 131.764 21.1433 132.131 21.33C132.504 21.5167 132.781 21.7667 132.961 22.08C133.148 22.3933 133.241 22.7433 133.241 23.13C133.241 23.5833 133.108 23.9967 132.841 24.37C132.581 24.7367 132.178 24.9867 131.631 25.12L133.351 28H131.991ZM129.521 24.31H130.781C131.208 24.31 131.528 24.2033 131.741 23.99C131.961 23.7767 132.071 23.49 132.071 23.13C132.071 22.77 131.964 22.49 131.751 22.29C131.538 22.0833 131.214 21.98 130.781 21.98H129.521V24.31ZM139.587 28.07C139.12 28.07 138.7 27.99 138.327 27.83C137.954 27.6633 137.66 27.43 137.447 27.13C137.234 26.83 137.127 26.48 137.127 26.08H138.347C138.374 26.38 138.49 26.6267 138.697 26.82C138.91 27.0133 139.207 27.11 139.587 27.11C139.98 27.11 140.287 27.0167 140.507 26.83C140.727 26.6367 140.837 26.39 140.837 26.09C140.837 25.8567 140.767 25.6667 140.627 25.52C140.494 25.3733 140.324 25.26 140.117 25.18C139.917 25.1 139.637 25.0133 139.277 24.92C138.824 24.8 138.454 24.68 138.167 24.56C137.887 24.4333 137.647 24.24 137.447 23.98C137.247 23.72 137.147 23.3733 137.147 22.94C137.147 22.54 137.247 22.19 137.447 21.89C137.647 21.59 137.927 21.36 138.287 21.2C138.647 21.04 139.064 20.96 139.537 20.96C140.21 20.96 140.76 21.13 141.187 21.47C141.62 21.8033 141.86 22.2633 141.907 22.85H140.647C140.627 22.5967 140.507 22.38 140.287 22.2C140.067 22.02 139.777 21.93 139.417 21.93C139.09 21.93 138.824 22.0133 138.617 22.18C138.41 22.3467 138.307 22.5867 138.307 22.9C138.307 23.1133 138.37 23.29 138.497 23.43C138.63 23.5633 138.797 23.67 138.997 23.75C139.197 23.83 139.47 23.9167 139.817 24.01C140.277 24.1367 140.65 24.2633 140.937 24.39C141.23 24.5167 141.477 24.7133 141.677 24.98C141.884 25.24 141.987 25.59 141.987 26.03C141.987 26.3833 141.89 26.7167 141.697 27.03C141.51 27.3433 141.234 27.5967 140.867 27.79C140.507 27.9767 140.08 28.07 139.587 28.07ZM144.462 21.05V25.48C144.462 26.0067 144.599 26.4033 144.872 26.67C145.152 26.9367 145.539 27.07 146.032 27.07C146.532 27.07 146.919 26.9367 147.192 26.67C147.472 26.4033 147.612 26.0067 147.612 25.48V21.05H148.752V25.46C148.752 26.0267 148.629 26.5067 148.382 26.9C148.135 27.2933 147.805 27.5867 147.392 27.78C146.979 27.9733 146.522 28.07 146.022 28.07C145.522 28.07 145.065 27.9733 144.652 27.78C144.245 27.5867 143.922 27.2933 143.682 26.9C143.442 26.5067 143.322 26.0267 143.322 25.46V21.05H144.462ZM153.846 28L152.246 25.22H151.376V28H150.236V21.05H152.636C153.17 21.05 153.62 21.1433 153.986 21.33C154.36 21.5167 154.636 21.7667 154.816 22.08C155.003 22.3933 155.096 22.7433 155.096 23.13C155.096 23.5833 154.963 23.9967 154.696 24.37C154.436 24.7367 154.033 24.9867 153.486 25.12L155.206 28H153.846ZM151.376 24.31H152.636C153.063 24.31 153.383 24.2033 153.596 23.99C153.816 23.7767 153.926 23.49 153.926 23.13C153.926 22.77 153.82 22.49 153.606 22.29C153.393 22.0833 153.07 21.98 152.636 21.98H151.376V24.31Z" fill="white"/>
</svg>
