<svg width="211" height="79" viewBox="0 0 211 79" fill="none" xmlns="http://www.w3.org/2000/svg">
<path d="M70.24 21.05V21.98H68.39V28H67.25V21.98H65.39V21.05H70.24ZM72.5345 21.97V24.01H74.9345V24.94H72.5345V27.07H75.2345V28H71.3945V21.04H75.2345V21.97H72.5345ZM74.2945 19.56L72.0845 20.65V19.81L74.2945 18.59V19.56ZM77.7787 27.08H80.1287V28H76.6387V21.05H77.7787V27.08ZM82.222 21.97V24.01H84.622V24.94H82.222V27.07H84.922V28H81.082V21.04H84.922V21.97H82.222ZM83.982 19.56L81.772 20.65V19.81L83.982 18.59V19.56ZM85.9462 24.51C85.9462 23.83 86.1028 23.22 86.4162 22.68C86.7362 22.14 87.1662 21.72 87.7062 21.42C88.2528 21.1133 88.8495 20.96 89.4962 20.96C90.2362 20.96 90.8928 21.1433 91.4662 21.51C92.0462 21.87 92.4662 22.3833 92.7262 23.05H91.3562C91.1762 22.6833 90.9262 22.41 90.6062 22.23C90.2862 22.05 89.9162 21.96 89.4962 21.96C89.0362 21.96 88.6262 22.0633 88.2662 22.27C87.9062 22.4767 87.6228 22.7733 87.4162 23.16C87.2162 23.5467 87.1162 23.9967 87.1162 24.51C87.1162 25.0233 87.2162 25.4733 87.4162 25.86C87.6228 26.2467 87.9062 26.5467 88.2662 26.76C88.6262 26.9667 89.0362 27.07 89.4962 27.07C89.9162 27.07 90.2862 26.98 90.6062 26.8C90.9262 26.62 91.1762 26.3467 91.3562 25.98H92.7262C92.4662 26.6467 92.0462 27.16 91.4662 27.52C90.8928 27.88 90.2362 28.06 89.4962 28.06C88.8428 28.06 88.2462 27.91 87.7062 27.61C87.1662 27.3033 86.7362 26.88 86.4162 26.34C86.1028 25.8 85.9462 25.19 85.9462 24.51ZM99.6105 21.05V28H98.4705V24.96H95.2005V28H94.0605V21.05H95.2005V24.03H98.4705V21.05H99.6105ZM105.301 26.58H102.391L101.891 28H100.701L103.191 21.04H104.511L107.001 28H105.801L105.301 26.58ZM104.981 25.65L103.851 22.42L102.711 25.65H104.981ZM111.694 28L110.094 25.22H109.224V28H108.084V21.05H110.484C111.017 21.05 111.467 21.1433 111.834 21.33C112.207 21.5167 112.484 21.7667 112.664 22.08C112.851 22.3933 112.944 22.7433 112.944 23.13C112.944 23.5833 112.811 23.9967 112.544 24.37C112.284 24.7367 111.881 24.9867 111.334 25.12L113.054 28H111.694ZM109.224 24.31H110.484C110.911 24.31 111.231 24.2033 111.444 23.99C111.664 23.7767 111.774 23.49 111.774 23.13C111.774 22.77 111.667 22.49 111.454 22.29C111.241 22.0833 110.917 21.98 110.484 21.98H109.224V24.31ZM119.432 23.05C119.252 22.7033 119.002 22.4433 118.682 22.27C118.362 22.09 117.992 22 117.572 22C117.112 22 116.702 22.1033 116.342 22.31C115.982 22.5167 115.699 22.81 115.492 23.19C115.292 23.57 115.192 24.01 115.192 24.51C115.192 25.01 115.292 25.4533 115.492 25.84C115.699 26.22 115.982 26.5133 116.342 26.72C116.702 26.9267 117.112 27.03 117.572 27.03C118.192 27.03 118.696 26.8567 119.082 26.51C119.469 26.1633 119.706 25.6933 119.792 25.1H117.182V24.19H121.012V25.08C120.939 25.62 120.746 26.1167 120.432 26.57C120.126 27.0233 119.722 27.3867 119.222 27.66C118.729 27.9267 118.179 28.06 117.572 28.06C116.919 28.06 116.322 27.91 115.782 27.61C115.242 27.3033 114.812 26.88 114.492 26.34C114.179 25.8 114.022 25.19 114.022 24.51C114.022 23.83 114.179 23.22 114.492 22.68C114.812 22.14 115.242 21.72 115.782 21.42C116.329 21.1133 116.926 20.96 117.572 20.96C118.312 20.96 118.969 21.1433 119.542 21.51C120.122 21.87 120.542 22.3833 120.802 23.05H119.432ZM123.277 21.97V24.01H125.677V24.94H123.277V27.07H125.977V28H122.137V21.04H125.977V21.97H123.277ZM130.991 28L129.391 25.22H128.521V28H127.381V21.05H129.781C130.314 21.05 130.764 21.1433 131.131 21.33C131.504 21.5167 131.781 21.7667 131.961 22.08C132.148 22.3933 132.241 22.7433 132.241 23.13C132.241 23.5833 132.108 23.9967 131.841 24.37C131.581 24.7367 131.178 24.9867 130.631 25.12L132.351 28H130.991ZM128.521 24.31H129.781C130.208 24.31 130.528 24.2033 130.741 23.99C130.961 23.7767 131.071 23.49 131.071 23.13C131.071 22.77 130.964 22.49 130.751 22.29C130.538 22.0833 130.214 21.98 129.781 21.98H128.521V24.31ZM138.587 28.07C138.12 28.07 137.7 27.99 137.327 27.83C136.954 27.6633 136.66 27.43 136.447 27.13C136.234 26.83 136.127 26.48 136.127 26.08H137.347C137.374 26.38 137.49 26.6267 137.697 26.82C137.91 27.0133 138.207 27.11 138.587 27.11C138.98 27.11 139.287 27.0167 139.507 26.83C139.727 26.6367 139.837 26.39 139.837 26.09C139.837 25.8567 139.767 25.6667 139.627 25.52C139.494 25.3733 139.324 25.26 139.117 25.18C138.917 25.1 138.637 25.0133 138.277 24.92C137.824 24.8 137.454 24.68 137.167 24.56C136.887 24.4333 136.647 24.24 136.447 23.98C136.247 23.72 136.147 23.3733 136.147 22.94C136.147 22.54 136.247 22.19 136.447 21.89C136.647 21.59 136.927 21.36 137.287 21.2C137.647 21.04 138.064 20.96 138.537 20.96C139.21 20.96 139.76 21.13 140.187 21.47C140.62 21.8033 140.86 22.2633 140.907 22.85H139.647C139.627 22.5967 139.507 22.38 139.287 22.2C139.067 22.02 138.777 21.93 138.417 21.93C138.09 21.93 137.824 22.0133 137.617 22.18C137.41 22.3467 137.307 22.5867 137.307 22.9C137.307 23.1133 137.37 23.29 137.497 23.43C137.63 23.5633 137.797 23.67 137.997 23.75C138.197 23.83 138.47 23.9167 138.817 24.01C139.277 24.1367 139.65 24.2633 139.937 24.39C140.23 24.5167 140.477 24.7133 140.677 24.98C140.884 25.24 140.987 25.59 140.987 26.03C140.987 26.3833 140.89 26.7167 140.697 27.03C140.51 27.3433 140.234 27.5967 139.867 27.79C139.507 27.9767 139.08 28.07 138.587 28.07ZM143.462 21.05V25.48C143.462 26.0067 143.599 26.4033 143.872 26.67C144.152 26.9367 144.539 27.07 145.032 27.07C145.532 27.07 145.919 26.9367 146.192 26.67C146.472 26.4033 146.612 26.0067 146.612 25.48V21.05H147.752V25.46C147.752 26.0267 147.629 26.5067 147.382 26.9C147.135 27.2933 146.805 27.5867 146.392 27.78C145.979 27.9733 145.522 28.07 145.022 28.07C144.522 28.07 144.065 27.9733 143.652 27.78C143.245 27.5867 142.922 27.2933 142.682 26.9C142.442 26.5067 142.322 26.0267 142.322 25.46V21.05H143.462ZM152.846 28L151.246 25.22H150.376V28H149.236V21.05H151.636C152.17 21.05 152.62 21.1433 152.986 21.33C153.36 21.5167 153.636 21.7667 153.816 22.08C154.003 22.3933 154.096 22.7433 154.096 23.13C154.096 23.5833 153.963 23.9967 153.696 24.37C153.436 24.7367 153.033 24.9867 152.486 25.12L154.206 28H152.846ZM150.376 24.31H151.636C152.063 24.31 152.383 24.2033 152.596 23.99C152.816 23.7767 152.926 23.49 152.926 23.13C152.926 22.77 152.82 22.49 152.606 22.29C152.393 22.0833 152.07 21.98 151.636 21.98H150.376V24.31Z" fill="white"/>
<g filter="url(#filter0_ii_144_15350)">
<path d="M20.6599 21.1609C20.2071 21.6421 19.9395 22.3888 19.9395 23.3557V57.9045C19.9395 58.873 20.2071 59.6182 20.6599 60.0993V60.0993C20.7237 60.1616 20.8257 60.1609 20.8887 60.0978L39.8924 41.0198C39.9955 40.9163 40.0534 40.7762 40.0534 40.6301V40.6301V40.6301C40.0534 40.4841 39.9955 40.3439 39.8924 40.2405L20.8894 21.1617C20.8262 21.0982 20.7236 21.0979 20.6599 21.1609V21.1609Z" fill="white"/>
<path d="M46.626 47.2292C46.5395 47.2772 46.4316 47.262 46.3617 47.1918L40.2156 41.0187C40.1125 40.9152 40.0547 40.7751 40.0547 40.629V40.629V40.629C40.0547 40.483 40.1126 40.3428 40.2156 40.2394L46.3636 34.0673C46.4331 33.9976 46.5406 33.9832 46.626 34.032V34.032L54.2399 38.3748C56.4138 39.6152 56.4138 41.6444 54.2399 42.8863L46.626 47.2292V47.2292Z" fill="white"/>
<g filter="url(#filter1_i_144_15350)">
<path d="M42.0487 49.8381C44.3546 48.5227 44.7803 45.3756 42.9068 43.4948V43.4948C41.332 41.9138 38.7722 41.9139 37.1974 43.4949L23.132 57.6165C21.7536 59.0003 22.1964 61.1613 23.8937 60.195V60.195L42.0487 49.8381Z" fill="white"/>
</g>
<path d="M42.9083 37.7629C44.7812 35.8819 44.3551 32.7352 42.0493 31.4201L23.8937 21.0641V21.0641C22.197 20.0961 21.7539 22.2589 23.1324 23.6428L37.1982 37.7636C38.7733 39.3448 41.3336 39.3445 42.9083 37.7629V37.7629Z" fill="white"/>
</g>
<path d="M104.708 42.5192C101.251 42.5192 98.4339 45.1471 98.4339 48.7666C98.4339 52.364 101.251 55.0139 104.708 55.0139C108.166 55.0139 110.983 52.364 110.983 48.7666C110.982 45.1471 108.165 42.5192 104.708 42.5192ZM104.708 52.5549C102.813 52.5549 101.181 50.9935 101.181 48.768C101.181 46.5191 102.815 44.9811 104.708 44.9811C106.602 44.9811 108.235 46.5191 108.235 48.768C108.235 50.992 106.602 52.5549 104.708 52.5549ZM91.0194 42.5192C87.5627 42.5192 84.7454 45.1471 84.7454 48.7666C84.7454 52.364 87.5627 55.0139 91.0194 55.0139C94.4775 55.0139 97.2949 52.364 97.2949 48.7666C97.2949 45.1471 94.4775 42.5192 91.0194 42.5192ZM91.0194 52.5549C89.125 52.5549 87.4922 50.9935 87.4922 48.768C87.4922 46.5191 89.1265 44.9811 91.0194 44.9811C92.9138 44.9811 94.5466 46.5191 94.5466 48.768C94.5481 50.992 92.9138 52.5549 91.0194 52.5549ZM76.0633 44.4374C75.3315 44.4375 74.7384 45.0308 74.7384 45.7625C74.7384 46.4943 75.3317 47.0876 76.0635 47.0876H77.7105C79.5007 47.0876 81.0261 48.8206 79.8634 50.1819C79.7916 50.2659 79.717 50.3464 79.6397 50.4235C78.7168 51.346 77.2721 52.364 74.7384 52.364C70.832 52.364 67.778 49.2161 67.778 45.3117C67.778 41.4072 70.832 38.2593 74.7384 38.2593C76.2792 38.2593 77.5161 38.7022 78.5138 39.3565C79.113 39.7495 79.923 39.7507 80.4298 39.2441C80.9573 38.7169 80.9529 37.8496 80.3526 37.4072C78.9096 36.3437 77.0945 35.6094 74.7384 35.6094C69.3873 35.6094 64.8887 39.9633 64.8887 45.3117C64.8887 50.66 69.3873 55.0139 74.7384 55.0139C77.6263 55.0139 79.8058 54.0665 81.5092 52.292C83.261 50.541 83.8063 48.0791 83.8063 46.0917C83.8063 45.1236 82.9675 44.4363 81.9995 44.4364L76.0633 44.4374ZM141.326 46.4956C140.806 45.1001 139.219 42.5192 135.975 42.5192C132.755 42.5192 130.079 45.0517 130.079 48.7666C130.079 52.2685 132.732 55.0139 136.282 55.0139C138.333 55.0139 139.765 54.1168 140.665 53.2336C141.173 52.7352 141.01 51.9237 140.418 51.5289C139.833 51.1387 139.06 51.3204 138.518 51.7687C137.924 52.2604 137.194 52.552 136.282 52.552C134.241 52.552 134.865 49.9916 136.751 49.2119L140.905 47.495C141.295 47.3336 141.483 46.8879 141.326 46.4956ZM136.134 47.196C134.526 47.8633 132.889 46.4551 134.34 45.492C134.898 45.121 135.526 44.9341 136.071 44.9341C136.202 44.9341 136.331 44.9421 136.456 44.9573C137.803 45.1212 137.386 46.6761 136.134 47.196ZM126.008 53.2637C126.008 54.0219 126.622 54.6364 127.38 54.6364C128.139 54.6364 128.753 54.0218 128.753 53.2637V37.646C128.753 36.8879 128.139 36.2733 127.38 36.2733C126.622 36.2733 126.008 36.8879 126.008 37.646V53.2637ZM121.508 43.8521C121.508 43.8875 121.479 43.9162 121.444 43.9162C121.425 43.9162 121.407 43.9079 121.394 43.8935C120.773 43.1681 119.598 42.5192 118.123 42.5192C114.997 42.5192 112.133 45.2646 112.133 48.7915C112.133 52.2935 114.997 55.0154 118.123 55.0154C119.599 55.0154 120.774 54.3664 121.394 53.6197C121.407 53.6049 121.425 53.5964 121.444 53.5964C121.479 53.5964 121.508 53.625 121.508 53.6602V54.4954C121.508 56.8853 120.229 58.1633 118.17 58.1633C117.084 58.1633 116.265 57.6604 115.706 57.0299C115.232 56.4948 114.486 56.1616 113.826 56.4363C113.165 56.7112 112.844 57.4792 113.255 58.0655C114.184 59.3925 115.811 60.6252 118.17 60.6252C121.39 60.6252 124.113 58.7318 124.113 54.1164V44.2027C124.113 43.4831 123.53 42.8997 122.81 42.8997H122.017C121.737 42.8997 121.509 43.1271 121.508 43.4079L121.508 43.8521ZM118.36 52.5549C116.465 52.5549 114.879 50.9685 114.879 48.7915C114.879 46.5896 116.465 44.9811 118.36 44.9811C120.229 44.9811 121.697 46.5896 121.697 48.7915C121.697 50.9685 120.229 52.5549 118.36 52.5549ZM154.192 36.2733C150.563 36.2733 147.621 39.2152 147.621 42.8442V53.266C147.621 54.0228 148.234 54.6364 148.991 54.6364C149.748 54.6364 150.362 54.0228 150.362 53.266V51.158C150.362 49.2369 151.919 47.6796 153.84 47.6796H154.19C157.229 47.6796 160.219 45.4806 160.219 41.9772C160.219 38.4738 157.231 36.2733 154.192 36.2733ZM154.262 45.1236H153.509C151.771 45.1236 150.362 43.7146 150.362 41.9764C150.362 40.2383 151.771 38.8293 153.509 38.8293H154.262C156.312 38.8293 157.476 40.5259 157.476 41.9772C157.476 43.3991 156.312 45.1236 154.262 45.1236ZM171.21 42.4869C169.675 42.4869 168.097 43.0098 167.067 44.1433C166.556 44.7053 166.893 45.5383 167.594 45.8306C168.248 46.1032 168.982 45.7707 169.58 45.3918C170.067 45.0837 170.654 44.9665 171.257 44.9665C172.676 44.9665 174.117 45.817 174.141 47.3285C174.141 47.413 174.05 47.4667 173.974 47.4287C173.428 47.1534 172.449 46.81 171.281 46.81C168.658 46.81 165.986 48.251 165.986 50.9435C165.986 53.401 168.137 54.9831 170.548 54.9831C172.373 54.9831 173.388 54.1716 174.027 53.214C174.039 53.1969 174.058 53.1866 174.078 53.1866C174.112 53.1866 174.139 53.2139 174.139 53.2477V53.8953C174.139 54.2868 174.457 54.6041 174.848 54.6041H175.464C176.195 54.6041 176.788 54.0112 176.788 53.2799V47.5635C176.789 44.3054 174.353 42.4869 171.21 42.4869ZM170.878 52.5505C169.982 52.5505 168.728 52.101 168.728 50.9905C168.728 49.573 170.289 49.0295 171.637 49.0295C173.195 49.0295 174.113 50.8938 172.883 51.8514C172.314 52.2944 171.609 52.5505 170.878 52.5505ZM187.372 42.8879C186.805 42.8879 186.295 43.2347 186.087 43.7624L183.306 50.8055C183.295 50.832 183.269 50.8495 183.241 50.8495C183.213 50.8495 183.187 50.8324 183.176 50.8063L180.273 43.7204C180.066 43.2168 179.576 42.8879 179.032 42.8879C178.064 42.8879 177.415 43.8824 177.804 44.7686L181.259 52.6266C181.648 53.5104 181.643 54.5177 181.247 55.3979L179.906 58.3733C179.519 59.2326 180.147 60.2051 181.09 60.2051C181.606 60.2051 182.074 59.8988 182.28 59.4251L188.639 44.8218C189.037 43.9089 188.368 42.8879 187.372 42.8879ZM161.733 53.2659C161.733 54.0228 162.346 54.6364 163.103 54.6364C163.86 54.6364 164.473 54.0228 164.473 53.2659V37.6438C164.473 36.8869 163.86 36.2733 163.103 36.2733C162.346 36.2733 161.733 36.8869 161.733 37.6438V53.2659Z" fill="white"/>
<defs>
<filter id="filter0_ii_144_15350" x="19.9395" y="20.8242" width="35.9316" height="39.6133" filterUnits="userSpaceOnUse" color-interpolation-filters="sRGB">
<feFlood flood-opacity="0" result="BackgroundImageFix"/>
<feBlend mode="normal" in="SourceGraphic" in2="BackgroundImageFix" result="shape"/>
<feColorMatrix in="SourceAlpha" type="matrix" values="0 0 0 0 0 0 0 0 0 0 0 0 0 0 0 0 0 0 127 0" result="hardAlpha"/>
<feOffset dy="-0.795"/>
<feComposite in2="hardAlpha" operator="arithmetic" k2="-1" k3="1"/>
<feColorMatrix type="matrix" values="0 0 0 0 0 0 0 0 0 0 0 0 0 0 0 0 0 0 0.12 0"/>
<feBlend mode="normal" in2="shape" result="effect1_innerShadow_144_15350"/>
<feColorMatrix in="SourceAlpha" type="matrix" values="0 0 0 0 0 0 0 0 0 0 0 0 0 0 0 0 0 0 127 0" result="hardAlpha"/>
<feOffset dy="0.795"/>
<feComposite in2="hardAlpha" operator="arithmetic" k2="-1" k3="1"/>
<feColorMatrix type="matrix" values="0 0 0 0 1 0 0 0 0 1 0 0 0 0 1 0 0 0 0.25 0"/>
<feBlend mode="normal" in2="effect1_innerShadow_144_15350" result="effect2_innerShadow_144_15350"/>
</filter>
<filter id="filter1_i_144_15350" x="22.3164" y="42.3086" width="21.7656" height="18.1289" filterUnits="userSpaceOnUse" color-interpolation-filters="sRGB">
<feFlood flood-opacity="0" result="BackgroundImageFix"/>
<feBlend mode="normal" in="SourceGraphic" in2="BackgroundImageFix" result="shape"/>
<feColorMatrix in="SourceAlpha" type="matrix" values="0 0 0 0 0 0 0 0 0 0 0 0 0 0 0 0 0 0 127 0" result="hardAlpha"/>
<feOffset dy="-0.795"/>
<feComposite in2="hardAlpha" operator="arithmetic" k2="-1" k3="1"/>
<feColorMatrix type="matrix" values="0 0 0 0 0 0 0 0 0 0 0 0 0 0 0 0 0 0 0.08 0"/>
<feBlend mode="normal" in2="shape" result="effect1_innerShadow_144_15350"/>
</filter>
</defs>
</svg>
