<svg width="43" height="43" viewBox="0 0 43 43" fill="none" xmlns="http://www.w3.org/2000/svg">
<rect x="1.38867" y="1.625" width="40" height="40" rx="16" fill="#C8B289"/>
<rect x="1.38867" y="1.625" width="40" height="40" rx="16" fill="url(#paint0_linear_144_15672)"/>
<path d="M30.3204 14.8983C30.5804 14.8983 30.8001 14.9902 30.9794 15.1741C31.1587 15.358 31.2484 15.58 31.2484 15.8402V19.3117C31.2484 19.7871 31.1587 20.2311 30.9794 20.6438C30.8001 21.0654 30.5557 21.4309 30.2464 21.7404C29.9371 22.0499 29.5717 22.2943 29.1503 22.4737C28.7289 22.6621 28.2806 22.7563 27.8054 22.7563H12.8499C12.5899 22.7563 12.368 22.6643 12.1842 22.4804C12.0004 22.2965 11.9085 22.0745 11.9085 21.8144C11.9085 21.5542 12.0004 21.3322 12.1842 21.1483C12.368 20.9645 12.5899 20.8725 12.8499 20.8725H27.8054C28.2447 20.8725 28.6168 20.72 28.9217 20.415C29.2265 20.11 29.3789 19.7422 29.3789 19.3117V15.8402C29.3789 15.58 29.4708 15.358 29.6546 15.1741C29.8385 14.9902 30.0604 14.8983 30.3204 14.8983ZM18.0279 27.8559C17.8396 28.0353 17.6177 28.125 17.3621 28.125C17.1066 28.125 16.8847 28.0353 16.6964 27.8559L12.2178 23.3618C11.7875 22.9312 11.5723 22.4132 11.5723 21.8077C11.5723 21.2022 11.7875 20.6886 12.2178 20.267L16.6964 15.7729C16.8847 15.5845 17.1066 15.4903 17.3621 15.4903C17.6177 15.4903 17.8396 15.5845 18.0279 15.7729C18.2072 15.9523 18.2968 16.1721 18.2968 16.4322C18.2968 16.6923 18.2072 16.9166 18.0279 17.105L13.5358 21.5856C13.4731 21.6484 13.4417 21.7224 13.4417 21.8077C13.4417 21.8929 13.4731 21.9669 13.5358 22.0297L18.0279 26.5238C18.2072 26.7032 18.2968 26.923 18.2968 27.1831C18.2968 27.4433 18.2072 27.6675 18.0279 27.8559Z" fill="white"/>
<rect x="0.388672" y="0.625" width="42" height="42" rx="16" fill="url(#paint1_linear_144_15672)"/>
<defs>
<linearGradient id="paint0_linear_144_15672" x1="21.3887" y1="1.625" x2="21.3887" y2="41.625" gradientUnits="userSpaceOnUse">
<stop stop-color="white" stop-opacity="0.1"/>
<stop offset="1" stop-color="#999999" stop-opacity="0.1"/>
</linearGradient>
<linearGradient id="paint1_linear_144_15672" x1="21.3887" y1="0.625" x2="21.3887" y2="42.625" gradientUnits="userSpaceOnUse">
<stop stop-color="white" stop-opacity="0.3"/>
<stop offset="1" stop-color="#646464" stop-opacity="0.06"/>
</linearGradient>
</defs>
</svg>
