<svg width="33" height="33" viewBox="0 0 33 33" fill="none" xmlns="http://www.w3.org/2000/svg">
<g clip-path="url(#clip0_144_15228)">
<g clip-path="url(#clip1_144_15228)">
<g clip-path="url(#clip2_144_15228)">
<path d="M24.748 0.808594H8.74805C4.32977 0.808594 0.748047 4.39032 0.748047 8.80859V24.8086C0.748047 29.2269 4.32977 32.8086 8.74805 32.8086H24.748C29.1663 32.8086 32.748 29.2269 32.748 24.8086V8.80859C32.748 4.39032 29.1663 0.808594 24.748 0.808594Z" fill="#FF843C"/>
<path d="M12.1909 12.2979C13.6036 10.8852 13.7208 8.63747 12.5293 7.08689C12.3855 6.89964 12.1083 6.88078 11.9413 7.04773L7.02605 11.9631C6.86287 12.1262 6.87718 12.3953 7.05471 12.5427C8.55761 13.7909 10.775 13.7138 12.1909 12.2979Z" fill="#FFBDAD"/>
<path d="M8.86522 29.147L4.46549 24.7473C4.31359 24.5954 4.31359 24.3492 4.46549 24.1973L10.3379 18.3248C10.4898 18.173 10.736 18.173 10.8879 18.3248L15.2876 22.7246C15.4395 22.8765 15.4395 23.1227 15.2876 23.2746L9.41523 29.147C9.26333 29.2989 9.01712 29.2989 8.86522 29.147Z" fill="#FFDECB"/>
<path d="M22.6641 15.3462L18.2643 10.9465C18.1124 10.7946 18.1124 10.5484 18.2643 10.3965L24.1367 4.52408C24.2886 4.37218 24.5348 4.37218 24.6867 4.52408L29.0864 8.92381C29.2383 9.07571 29.2383 9.32192 29.0864 9.47382L23.214 15.3462C23.0622 15.4981 22.8159 15.4981 22.6641 15.3462Z" fill="#FFDECB"/>
<path d="M22.9395 18.0503L17.9898 23.0001C17.8379 23.1519 17.5917 23.1519 17.4398 23.0001L11.9401 17.5004C11.7882 17.3485 11.7882 17.1023 11.9401 16.9504L16.8898 12.0006C17.0417 11.8488 17.288 11.8488 17.4398 12.0006L22.9395 17.5004C23.0914 17.6522 23.0914 17.8985 22.9395 18.0503Z" fill="#FFBDAD"/>
<path d="M16.8905 12.0013L11.9407 16.951C11.7889 17.1029 11.5426 17.1029 11.3907 16.951L9.74085 15.3011C9.58899 15.1492 9.58899 14.903 9.74085 14.7511L14.6906 9.8014C14.8424 9.64953 15.0887 9.64953 15.2406 9.8014L16.8905 11.4513C17.0424 11.6032 17.0424 11.8494 16.8905 12.0013Z" fill="#F96D49"/>
<path d="M23.4898 20.2505L20.19 23.5504C20.0381 23.7022 19.7919 23.7022 19.64 23.5504L18.8151 22.7254C18.6632 22.5736 18.6632 22.3273 18.8151 22.1755L22.1149 18.8756C22.2668 18.7238 22.513 18.7238 22.6649 18.8756L23.4898 19.7006C23.6417 19.8525 23.6417 20.0987 23.4898 20.2505Z" fill="#F96D49"/>
<path d="M8.08935 8.15153C8.39309 7.84779 8.39309 7.35533 8.08935 7.0516C7.78561 6.74786 7.29316 6.74786 6.98942 7.0516C6.68568 7.35533 6.68568 7.84779 6.98942 8.15153C7.29316 8.45527 7.78561 8.45527 8.08935 8.15153Z" fill="#FFDECB"/>
<path d="M20.443 13.1133L19.498 14.0583" stroke="#FFDECB" stroke-width="0.4" stroke-miterlimit="10"/>
<path d="M13.9988 19.5586L13.0616 20.4997L12.8594 20.698" stroke="#FFDECB" stroke-width="0.4" stroke-miterlimit="10"/>
<path d="M7.41602 8.25V11.3611" stroke="#FFDECB" stroke-width="0.4" stroke-miterlimit="10"/>
<path d="M11.6934 7.47266H8.19336" stroke="#FFDECB" stroke-width="0.4" stroke-miterlimit="10"/>
<path d="M12.1909 12.2979C13.6036 10.8852 13.7208 8.63747 12.5293 7.08689C12.3855 6.89964 12.1083 6.88078 11.9413 7.04773L7.02605 11.9631C6.86287 12.1262 6.87718 12.3953 7.05471 12.5427C8.55761 13.7909 10.775 13.7138 12.1909 12.2979Z" stroke="#FFDECB" stroke-width="0.4" stroke-miterlimit="10" stroke-linecap="round" stroke-linejoin="round"/>
<path d="M8.86522 29.147L4.46549 24.7473C4.31359 24.5954 4.31359 24.3492 4.46549 24.1973L10.3379 18.3248C10.4898 18.173 10.736 18.173 10.8879 18.3248L15.2876 22.7246C15.4395 22.8765 15.4395 23.1227 15.2876 23.2746L9.41523 29.147C9.26333 29.2989 9.01712 29.2989 8.86522 29.147Z" stroke="#FFDECB" stroke-width="0.4" stroke-miterlimit="10" stroke-linecap="round" stroke-linejoin="round"/>
<path d="M22.666 15.3462L18.2662 10.9465C18.1144 10.7946 18.1144 10.5484 18.2662 10.3965L24.1387 4.52408C24.2906 4.37218 24.5368 4.37218 24.6887 4.52408L29.0884 8.92381C29.2403 9.07571 29.2403 9.32192 29.0884 9.47382L23.216 15.3462C23.0641 15.4981 22.8179 15.4981 22.666 15.3462Z" stroke="#FFDECB" stroke-width="0.4" stroke-miterlimit="10" stroke-linecap="round" stroke-linejoin="round"/>
<path d="M22.9395 18.0503L17.9898 23.0001C17.8379 23.1519 17.5917 23.1519 17.4398 23.0001L11.9401 17.5004C11.7882 17.3485 11.7882 17.1023 11.9401 16.9504L16.8898 12.0006C17.0417 11.8488 17.288 11.8488 17.4398 12.0006L22.9395 17.5004C23.0914 17.6522 23.0914 17.8985 22.9395 18.0503Z" stroke="#FFDECB" stroke-width="0.4" stroke-miterlimit="10" stroke-linecap="round" stroke-linejoin="round"/>
<path d="M16.8905 11.9974L11.9407 16.9471C11.7889 17.099 11.5426 17.099 11.3907 16.9471L9.74085 15.2972C9.58899 15.1453 9.58899 14.8991 9.74085 14.7472L14.6906 9.79749C14.8424 9.64563 15.0887 9.64563 15.2406 9.79749L16.8905 11.4474C17.0424 11.5993 17.0424 11.8455 16.8905 11.9974Z" stroke="#FFDECB" stroke-width="0.4" stroke-miterlimit="10" stroke-linecap="round" stroke-linejoin="round"/>
<path d="M23.4898 20.2505L20.19 23.5504C20.0381 23.7022 19.7919 23.7022 19.64 23.5504L18.8151 22.7254C18.6632 22.5736 18.6632 22.3273 18.8151 22.1755L22.1149 18.8756C22.2668 18.7238 22.513 18.7238 22.6649 18.8756L23.4898 19.7006C23.6417 19.8525 23.6417 20.0987 23.4898 20.2505Z" stroke="#FFDECB" stroke-width="0.4" stroke-miterlimit="10" stroke-linecap="round" stroke-linejoin="round"/>
<path d="M8.09131 8.14762C8.39504 7.84388 8.39504 7.35143 8.09131 7.04769C7.78757 6.74395 7.29511 6.74395 6.99137 7.04769C6.68763 7.35143 6.68763 7.84388 6.99137 8.14762C7.29511 8.45136 7.78757 8.45136 8.09131 8.14762Z" stroke="#FFDECB" stroke-width="0.4" stroke-miterlimit="10" stroke-linecap="round" stroke-linejoin="round"/>
</g>
</g>
</g>
<defs>
<clipPath id="clip0_144_15228">
<rect width="32" height="32" fill="white" transform="translate(0.748047 0.808594)"/>
</clipPath>
<clipPath id="clip1_144_15228">
<rect width="32" height="32" fill="white" transform="translate(0.748047 0.808594)"/>
</clipPath>
<clipPath id="clip2_144_15228">
<rect width="32" height="32" fill="white" transform="translate(0.748047 0.808594)"/>
</clipPath>
</defs>
</svg>
