<svg width="43" height="43" viewBox="0 0 43 43" fill="none" xmlns="http://www.w3.org/2000/svg">
<rect x="1.05859" y="1.86719" width="40" height="40" rx="16" fill="#EE542D"/>
<rect x="1.05859" y="1.86719" width="40" height="40" rx="16" fill="url(#paint0_linear_144_15261)"/>
<path d="M29.9893 15.1405C30.2495 15.1405 30.4693 15.2324 30.6487 15.4163C30.8281 15.6002 30.9178 15.8222 30.9178 16.0823V19.5539C30.9178 20.0293 30.8281 20.4733 30.6487 20.8859C30.4693 21.3076 30.2248 21.6731 29.9153 21.9826C29.6059 22.292 29.2403 22.5365 28.8187 22.7159C28.3971 22.9043 27.9486 22.9985 27.4732 22.9985H12.5107C12.2506 22.9985 12.0285 22.9065 11.8446 22.7226C11.6608 22.5387 11.5688 22.3167 11.5688 22.0566C11.5688 21.7964 11.6608 21.5744 11.8446 21.3905C12.0285 21.2066 12.2506 21.1147 12.5107 21.1147H27.4732C27.9127 21.1147 28.285 20.9622 28.59 20.6572C28.895 20.3522 29.0475 19.9844 29.0475 19.5539V16.0823C29.0475 15.8222 29.1394 15.6002 29.3233 15.4163C29.5072 15.2324 29.7292 15.1405 29.9893 15.1405ZM17.691 28.0981C17.5027 28.2775 17.2807 28.3672 17.025 28.3672C16.7693 28.3672 16.5473 28.2775 16.359 28.0981L11.8783 23.604C11.4477 23.1734 11.2324 22.6553 11.2324 22.0498C11.2324 21.4444 11.4477 20.9308 11.8783 20.5092L16.359 16.0151C16.5473 15.8267 16.7693 15.7325 17.025 15.7325C17.2807 15.7325 17.5027 15.8267 17.691 16.0151C17.8705 16.1945 17.9602 16.4142 17.9602 16.6744C17.9602 16.9345 17.8705 17.1588 17.691 17.3472L13.1969 21.8278C13.1341 21.8906 13.1027 21.9646 13.1027 22.0498C13.1027 22.1351 13.1341 22.2091 13.1969 22.2719L17.691 26.766C17.8705 26.9454 17.9602 27.1652 17.9602 27.4253C17.9602 27.6854 17.8705 27.9097 17.691 28.0981Z" fill="white"/>
<rect x="0.0585938" y="0.867188" width="42" height="42" rx="16" fill="url(#paint1_linear_144_15261)"/>
<defs>
<linearGradient id="paint0_linear_144_15261" x1="21.0586" y1="1.86719" x2="21.0586" y2="41.8672" gradientUnits="userSpaceOnUse">
<stop stop-color="white" stop-opacity="0.1"/>
<stop offset="1" stop-color="#999999" stop-opacity="0.1"/>
</linearGradient>
<linearGradient id="paint1_linear_144_15261" x1="21.0586" y1="0.867187" x2="21.0586" y2="42.8672" gradientUnits="userSpaceOnUse">
<stop stop-color="white" stop-opacity="0.3"/>
<stop offset="1" stop-color="#646464" stop-opacity="0.06"/>
</linearGradient>
</defs>
</svg>
