<svg width="33" height="33" viewBox="0 0 33 33" fill="none" xmlns="http://www.w3.org/2000/svg">
<g clip-path="url(#clip0_144_15655)">
<g clip-path="url(#clip1_144_15655)">
<path d="M26.6348 0.851562H6.63477C3.32106 0.851562 0.634766 3.53785 0.634766 6.85156V26.8516C0.634766 30.1653 3.32106 32.8516 6.63477 32.8516H26.6348C29.9485 32.8516 32.6348 30.1653 32.6348 26.8516V6.85156C32.6348 3.53785 29.9485 0.851562 26.6348 0.851562Z" fill="#FFE9AB"/>
<path d="M19.9907 8.35156H13.2867C10.3747 8.35156 8.63867 10.0876 8.63867 12.9996V19.6956C8.63867 22.6156 10.3747 24.3516 13.2867 24.3516H19.9827C22.8947 24.3516 24.6307 22.6156 24.6307 19.7036V12.9996C24.6387 10.0876 22.9027 8.35156 19.9907 8.35156ZM15.7987 20.7596C15.5667 20.9916 15.1267 21.2156 14.8067 21.2636L12.8387 21.5436C12.7667 21.5516 12.6947 21.5596 12.6227 21.5596C12.2947 21.5596 11.9907 21.4476 11.7747 21.2316C11.5107 20.9676 11.3987 20.5836 11.4627 20.1596L11.7427 18.1916C11.7907 17.8636 12.0067 17.4316 12.2467 17.1996L15.8147 13.6316C15.8787 13.7996 15.9427 13.9676 16.0307 14.1596C16.1107 14.3276 16.1987 14.5036 16.2947 14.6636C16.3747 14.7996 16.4627 14.9276 16.5347 15.0236C16.6227 15.1596 16.7267 15.2876 16.7907 15.3596C16.8307 15.4156 16.8627 15.4556 16.8787 15.4716C17.0787 15.7116 17.3107 15.9356 17.5107 16.1036C17.5667 16.1596 17.5987 16.1916 17.6147 16.1996C17.7347 16.2956 17.8547 16.3916 17.9587 16.4636C18.0867 16.5596 18.2147 16.6476 18.3507 16.7196C18.5107 16.8156 18.6867 16.9036 18.8627 16.9916C19.0467 17.0716 19.2147 17.1436 19.3827 17.1996L15.7987 20.7596ZM20.9347 15.6236L20.1987 16.3676C20.1507 16.4156 20.0867 16.4396 20.0227 16.4396C19.9987 16.4396 19.9667 16.4396 19.9507 16.4316C18.3267 15.9676 17.0307 14.6716 16.5667 13.0476C16.5427 12.9596 16.5667 12.8636 16.6307 12.8076L17.3747 12.0636C18.5907 10.8476 19.7507 10.8716 20.9427 12.0636C21.5507 12.6716 21.8467 13.2556 21.8467 13.8636C21.8387 14.4396 21.5427 15.0156 20.9347 15.6236Z" fill="url(#paint0_linear_144_15655)" stroke="url(#paint1_linear_144_15655)"/>
</g>
</g>
<defs>
<linearGradient id="paint0_linear_144_15655" x1="16.6347" y1="8.35156" x2="16.6347" y2="24.3516" gradientUnits="userSpaceOnUse">
<stop stop-color="#E7B632" stop-opacity="0.1"/>
<stop offset="1" stop-color="#F4B300"/>
</linearGradient>
<linearGradient id="paint1_linear_144_15655" x1="16.7587" y1="7.93049" x2="16.7587" y2="24.7734" gradientUnits="userSpaceOnUse">
<stop stop-color="#FFE9AC" stop-opacity="0.1"/>
<stop offset="1" stop-color="#F2BF35"/>
</linearGradient>
<clipPath id="clip0_144_15655">
<rect width="32" height="32" fill="white" transform="translate(0.634766 0.851562)"/>
</clipPath>
<clipPath id="clip1_144_15655">
<rect width="32" height="32" fill="white" transform="translate(0.634766 0.851562)"/>
</clipPath>
</defs>
</svg>
