<svg width="57" height="57" viewBox="0 0 57 57" fill="none" xmlns="http://www.w3.org/2000/svg">
<rect x="0.828125" y="0.359375" width="56" height="56" rx="15" fill="white"/>
<g filter="url(#filter0_d_144_15160)">
<path d="M19.7888 17.3477C17.2929 17.3477 15.2695 19.3711 15.2695 21.8671V22.3219L28.8274 29.6226L42.3849 22.3222V21.8671C42.3849 19.3711 40.3617 17.3477 37.8657 17.3477H19.7888Z" fill="url(#paint0_linear_144_15160)" stroke="url(#paint1_linear_144_15160)"/>
<path d="M42.3849 24.3127L29.3631 31.3248C29.0287 31.5048 28.6262 31.5048 28.2918 31.3248L15.2695 24.3125V34.8494C15.2695 37.3454 17.2929 39.3688 19.7888 39.3688H37.8657C40.3617 39.3688 42.3849 37.3454 42.3849 34.8494V24.3127Z" fill="url(#paint2_linear_144_15160)" stroke="url(#paint3_linear_144_15160)"/>
</g>
<defs>
<filter id="filter0_d_144_15160" x="9.76953" y="13.8477" width="44.1152" height="39.0195" filterUnits="userSpaceOnUse" color-interpolation-filters="sRGB">
<feFlood flood-opacity="0" result="BackgroundImageFix"/>
<feColorMatrix in="SourceAlpha" type="matrix" values="0 0 0 0 0 0 0 0 0 0 0 0 0 0 0 0 0 0 127 0" result="hardAlpha"/>
<feOffset dx="3" dy="5"/>
<feGaussianBlur stdDeviation="4"/>
<feComposite in2="hardAlpha" operator="out"/>
<feColorMatrix type="matrix" values="0 0 0 0 0.784314 0 0 0 0 0.698039 0 0 0 0 0.537255 0 0 0 0.33 0"/>
<feBlend mode="normal" in2="BackgroundImageFix" result="effect1_dropShadow_144_15160"/>
<feBlend mode="normal" in="SourceGraphic" in2="effect1_dropShadow_144_15160" result="shape"/>
</filter>
<linearGradient id="paint0_linear_144_15160" x1="28.8272" y1="17.3477" x2="28.8272" y2="29.6226" gradientUnits="userSpaceOnUse">
<stop stop-color="#EBDAB9"/>
<stop offset="1" stop-color="#C8B289"/>
</linearGradient>
<linearGradient id="paint1_linear_144_15160" x1="29.0375" y1="17.0246" x2="29.0375" y2="29.9463" gradientUnits="userSpaceOnUse">
<stop stop-color="#C8B289"/>
<stop offset="1" stop-color="#C8B289"/>
</linearGradient>
<linearGradient id="paint2_linear_144_15160" x1="28.8272" y1="24.3125" x2="28.8272" y2="39.3688" gradientUnits="userSpaceOnUse">
<stop stop-color="#EBDAB9"/>
<stop offset="1" stop-color="#C8B289"/>
</linearGradient>
<linearGradient id="paint3_linear_144_15160" x1="29.0375" y1="23.9163" x2="29.0375" y2="39.7658" gradientUnits="userSpaceOnUse">
<stop stop-color="#C8B289"/>
<stop offset="1" stop-color="#C8B289"/>
</linearGradient>
</defs>
</svg>
