<svg width="33" height="33" viewBox="0 0 33 33" fill="none" xmlns="http://www.w3.org/2000/svg">
<g id="67321cd8a36abadd26704084_gear-small-bg-orange-agenfolio-x-webflow-template.svg" clip-path="url(#clip0_144_14960)">
<path id="Vector" d="M24.8281 0.300781H8.82812C4.40985 0.300781 0.828125 3.8825 0.828125 8.30078V24.3008C0.828125 28.7191 4.40985 32.3008 8.82812 32.3008H24.8281C29.2464 32.3008 32.8281 28.7191 32.8281 24.3008V8.30078C32.8281 3.8825 29.2464 0.300781 24.8281 0.300781Z" fill="#FC8465"/>
<g id="Content" filter="url(#filter0_d_144_14960)">
<path id="Vector_2" d="M24.5646 17.9558C24.5642 18.0367 24.5916 18.1153 24.6421 18.1787L25.7153 19.523C25.9095 19.7646 26.0258 20.0588 26.049 20.3672C26.0724 20.6756 26.0016 20.9838 25.8461 21.2516L25.2169 22.3344C25.0616 22.6024 24.8287 22.8176 24.5486 22.9519C24.2684 23.0862 23.9541 23.1334 23.6466 23.0873L21.937 22.8287C21.8561 22.8174 21.7738 22.833 21.7029 22.873L19.6772 24.0359C19.6068 24.077 19.5522 24.1404 19.522 24.2159L18.8914 25.8159C18.7784 26.1034 18.581 26.3505 18.3247 26.5248C18.0684 26.6991 17.7652 26.7925 17.4548 26.793H16.1963C15.8858 26.7925 15.5826 26.6991 15.3264 26.5248C15.0701 26.3505 14.8726 26.1034 14.7597 25.8159L14.129 24.2159C14.0988 24.1404 14.0442 24.077 13.9738 24.0359L11.9482 22.873C11.8772 22.8328 11.7949 22.8173 11.714 22.8287L10.0045 23.0873C9.697 23.1334 9.38263 23.0862 9.10251 22.9519C8.82237 22.8176 8.58949 22.6024 8.43429 22.3344L7.80506 21.2516C7.64946 20.9838 7.57869 20.6756 7.60201 20.3672C7.62534 20.0588 7.74166 19.7646 7.93578 19.523L9.01469 18.1787C9.06517 18.1153 9.09252 18.0367 9.09226 17.9558V15.6301C9.09252 15.5492 9.06517 15.4707 9.01469 15.4073L7.93578 14.063C7.74166 13.8214 7.62534 13.5272 7.60201 13.2188C7.57869 12.9104 7.64946 12.6022 7.80506 12.3344L8.43429 11.2516C8.58949 10.9836 8.82237 10.7683 9.10251 10.634C9.38263 10.4997 9.697 10.4526 10.0045 10.4987L11.7097 10.7573C11.7906 10.7687 11.8729 10.7531 11.9439 10.713L13.9738 9.5444C14.0442 9.5032 14.0988 9.43986 14.129 9.3644L14.7626 7.77011C14.8755 7.48251 15.073 7.23543 15.3292 7.06112C15.5855 6.88681 15.8887 6.79336 16.1992 6.79297H17.4605C17.771 6.79336 18.0742 6.88681 18.3304 7.06112C18.5867 7.23543 18.7842 7.48251 18.8971 7.77011L19.5278 9.3644C19.5569 9.44198 19.6116 9.50746 19.683 9.55011L21.7086 10.713C21.7796 10.753 21.8619 10.7686 21.9427 10.7573L23.6522 10.4987C23.9598 10.4526 24.2742 10.4997 24.5544 10.634C24.8344 10.7683 25.0673 10.9836 25.2226 11.2516L25.8518 12.3344C26.0073 12.6022 26.0781 12.9104 26.0549 13.2188C26.0315 13.5272 25.9152 13.8214 25.721 14.063L24.6421 15.4073C24.5916 15.4707 24.5642 15.5492 24.5646 15.6301V17.9558Z" fill="url(#paint0_linear_144_14960)" stroke="url(#paint1_linear_144_14960)"/>
<path id="Vector_3" d="M16.8286 19.9852C18.8726 19.9852 20.0223 18.8354 20.0223 16.7914C20.0223 14.7474 18.8726 13.5977 16.8286 13.5977C14.7846 13.5977 13.6348 14.7474 13.6348 16.7914C13.6348 18.8354 14.7846 19.9852 16.8286 19.9852Z" fill="#EE542D"/>
</g>
</g>
<defs>
<filter id="filter0_d_144_14960" x="5.09766" y="6.29297" width="23.4609" height="25" filterUnits="userSpaceOnUse" color-interpolation-filters="sRGB">
<feFlood flood-opacity="0" result="BackgroundImageFix"/>
<feColorMatrix in="SourceAlpha" type="matrix" values="0 0 0 0 0 0 0 0 0 0 0 0 0 0 0 0 0 0 127 0" result="hardAlpha"/>
<feOffset dy="2"/>
<feGaussianBlur stdDeviation="1"/>
<feComposite in2="hardAlpha" operator="out"/>
<feColorMatrix type="matrix" values="0 0 0 0 0.7375 0 0 0 0 0.325114 0 0 0 0 0.0501907 0 0 0 0.5 0"/>
<feBlend mode="normal" in2="BackgroundImageFix" result="effect1_dropShadow_144_14960"/>
<feBlend mode="normal" in="SourceGraphic" in2="effect1_dropShadow_144_14960" result="shape"/>
</filter>
<linearGradient id="paint0_linear_144_14960" x1="16.8284" y1="6.79297" x2="16.8284" y2="26.793" gradientUnits="userSpaceOnUse">
<stop stop-color="#FFF0E7"/>
<stop offset="1" stop-color="#FFD1B6"/>
</linearGradient>
<linearGradient id="paint1_linear_144_14960" x1="16.8284" y1="6.79297" x2="16.8284" y2="26.793" gradientUnits="userSpaceOnUse">
<stop stop-color="#FFE0CE"/>
<stop offset="1" stop-color="#FFC19D"/>
</linearGradient>
<clipPath id="clip0_144_14960">
<rect width="32" height="32" fill="white" transform="translate(0.828125 0.300781)"/>
</clipPath>
</defs>
</svg>
