<svg fill="none" height="24" viewBox="0 0 24 24" width="24" xmlns="http://www.w3.org/2000/svg"><g stroke="#1c274c" stroke-width="1.5"><path d="m12.5 5c1.8856 0 2.8284 0 3.4142.58579.5858.58578.5858 1.52859.5858 3.41421v6c0 1.8856 0 2.8284-.5858 3.4142s-1.5286.5858-3.4142.5858h-1c-1.88562 0-2.82843 0-3.41421-.5858-.58579-.5858-.58579-1.5286-.58579-3.4142v-6c0-1.88562 0-2.82843.58579-3.41421.58578-.58579 1.52859-.58579 3.41421-.58579z"/><g stroke-linecap="round"><path d="m22 19h-.5c-1.3807 0-2.5-1.1193-2.5-2.5v-9c0-1.38071 1.1193-2.5 2.5-2.5h.5"/><path d="m2 19h.5c1.38071 0 2.5-1.1193 2.5-2.5v-9c0-1.38071-1.11929-2.5-2.5-2.5h-.5"/></g></g></svg>